<svg width="18" height="18" viewBox="0 0 18 18" fill="none" xmlns="http://www.w3.org/2000/svg">
<rect width="18" height="18" fill="white" fill-opacity="0.01"/>
<path d="M15.75 7.03118C15.75 7.18036 15.6908 7.32345 15.5853 7.42895C15.4798 7.53445 15.3368 7.59373 15.1876 7.59375C15.0384 7.59377 14.8953 7.53452 14.7898 7.42905C14.6843 7.32357 14.625 7.1805 14.625 7.03132L14.6246 4.17087L10.5207 8.2748C10.4152 8.38029 10.2721 8.43955 10.1229 8.43954C9.97374 8.43954 9.83066 8.38026 9.72517 8.27476C9.61968 8.16926 9.56042 8.02617 9.56042 7.87698C9.56043 7.72778 9.6197 7.5847 9.7252 7.47921L13.8291 3.37535L10.9688 3.375C10.8196 3.375 10.6765 3.31574 10.571 3.21025C10.4655 3.10476 10.4062 2.96168 10.4062 2.8125C10.4062 2.66332 10.4655 2.52024 10.571 2.41475C10.6765 2.30926 10.8196 2.25 10.9688 2.25H10.9688L15.187 2.25056C15.3362 2.25056 15.4792 2.30982 15.5847 2.41529C15.6902 2.52076 15.7495 2.66382 15.7495 2.81299L15.75 7.03118ZM12.9375 9.5625C12.7883 9.5625 12.6452 9.62176 12.5398 9.72725C12.4343 9.83274 12.375 9.97582 12.375 10.125V14.625H3.375V5.625H7.875C8.02418 5.625 8.16726 5.56574 8.27275 5.46025C8.37824 5.35476 8.4375 5.21168 8.4375 5.0625C8.4375 4.91332 8.37824 4.77024 8.27275 4.66475C8.16726 4.55926 8.02418 4.5 7.875 4.5H3.375C3.07673 4.50033 2.79078 4.61897 2.57987 4.82987C2.36897 5.04078 2.25033 5.32673 2.25 5.625V14.625C2.25033 14.9233 2.36897 15.2092 2.57987 15.4201C2.79078 15.631 3.07673 15.7497 3.375 15.75H12.375C12.6733 15.7497 12.9592 15.631 13.1701 15.4201C13.381 15.2092 13.4997 14.9233 13.5 14.625V10.125C13.5 9.97582 13.4407 9.83274 13.3352 9.72725C13.2298 9.62176 13.0867 9.5625 12.9375 9.5625Z" fill="#007FC0"/>
</svg>
