<svg width="20" height="20" viewBox="0 0 20 20" fill="none" xmlns="http://www.w3.org/2000/svg">
<rect width="20" height="20" fill="white" fill-opacity="0.01"/>
<path d="M17.317 10.442L11.692 16.067C11.6339 16.125 11.565 16.171 11.4892 16.2025C11.4134 16.2339 11.3321 16.25 11.25 16.25C11.1679 16.25 11.0866 16.2339 11.0108 16.2025C10.935 16.171 10.8661 16.125 10.808 16.067C10.75 16.0089 10.704 15.94 10.6726 15.8642C10.6412 15.7884 10.625 15.7071 10.625 15.625C10.625 15.5429 10.6412 15.4617 10.6726 15.3858C10.704 15.31 10.75 15.2411 10.808 15.1831L15.3661 10.625H3.125C2.95924 10.625 2.80027 10.5592 2.68306 10.442C2.56585 10.3247 2.5 10.1658 2.5 10C2.5 9.83426 2.56585 9.67528 2.68306 9.55807C2.80027 9.44086 2.95924 9.37502 3.125 9.37502H15.3661L10.808 4.81697C10.6908 4.69976 10.625 4.54078 10.625 4.37502C10.625 4.20925 10.6908 4.05028 10.808 3.93306C10.9253 3.81585 11.0842 3.75 11.25 3.75C11.4158 3.75 11.5747 3.81585 11.692 3.93306L17.317 9.55806C17.375 9.6161 17.421 9.685 17.4524 9.76083C17.4839 9.83666 17.5 9.91794 17.5 10C17.5 10.0821 17.4839 10.1634 17.4524 10.2392C17.421 10.315 17.375 10.3839 17.317 10.442Z" fill="white"/>
</svg>
