<svg width="14" height="14" viewBox="0 0 14 14" fill="currentColor" xmlns="http://www.w3.org/2000/svg">
<rect width="14" height="14" fill="currentColor" fill-opacity="0.01"/>
<path d="M5.24997 12.0314C5.12018 12.0314 4.99331 11.9929 4.88539 11.9208C4.77748 11.8487 4.69337 11.7462 4.6437 11.6263C4.59404 11.5063 4.58104 11.3744 4.60636 11.2471C4.63168 11.1198 4.69417 11.0029 4.78595 10.9111L8.69687 7.00013L4.78595 3.08915C4.66453 2.96574 4.5968 2.79936 4.5975 2.62623C4.59821 2.45311 4.66729 2.28728 4.78971 2.16487C4.91213 2.04245 5.07796 1.97337 5.25108 1.97266C5.4242 1.97196 5.59058 2.03969 5.71399 2.1611L10.089 6.5361C10.2121 6.65917 10.2812 6.82609 10.2812 7.00013C10.2812 7.17417 10.2121 7.34108 10.089 7.46415L5.71399 11.8392C5.65312 11.9002 5.5808 11.9486 5.50116 11.9816C5.42153 12.0146 5.33616 12.0315 5.24997 12.0314Z" fill="currentColor"/>
</svg>
