<svg width="16" height="16" viewBox="0 0 16 16" fill="none" xmlns="http://www.w3.org/2000/svg">
<rect width="16" height="16" fill="white" fill-opacity="0.01"/>
<path d="M14 8.00001C14 8.13262 13.9473 8.2598 13.8536 8.35357C13.7598 8.44733 13.6326 8.50001 13.5 8.50001H3.70714L7.35358 12.1465C7.40001 12.1929 7.43684 12.248 7.46197 12.3087C7.4871 12.3693 7.50003 12.4344 7.50003 12.5C7.50003 12.5657 7.4871 12.6307 7.46197 12.6914C7.43684 12.752 7.40001 12.8071 7.35358 12.8536C7.30715 12.9 7.25203 12.9368 7.19136 12.962C7.1307 12.9871 7.06568 13 7.00002 13C6.93436 13 6.86934 12.9871 6.80867 12.962C6.74801 12.9368 6.69289 12.9 6.64646 12.8536L2.14646 8.35358C2.10002 8.30715 2.06319 8.25203 2.03806 8.19136C2.01293 8.1307 2 8.06568 2 8.00001C2 7.93435 2.01293 7.86933 2.03806 7.80867C2.06319 7.748 2.10002 7.69288 2.14646 7.64645L6.64646 3.14645C6.74023 3.05268 6.86741 3 7.00002 3C7.13263 3 7.25981 3.05268 7.35358 3.14645C7.44735 3.24022 7.50003 3.3674 7.50003 3.50001C7.50003 3.63262 7.44735 3.7598 7.35358 3.85358L3.70714 7.50001H13.5C13.6326 7.50001 13.7598 7.55269 13.8536 7.64646C13.9473 7.74023 14 7.8674 14 8.00001Z" fill="#4C4C4C"/>
</svg>
