<svg width="20" height="20" viewBox="0 0 20 20" fill="none" xmlns="http://www.w3.org/2000/svg">
<path fill-rule="evenodd" clip-rule="evenodd" d="M9.99997 0.75C8.48088 0.75 7.024 1.35346 5.94984 2.42762C4.87568 3.50178 4.27223 4.95865 4.27223 6.47774C4.27223 7.69598 4.02255 8.57136 3.70318 9.19533C3.66824 9.26359 3.59982 9.34074 3.44257 9.43526C3.30329 9.51898 3.15211 9.58482 2.95315 9.67147C2.90518 9.69236 2.8544 9.71448 2.80037 9.73834C1.86298 10.1522 1.45175 11.0045 1.42363 11.8085C1.39691 12.5727 1.71038 13.4016 2.35405 13.8861C2.36221 13.8926 2.37124 13.8995 2.38117 13.9069C2.40588 13.9253 2.4362 13.9466 2.47288 13.9702C2.54622 14.0173 2.64499 14.0739 2.77525 14.1363C3.03537 14.2608 3.42317 14.4094 3.9892 14.5525C5.11868 14.838 6.98053 15.1071 9.99997 15.1071C13.0194 15.1071 14.8813 14.838 16.0107 14.5525C16.5768 14.4094 16.9646 14.2608 17.2247 14.1363C17.3549 14.0739 17.4537 14.0173 17.5271 13.9702C17.5637 13.9466 17.594 13.9253 17.6188 13.9069C17.6287 13.8995 17.6377 13.8926 17.6459 13.8861C18.2895 13.4016 18.603 12.5727 18.5763 11.8085C18.5482 11.0045 18.1369 10.1522 17.1996 9.73834C17.1455 9.71448 17.0948 9.69237 17.0468 9.67148C16.8478 9.58483 16.6966 9.51899 16.5574 9.43526C16.4001 9.34074 16.3317 9.26359 16.2968 9.19533C15.9774 8.57136 15.7277 7.69598 15.7277 6.47774C15.7277 4.95865 15.1242 3.50178 14.0501 2.42762C12.9759 1.35346 11.5191 0.75 9.99997 0.75ZM16.7399 12.6906C16.7335 12.6953 16.7271 12.7002 16.7208 12.7052L16.7158 12.7085C16.6987 12.7195 16.6549 12.746 16.5769 12.7833C16.4205 12.8582 16.1289 12.9755 15.6431 13.0983C14.669 13.3445 12.9379 13.6071 9.99997 13.6071C7.062 13.6071 5.33092 13.3445 4.35681 13.0983C3.87105 12.9755 3.57939 12.8582 3.423 12.7833C3.34501 12.746 3.30126 12.7195 3.28415 12.7085L3.27912 12.7052C3.27283 12.7002 3.26645 12.6953 3.26 12.6906C3.07527 12.554 2.90974 12.2322 2.92272 11.861C2.9345 11.524 3.08683 11.2515 3.4062 11.1105C3.44064 11.0953 3.47806 11.0791 3.51778 11.0619C3.72037 10.9742 3.98297 10.8606 4.21533 10.7209C4.50897 10.5444 4.83018 10.2856 5.03843 9.87877C5.47753 9.02091 5.77223 7.90719 5.77223 6.47774C5.77223 5.35647 6.21765 4.28113 7.0105 3.48828C7.80336 2.69542 8.8787 2.25 9.99997 2.25C11.1212 2.25 12.1966 2.69542 12.9894 3.48828C13.7823 4.28113 14.2277 5.35647 14.2277 6.47774C14.2277 7.90719 14.5224 9.02091 14.9615 9.87877C15.1698 10.2856 15.491 10.5444 15.7846 10.7209C16.017 10.8606 16.2793 10.9741 16.4819 11.0618C16.5216 11.079 16.5593 11.0954 16.5937 11.1105C16.9131 11.2515 17.0654 11.524 17.0772 11.861C17.0902 12.2322 16.9247 12.554 16.7399 12.6906Z" fill="#007FBF"/>
<path d="M8.89754 16.7998C8.70176 16.4348 8.24714 16.2975 7.88211 16.4933C7.51709 16.6891 7.37988 17.1437 7.57566 17.5087C8.06226 18.416 9.02131 19.0358 10.1262 19.0358C11.2312 19.0358 12.1902 18.416 12.6768 17.5087C12.8726 17.1437 12.7354 16.6891 12.3704 16.4933C12.0054 16.2975 11.5507 16.4348 11.355 16.7998C11.1191 17.2395 10.6567 17.5358 10.1262 17.5358C9.59577 17.5358 9.13335 17.2395 8.89754 16.7998Z" fill="#007FBF"/>
</svg>
