<svg width="20" height="20" viewBox="0 0 20 20" fill="none" xmlns="http://www.w3.org/2000/svg">
<g clip-path="url(#clip0_447_5958)">
<path fill-rule="evenodd" clip-rule="evenodd" d="M7.14286 9C7.14286 9.18367 7.30286 9.33333 7.5 9.33333C7.69714 9.33333 7.85714 9.18367 7.85714 9C7.85714 8.81633 7.69714 8.66667 7.5 8.66667C7.30286 8.66667 7.14286 8.81633 7.14286 9ZM7.85714 15C7.85714 14.8163 7.69714 14.6667 7.5 14.6667C7.30286 14.6667 7.14286 14.8163 7.14286 15C7.14286 15.1837 7.30286 15.3333 7.5 15.3333C7.69714 15.3333 7.85714 15.1837 7.85714 15ZM5 9C5 8.81633 4.84 8.66667 4.64286 8.66667C4.44571 8.66667 4.28571 8.81633 4.28571 9C4.28571 9.18367 4.44571 9.33333 4.64286 9.33333C4.84 9.33333 5 9.18367 5 9ZM5 13C5 12.8163 4.84 12.6667 4.64286 12.6667C4.44571 12.6667 4.28571 12.8163 4.28571 13C4.28571 13.1837 4.44571 13.3333 4.64286 13.3333C4.84 13.3333 5 13.1837 5 13ZM7.14286 5.66667C7.14286 5.85033 7.30286 6 7.5 6C7.69714 6 7.85714 5.85033 7.85714 5.66667C7.85714 5.483 7.69714 5.33333 7.5 5.33333C7.30286 5.33333 7.14286 5.483 7.14286 5.66667ZM5 6V8.06133C5.30286 8.162 5.54071 8.38433 5.64821 8.66667H6.49464C6.6425 8.27933 7.035 8 7.5 8C8.09071 8 8.57143 8.44867 8.57143 9C8.57143 9.434 8.27179 9.80033 7.85714 9.93867V14.0613C8.27179 14.1997 8.57143 14.566 8.57143 15C8.57143 15.434 8.27179 15.8003 7.85714 15.9387V17C7.85714 17.184 7.6975 17.3333 7.5 17.3333C7.3025 17.3333 7.14286 17.184 7.14286 17V15.9383C6.77821 15.8173 6.50643 15.5193 6.44536 15.1533L5.10464 13.9023C5.10357 13.9017 5.10357 13.9003 5.1025 13.8993C4.96286 13.962 4.80821 14 4.64286 14C4.05214 14 3.57143 13.5513 3.57143 13C3.57143 12.4487 4.05214 12 4.64286 12C5.23357 12 5.71429 12.4487 5.71429 13C5.71429 13.154 5.67357 13.2987 5.60643 13.429C5.6075 13.43 5.60857 13.4303 5.60964 13.431L6.64786 14.4003C6.77321 14.2457 6.94393 14.1277 7.14286 14.0613V9.93833C6.84 9.838 6.60214 9.61567 6.49464 9.33333H5.64821C5.50036 9.72067 5.10786 10 4.64286 10C4.05214 10 3.57143 9.55133 3.57143 9C3.57143 8.566 3.87107 8.19967 4.28571 8.06133V5.66667C4.28571 5.48267 4.44536 5.33333 4.64286 5.33333H6.49464C6.60214 5.051 6.84 4.82867 7.14286 4.728V3.66667C7.14286 3.48267 7.3025 3.33333 7.5 3.33333C7.6975 3.33333 7.85714 3.48267 7.85714 3.66667V4.728C8.27179 4.86633 8.57143 5.23267 8.57143 5.66667C8.57143 6.218 8.09071 6.66667 7.5 6.66667C7.035 6.66667 6.6425 6.38733 6.49464 6H5ZM19.1546 12.415C19.6864 11.9787 20 11.3473 20 10.6667C20 9.95333 19.6604 9.298 19.0768 8.858C19.2143 8.59033 19.2857 8.29867 19.2857 8C19.2857 7.312 18.8989 6.67833 18.2886 6.31667C18.4729 6.017 18.5714 5.679 18.5714 5.33333C18.5714 4.47333 17.9861 3.72567 17.1389 3.44967C17.1414 3.41067 17.1429 3.372 17.1429 3.33333C17.1429 2.23033 16.1818 1.33333 15 1.33333C14.7118 1.33333 14.4311 1.388 14.1689 1.49333C13.8618 0.625333 12.9786 0 11.9643 0C10.4614 0 9.79321 1.26533 9.65 1.93467C9.6475 1.94567 9.65071 1.95633 9.65 1.96767C9.64893 1.979 9.64286 1.98833 9.64286 2V17.6467C9.56214 18.593 8.70107 19.3333 7.67857 19.3333C6.65964 19.3333 5.80107 18.5903 5.72357 17.6413C5.70929 17.4677 5.54357 17.3333 5.35714 17.3333C5.24571 17.3333 5.14071 17.382 5.07286 17.4647C4.79571 17.805 4.37857 18 3.92857 18C3.14071 18 2.5 17.402 2.5 16.6667C2.5 16.364 2.61286 16.0747 2.82714 15.8297C2.92357 15.7193 2.93429 15.5637 2.85321 15.4427C2.7725 15.3217 2.61964 15.2617 2.46893 15.2947C2.34929 15.3207 2.2425 15.3333 2.14286 15.3333C1.355 15.3333 0.714286 14.7353 0.714286 14C0.714286 13.4503 1.08821 12.9503 1.64429 12.7557C1.77679 12.7093 1.8675 12.5947 1.87571 12.4633C1.88393 12.3317 1.80821 12.2077 1.68321 12.1473C1.08536 11.8597 0.714286 11.292 0.714286 10.6667C0.714286 10.0787 1.03821 9.54533 1.58107 9.24C1.66571 9.19233 1.72536 9.114 1.74607 9.02367C1.76643 8.933 1.74571 8.839 1.68893 8.76333C1.51857 8.53633 1.42857 8.27267 1.42857 8C1.42857 7.44633 1.80643 6.94533 2.36821 6.753C2.47929 6.715 2.56321 6.628 2.59214 6.521C2.62071 6.41367 2.59036 6.3 2.51143 6.21767C2.27357 5.97 2.14286 5.656 2.14286 5.33333C2.14286 4.68733 2.63893 4.137 3.32179 4.02433C3.4175 4.00833 3.50286 3.95667 3.55679 3.881C3.61071 3.80533 3.62929 3.71233 3.60857 3.62367C3.58357 3.51967 3.57143 3.42467 3.57143 3.33333C3.57143 2.598 4.21214 2 5 2C5.30929 2 5.6075 2.09633 5.86286 2.27867C5.96679 2.35267 6.10571 2.368 6.22464 2.31867C6.34429 2.269 6.425 2.16267 6.43607 2.04133C6.50393 1.27067 7.20679 0.666667 8.03571 0.666667C8.43357 0.666667 8.7625 0.786 9.04107 1.03133C9.185 1.15767 9.41107 1.15133 9.54607 1.01733C9.68143 0.883333 9.675 0.672667 9.53143 0.546333C9.11964 0.183667 8.61643 0 8.03571 0C7.02143 0 6.13821 0.625333 5.83107 1.49333C5.56893 1.388 5.28821 1.33333 5 1.33333C3.81821 1.33333 2.85714 2.23033 2.85714 3.33333C2.85714 3.372 2.85857 3.41067 2.86107 3.44967C2.01393 3.72567 1.42857 4.47333 1.42857 5.33333C1.42857 5.679 1.52714 6.017 1.71143 6.31667C1.10107 6.67833 0.714286 7.312 0.714286 8C0.714286 8.29867 0.785714 8.59033 0.923214 8.858C0.339643 9.298 0 9.95333 0 10.6667C0 11.3473 0.313571 11.9787 0.845357 12.415C0.323571 12.7873 0 13.372 0 14C0 15.031 0.840357 15.8823 1.91536 15.9887C1.82964 16.2047 1.78571 16.4327 1.78571 16.6667C1.78571 17.7697 2.74679 18.6667 3.92857 18.6667C4.37214 18.6667 4.79429 18.541 5.14857 18.3107C5.51286 19.2953 6.51964 20 7.67857 20C9.07429 20 10.2504 18.986 10.3561 17.692C10.3564 17.6877 10.3543 17.6837 10.3543 17.6793C10.3546 17.6747 10.3571 17.6713 10.3571 17.6667V2.03667C10.41 1.832 10.7625 0.666667 11.9643 0.666667C12.7932 0.666667 13.4961 1.27067 13.5639 2.04133C13.575 2.16267 13.6557 2.269 13.7754 2.31867C13.8943 2.368 14.0332 2.35267 14.1371 2.27867C14.3925 2.09633 14.6907 2 15 2C15.7879 2 16.4286 2.598 16.4286 3.33333C16.4286 3.42467 16.4164 3.51967 16.3914 3.62367C16.3707 3.71233 16.3893 3.80533 16.4432 3.881C16.4971 3.95667 16.5825 4.00833 16.6782 4.02433C17.3611 4.137 17.8571 4.68733 17.8571 5.33333C17.8571 5.656 17.7264 5.97 17.4886 6.21767C17.4096 6.3 17.3793 6.41367 17.4079 6.521C17.4368 6.628 17.5207 6.715 17.6318 6.753C18.1936 6.94533 18.5714 7.44633 18.5714 8C18.5714 8.27267 18.4814 8.53633 18.3111 8.76333C18.2543 8.839 18.2336 8.933 18.2539 9.02367C18.2746 9.114 18.3343 9.19233 18.4189 9.24C18.9618 9.54533 19.2857 10.0787 19.2857 10.6667C19.2857 11.292 18.9146 11.8597 18.3168 12.1473C18.1918 12.2077 18.1161 12.3317 18.1243 12.4633C18.1325 12.5947 18.2232 12.7093 18.3557 12.7557C18.9118 12.9503 19.2857 13.4503 19.2857 14C19.2857 14.7353 18.645 15.3333 17.8571 15.3333C17.7575 15.3333 17.6507 15.3207 17.5311 15.2947C17.3811 15.2617 17.2279 15.3217 17.1468 15.4427C17.0657 15.5637 17.0764 15.7193 17.1729 15.8297C17.3871 16.0747 17.5 16.364 17.5 16.6667C17.5 17.402 16.8593 18 16.0714 18C15.62 18 15.2036 17.8027 14.9293 17.4583C14.8371 17.3433 14.6768 17.2963 14.5307 17.341C14.4779 17.3573 14.4314 17.3843 14.3939 17.4187C14.3275 17.474 14.2836 17.5527 14.2764 17.6413C14.1989 18.5903 13.3404 19.3333 12.3214 19.3333C11.8725 19.3333 11.4489 19.1957 11.0964 18.9353C10.9411 18.821 10.7171 18.8457 10.5946 18.9897C10.4721 19.134 10.4986 19.3437 10.6529 19.458C11.1261 19.8073 11.7189 20 12.3214 20C13.4811 20 14.4886 19.294 14.8521 18.3083C15.2054 18.5403 15.6268 18.6667 16.0714 18.6667C17.2532 18.6667 18.2143 17.7697 18.2143 16.6667C18.2143 16.4327 18.1704 16.2047 18.0846 15.9887C19.1596 15.8823 20 15.031 20 14C20 13.372 19.6764 12.7873 19.1546 12.415ZM12.8571 15C12.8571 15.184 13.0168 15.3333 13.2143 15.3333C13.735 15.3333 14.2857 15.8473 14.2857 16.3333C14.2857 16.5173 14.4454 16.6667 14.6429 16.6667C14.8404 16.6667 15 16.5173 15 16.3333C15 15.4767 14.1321 14.6667 13.2143 14.6667C13.0168 14.6667 12.8571 14.816 12.8571 15ZM16.0714 6C15.5507 6 15 5.486 15 5C15 4.816 14.8404 4.66667 14.6429 4.66667C14.4454 4.66667 14.2857 4.816 14.2857 5C14.2857 5.85667 15.1536 6.66667 16.0714 6.66667C16.2689 6.66667 16.4286 6.51733 16.4286 6.33333C16.4286 6.14933 16.2689 6 16.0714 6ZM11.7857 13.3333C11.9832 13.3333 12.1429 13.184 12.1429 13C12.1429 12.514 12.6936 12 13.2143 12C13.4118 12 13.5714 11.8507 13.5714 11.6667C13.5714 11.4827 13.4118 11.3333 13.2143 11.3333C12.2964 11.3333 11.4286 12.1433 11.4286 13C11.4286 13.184 11.5882 13.3333 11.7857 13.3333ZM13.2143 9.33333C13.4118 9.33333 13.5714 9.184 13.5714 9C13.5714 8.816 13.4118 8.66667 13.2143 8.66667C12.6936 8.66667 12.1429 8.15267 12.1429 7.66667C12.1429 7.48267 11.9832 7.33333 11.7857 7.33333C11.5882 7.33333 11.4286 7.48267 11.4286 7.66667C11.4286 8.52333 12.2964 9.33333 13.2143 9.33333ZM16.7857 8C16.5882 8 16.4286 8.14933 16.4286 8.33333C16.4286 8.81933 15.8779 9.33333 15.3571 9.33333C15.1596 9.33333 15 9.48267 15 9.66667C15 9.85067 15.1596 10 15.3571 10C16.275 10 17.1429 9.19 17.1429 8.33333C17.1429 8.14933 16.9832 8 16.7857 8ZM15.3571 12C15.1596 12 15 12.1493 15 12.3333C15 12.5173 15.1596 12.6667 15.3571 12.6667C15.8779 12.6667 16.4286 13.1807 16.4286 13.6667C16.4286 13.8507 16.5882 14 16.7857 14C16.9832 14 17.1429 13.8507 17.1429 13.6667C17.1429 12.81 16.275 12 15.3571 12ZM11.4286 4.66667C11.4286 3.81 12.2964 3 13.2143 3C13.4118 3 13.5714 3.14933 13.5714 3.33333C13.5714 3.51733 13.4118 3.66667 13.2143 3.66667C12.6936 3.66667 12.1429 4.18067 12.1429 4.66667C12.1429 4.85067 11.9832 5 11.7857 5C11.5882 5 11.4286 4.85067 11.4286 4.66667Z" fill="#007FC0"/>
</g>
<defs>
<clipPath id="clip0_447_5958">
<rect width="20" height="20" fill="white"/>
</clipPath>
</defs>
</svg>
