<svg width="14" height="14" viewBox="0 0 14 14" fill="none" xmlns="http://www.w3.org/2000/svg">
<rect width="14" height="14" fill="white" fill-opacity="0.01"/>
<path d="M7.00001 10.0625C6.94255 10.0626 6.88563 10.0513 6.83254 10.0293C6.77945 10.0073 6.73123 9.97506 6.69064 9.93438L2.31564 5.55938C2.23359 5.47733 2.1875 5.36605 2.1875 5.25001C2.1875 5.13398 2.23359 5.02269 2.31564 4.94064C2.39769 4.85859 2.50898 4.8125 2.62501 4.8125C2.74105 4.8125 2.85233 4.85859 2.93438 4.94064L7.00001 9.00628L11.0656 4.94064C11.1477 4.85859 11.259 4.8125 11.375 4.8125C11.491 4.8125 11.6023 4.85859 11.6844 4.94064C11.7664 5.02269 11.8125 5.13398 11.8125 5.25001C11.8125 5.36605 11.7664 5.47733 11.6844 5.55938L7.30938 9.93438C7.2688 9.97506 7.22057 10.0073 7.16748 10.0293C7.11439 10.0513 7.05748 10.0626 7.00001 10.0625Z" fill="#666666"/>
</svg>
