<svg  viewBox="0 0 101 108" fill="none" xmlns="http://www.w3.org/2000/svg">
<path fill-rule="evenodd" clip-rule="evenodd" d="M89.7333 61.6318C88.7485 60.6303 87.4525 60.0068 86.0662 59.8677C84.6799 59.7287 83.289 60.0825 82.1306 60.8691C80.9722 61.6556 80.1179 62.8261 79.7133 64.1812C79.3087 65.5363 79.3788 66.992 79.9117 68.3004C80.4446 69.6088 81.4073 70.6889 82.6357 71.3566C83.8642 72.0244 85.2824 72.2384 86.6488 71.9623C88.0151 71.6862 89.2449 70.9371 90.1288 69.8425C91.0127 68.7479 91.4958 67.3757 91.496 65.9596C91.4973 65.1557 91.3422 64.3595 91.0397 63.6168C90.7372 62.8741 90.2932 62.1995 89.7333 61.6318ZM85.476 56.3511C87.6611 56.3512 89.7785 57.1214 91.4676 58.5306C93.1566 59.9397 94.3128 61.9006 94.7391 64.0792C95.1654 66.2577 94.8355 68.5191 93.8055 70.4781C92.7755 72.4371 91.1093 73.9725 89.0906 74.8226C87.0719 75.6727 84.8257 75.7851 82.7347 75.1405C80.6437 74.4958 78.8372 73.1342 77.6231 71.2874C76.4089 69.4406 75.8622 67.2231 76.0761 65.0125C76.29 62.802 77.2513 60.7352 78.7961 59.1643C79.6723 58.2711 80.7135 57.5628 81.8599 57.08C83.0062 56.5972 84.2352 56.3495 85.476 56.3511ZM26.9777 12.5429H57.2853C58.1635 12.5441 59.0054 12.8994 59.6264 13.5306C60.2474 14.1619 60.5968 15.0178 60.5981 15.9105V46.7198C60.5965 47.6124 60.2469 48.4679 59.626 49.0989C59.005 49.73 58.1633 50.085 57.2853 50.0863H26.9777C26.1009 50.0844 25.2604 49.73 24.6397 49.1004C24.0191 48.4708 23.6686 47.6171 23.6649 46.7258V15.9105C23.6667 15.0179 24.0164 14.1625 24.6372 13.5313C25.2581 12.9002 26.0996 12.5448 26.9777 12.5429ZM31.1854 44.1179H37.5336C37.972 44.0945 38.385 43.9009 38.6872 43.5771C38.9894 43.2533 39.1579 42.824 39.1579 42.3776C39.1579 41.9313 38.9894 41.502 38.6872 41.1782C38.385 40.8544 37.972 40.6608 37.5336 40.6374H31.1854C30.7469 40.6608 30.334 40.8544 30.0318 41.1782C29.7296 41.502 29.5611 41.9313 29.5611 42.3776C29.5611 42.824 29.7296 43.2533 30.0318 43.5771C30.334 43.9009 30.7469 44.0945 31.1854 44.1179ZM39.8995 16.0269V20.6932L40.7932 19.595C40.9519 19.3927 41.1529 19.2289 41.3817 19.1156C41.6105 19.0022 41.8613 18.9422 42.1158 18.94C42.3703 18.9377 42.6221 18.9931 42.8529 19.1023C43.0836 19.2114 43.2875 19.3716 43.4496 19.571L44.3634 20.6932V16.0269H39.8995ZM47.7908 16.0269V25.5298C47.7909 25.8959 47.6776 26.2528 47.4668 26.5497C47.2561 26.8465 46.9586 27.0684 46.6168 27.1836C46.2749 27.2988 45.9061 27.3015 45.5626 27.1915C45.2191 27.0814 44.9185 26.864 44.7034 26.5703L42.1321 23.4103L39.5052 26.6363C39.2806 26.9122 38.9778 27.1109 38.638 27.2053C38.2982 27.2998 37.9381 27.2854 37.6067 27.1641C37.2752 27.0428 36.9887 26.8206 36.7861 26.5277C36.5835 26.2348 36.4747 25.8855 36.4746 25.5274V16.0269H27.0922V46.6034H57.1707V16.0269H47.7908ZM83.8904 89.9784C84.017 89.6647 84.2309 89.3955 84.5058 89.2036C84.7808 89.0117 85.1048 88.9056 85.4382 88.8983C85.6615 88.8402 85.895 88.8356 86.1203 88.8848C86.3456 88.9339 86.5567 89.0355 86.7369 89.1815L93.8537 94.9531V82.7282C93.5278 82.7594 93.2008 82.7798 92.8738 82.799C92.2646 82.8086 91.6585 82.8892 91.0674 83.0391C90.5177 83.2747 89.9944 83.5696 89.5066 83.9188C88.3491 84.8435 86.9447 85.393 85.476 85.4958C84.0076 85.3925 82.6036 84.8426 81.4466 83.9176C80.9584 83.5684 80.4347 83.2735 79.8846 83.0379C79.2939 82.8879 78.6882 82.8074 78.0795 82.7978L77.7571 82.7786V94.9519L83.8904 89.9784ZM2.41496 12.5081H8.88946C9.30264 12.5055 9.69819 12.3376 9.99035 12.0406C10.2825 11.7436 10.4478 11.3415 10.4502 10.9215V2.61155L2.41496 12.5081ZM10.6604 85.3062C10.2219 85.2828 9.80899 85.0892 9.50677 84.7654C9.20455 84.4416 9.03607 84.0123 9.03607 83.5659C9.03607 83.1196 9.20455 82.6903 9.50677 82.3665C9.80899 82.0427 10.2219 81.8491 10.6604 81.8257H44.7023C45.1407 81.8491 45.5537 82.0427 45.8559 82.3665C46.1581 82.6903 46.3266 83.1196 46.3266 83.5659C46.3266 84.0123 46.1581 84.4416 45.8559 84.7654C45.5537 85.0892 45.1407 85.2828 44.7023 85.3062H10.6604ZM70.4562 61.783C70.4015 61.4836 70.4116 61.1756 70.4857 60.8805C70.8662 60.2275 71.3918 59.6743 72.0205 59.2651C72.7431 58.7296 73.3912 58.0974 73.9473 57.3856C74.4527 56.6266 74.8528 55.8003 75.1362 54.9301C75.3243 54.2168 75.6717 53.5572 76.1515 53.0027C76.821 52.6999 77.5504 52.559 78.2825 52.591C79.1885 52.5746 80.0883 52.4349 80.9578 52.1758C81.7862 51.8629 82.5718 51.4434 83.2954 50.9276C83.9308 50.4128 84.6801 50.0635 85.4784 49.9098C86.2767 50.0633 87.0261 50.4126 87.6613 50.9276C88.3852 51.4429 89.1707 51.8624 89.999 52.1758C90.8689 52.435 91.769 52.5747 92.6754 52.591C93.4055 52.5596 94.1329 52.7005 94.8005 53.0027C95.2812 53.5566 95.6288 54.2164 95.8159 54.9301C96.1006 55.7998 96.5014 56.6256 97.0071 57.3844C97.5632 58.0962 98.2113 58.7284 98.9339 59.2639C99.5624 59.6733 100.088 60.2265 100.469 60.8793C100.555 61.6609 100.463 62.4521 100.201 63.192C99.9423 64.0926 99.7944 65.0221 99.7603 65.9596C99.7948 66.8946 99.9427 67.8218 100.201 68.72C100.463 69.4598 100.555 70.2511 100.469 71.0327C100.088 71.6859 99.5625 72.2395 98.9339 72.6493C97.4272 73.6774 96.3243 75.2116 95.8182 76.9831C95.6314 77.6972 95.2838 78.3575 94.8029 78.9117C94.1334 79.2146 93.404 79.3555 92.6719 79.3234C91.7658 79.3392 90.866 79.4789 89.9966 79.7386C89.1684 80.052 88.3828 80.4715 87.659 80.9868C87.0237 81.5017 86.2744 81.8511 85.476 82.0045C84.6777 81.8509 83.9284 81.5015 83.2931 80.9868C82.5695 80.471 81.7839 80.0515 80.9554 79.7386C80.086 79.4789 79.1862 79.3392 78.2802 79.3234C77.5481 79.3553 76.8187 79.2145 76.1491 78.9117C75.6692 78.3568 75.3217 77.6968 75.1338 76.9831C74.8504 76.1133 74.4504 75.2874 73.9449 74.5287C73.3888 73.817 72.7407 73.1848 72.0182 72.6493C71.3894 72.2397 70.8637 71.686 70.4834 71.0327C70.3963 70.2512 70.4876 69.4598 70.7502 68.72C71.0086 67.8218 71.1569 66.8947 71.1917 65.9596C71.1572 65.0221 71.0089 64.0925 70.7502 63.192L70.703 62.9892C70.7173 62.8987 70.7244 62.8072 70.7242 62.7156C70.7248 62.3846 70.6318 62.0617 70.4562 61.783ZM10.6604 64.4594C10.2219 64.436 9.80899 64.2424 9.50677 63.9186C9.20455 63.5948 9.03607 63.1655 9.03607 62.7192C9.03607 62.2728 9.20455 61.8435 9.50677 61.5197C9.80899 61.1959 10.2219 61.0023 10.6604 60.9789H21.2434C21.6819 61.0023 22.0948 61.1959 22.397 61.5197C22.6993 61.8435 22.8677 62.2728 22.8677 62.7192C22.8677 63.1655 22.6993 63.5948 22.397 63.9186C22.0948 64.2424 21.6819 64.436 21.2434 64.4594H10.6604ZM10.6604 74.884H69.2862C69.4834 75.0508 69.6853 75.214 69.886 75.3772C70.3639 75.7288 70.7998 76.136 71.1847 76.5906C71.4966 77.1047 71.7474 77.6547 71.932 78.2288C72.299 79.5926 73.0643 80.8112 74.1268 81.7237C74.174 81.7581 74.2212 81.7917 74.2684 81.8245H51.2228C50.7843 81.8479 50.3714 82.0415 50.0692 82.3653C49.767 82.6891 49.5985 83.1184 49.5985 83.5647C49.5985 84.0111 49.767 84.4404 50.0692 84.7642C50.3714 85.088 50.7843 85.2815 51.2228 85.305H74.7584V92.2455H10.6604C10.2219 92.2689 9.80899 92.4625 9.50677 92.7863C9.20455 93.1101 9.03607 93.5394 9.03607 93.9857C9.03607 94.4321 9.20455 94.8614 9.50677 95.1852C9.80899 95.509 10.2219 95.7025 10.6604 95.726H74.7584V98.1095C74.7582 98.3956 74.8375 98.6761 74.9872 98.9185C75.1368 99.1609 75.3507 99.3554 75.6042 99.4798C75.8577 99.6041 76.1407 99.6532 76.4204 99.6215C76.7002 99.5897 76.9655 99.4782 77.1857 99.3L83.7594 93.9689V106.413C83.7563 106.833 83.5909 107.235 83.2989 107.532C83.0068 107.829 82.6116 107.997 82.1986 108H2.06077C1.64779 107.997 1.25259 107.829 0.960554 107.532C0.668519 107.235 0.503089 106.833 0.5 106.413V15.9921H8.88946C10.2115 15.9896 11.4787 15.4545 12.4134 14.5041C13.3481 13.5537 13.8742 12.2654 13.8764 10.9215V0H82.2022C82.6152 0.00314018 83.0104 0.171309 83.3024 0.468178C83.5944 0.765048 83.7599 1.16679 83.7629 1.58661V46.733C82.946 47.0643 82.1689 47.4891 81.4466 47.9992C80.9587 48.3492 80.435 48.6445 79.8846 48.8801C79.2939 49.0301 78.6882 49.1106 78.0795 49.1201C76.6854 49.0678 75.3082 49.4442 74.1279 50.2003C73.0655 51.1121 72.3005 52.3304 71.9343 53.694C71.7498 54.2677 71.4989 54.8173 71.187 55.331C70.8022 55.7855 70.3663 56.1928 69.8884 56.5443C68.7031 57.3293 67.7811 58.4625 67.2449 59.7932C67.1173 60.1759 67.0379 60.5735 67.0088 60.9765H27.7628C27.3243 60.9999 26.9114 61.1935 26.6092 61.5173C26.307 61.8411 26.1385 62.2704 26.1385 62.7168C26.1385 63.1631 26.307 63.5924 26.6092 63.9162C26.9114 64.24 27.3243 64.4336 27.7628 64.457H67.5377C67.669 64.9472 67.7458 65.4508 67.7668 65.9584C67.7276 66.6148 67.6155 67.2646 67.4327 67.8954C67.0733 69.0244 66.9491 70.2171 67.0679 71.3975H10.6604C10.2219 71.4209 9.80899 71.6145 9.50677 71.9383C9.20455 72.2621 9.03607 72.6914 9.03607 73.1377C9.03607 73.5841 9.20455 74.0134 9.50677 74.3372C9.80899 74.661 10.2219 74.8546 10.6604 74.878V74.884Z" fill="#007FC0"/>
</svg>
