<svg width="16" height="16" viewBox="0 0 16 16" fill="none" xmlns="http://www.w3.org/2000/svg">
<rect width="16" height="16" fill="white" fill-opacity="0.01"/>
<path d="M14.25 12.5H13.75V2.5C13.75 2.36739 13.6973 2.24021 13.6036 2.14645C13.5098 2.05268 13.3826 2 13.25 2H9.75C9.61739 2 9.49021 2.05268 9.39645 2.14645C9.30268 2.24021 9.25 2.36739 9.25 2.5V5H6.25C6.11739 5 5.99021 5.05268 5.89645 5.14645C5.80268 5.24021 5.75 5.36739 5.75 5.5V8H2.75C2.61739 8 2.49021 8.05268 2.39645 8.14645C2.30268 8.24021 2.25 8.36739 2.25 8.5V12.5H1.75C1.61739 12.5 1.49021 12.5527 1.39645 12.6464C1.30268 12.7402 1.25 12.8674 1.25 13C1.25 13.1326 1.30268 13.2598 1.39645 13.3536C1.49021 13.4473 1.61739 13.5 1.75 13.5H14.25C14.3826 13.5 14.5098 13.4473 14.6036 13.3536C14.6973 13.2598 14.75 13.1326 14.75 13C14.75 12.8674 14.6973 12.7402 14.6036 12.6464C14.5098 12.5527 14.3826 12.5 14.25 12.5ZM6.75 6H9.25V12.5H6.75V6ZM3.25 9H5.75V12.5H3.25V9ZM10.25 12.5V3H12.75V12.5H10.25Z" fill="#4C4C4C"/>
</svg>
