<svg width="20" height="20" viewBox="0 0 20 20" fill="none" xmlns="http://www.w3.org/2000/svg">
<path d="M9.56517 17.3289V9.00587C9.56517 8.81954 9.39954 8.69531 9.1511 8.69531H6.50099C6.25255 8.69531 6.08691 8.81954 6.08691 9.00587V17.391H6.99789V9.31643H8.81983V17.3289H9.56517Z" fill="#007FC0"/>
<path d="M13.9131 17.3248V9.89328C13.9131 9.69598 13.7889 9.56445 13.6026 9.56445H11.615C11.4287 9.56445 11.3044 9.69598 11.3044 9.89328V17.3248H11.9877V10.2879H13.3541V17.3905H13.9131V17.3248Z" fill="#007FC0"/>
<path d="M5.21727 18.2604V13.3908C5.21727 13.1821 5.05549 13.043 4.81283 13.043H2.14346C1.90079 13.043 1.73901 13.1821 1.73901 13.3908V18.2604H2.6288V13.7386H4.40838V18.2604H5.21727Z" fill="#007FC0"/>
<path d="M7.40906 4.74832L10.9866 6.55434L16.5216 2.34029L16.0491 1.73828L10.8516 5.68477L7.34155 3.87875L1.73901 7.22323L2.14402 7.82524L2.48152 7.62457L7.40906 4.74832Z" fill="#007FC0"/>
<path d="M17.3913 1.3561L16.838 4.3474L15.9684 4.20827L16.3637 1.98218L13.9131 1.63436L14.0712 0.869141L17.3913 1.3561Z" fill="#007FC0"/>
<path d="M18.261 18.2618V6.44178C18.261 6.22945 18.0953 6.08789 17.8469 6.08789H15.1968C14.9483 6.08789 14.7827 6.22945 14.7827 6.44178V18.2618H15.6937V6.86646H17.5156V18.2618H18.261Z" fill="#007FC0"/>
<path d="M0.869629 17.3906H19.1305V18.2602H0.869629V17.3906Z" fill="#007FC0"/>
</svg>
