<svg width="16" height="16" viewBox="0 0 16 16" fill="none" xmlns="http://www.w3.org/2000/svg">
<rect width="16" height="16" fill="white" fill-opacity="0.01"/>
<path d="M8 1.5C6.71442 1.5 5.45772 1.88122 4.3888 2.59545C3.31988 3.30968 2.48676 4.32484 1.99479 5.51256C1.50282 6.70028 1.37409 8.00721 1.6249 9.26809C1.8757 10.529 2.49477 11.6872 3.40381 12.5962C4.31285 13.5052 5.47104 14.1243 6.73192 14.3751C7.99279 14.6259 9.29973 14.4972 10.4874 14.0052C11.6752 13.5132 12.6903 12.6801 13.4046 11.6112C14.1188 10.5423 14.5 9.28558 14.5 8C14.498 6.2767 13.8126 4.62455 12.594 3.406C11.3754 2.18744 9.7233 1.50198 8 1.5ZM11.0957 6.86188L7.42869 10.3619C7.33546 10.4506 7.21169 10.5001 7.083 10.5001C6.95431 10.5001 6.83055 10.4506 6.73732 10.3619L4.90432 8.61187C4.80834 8.52019 4.75272 8.39414 4.74968 8.26145C4.74664 8.12875 4.79645 8.00029 4.88813 7.90431C4.97981 7.80834 5.10586 7.75271 5.23856 7.74968C5.37125 7.74664 5.49972 7.79644 5.59569 7.88812L7.083 9.30863L10.4043 6.13819C10.5004 6.04737 10.6285 5.99829 10.7607 6.00167C10.8929 6.00505 11.0184 6.06062 11.1098 6.15622C11.2011 6.25183 11.2509 6.37971 11.2483 6.51192C11.2456 6.64413 11.1908 6.76992 11.0957 6.86181V6.86188Z" fill="#68C132"/>
</svg>
