<svg width="20" height="20" viewBox="0 0 20 20" fill="none" xmlns="http://www.w3.org/2000/svg">
<rect x="0.5" y="0.5" width="19" height="19" rx="5.5" fill="#007FC0"/>
<rect x="0.5" y="0.5" width="19" height="19" rx="5.5" stroke="#007FC0"/>
<rect width="14" height="14" transform="translate(3 3)" fill="white" fill-opacity="0.01"/>
<path d="M8.68727 13.7186C8.60107 13.7187 8.51569 13.7018 8.43605 13.6688C8.3564 13.6358 8.28407 13.5874 8.22319 13.5264L5.16069 10.4642C5.03817 10.341 4.9695 10.1742 4.96973 10.0005C4.96996 9.82675 5.03908 9.66019 5.16192 9.53734C5.28477 9.41448 5.45133 9.34535 5.62507 9.34511C5.7988 9.34487 5.96555 9.41354 6.08874 9.53605L8.68727 12.1343L14.3482 6.4736C14.4716 6.35219 14.638 6.28446 14.8111 6.28516C14.9842 6.28587 15.1501 6.35495 15.2725 6.47737C15.3949 6.59978 15.464 6.76561 15.4647 6.93873C15.4654 7.11186 15.3977 7.27824 15.2762 7.40165L9.15124 13.5264C9.09037 13.5874 9.01805 13.6358 8.93843 13.6688C8.8588 13.7018 8.77345 13.7187 8.68727 13.7186Z" fill="white"/>
</svg>
