<svg width="16" height="16" viewBox="0 0 16 16" fill="none" xmlns="http://www.w3.org/2000/svg">
<rect width="16" height="16" fill="white" fill-opacity="0.01"/>
<path d="M11.9749 10.5251C12.0214 10.5716 12.0582 10.6267 12.0833 10.6873C12.1085 10.748 12.1214 10.813 12.1214 10.8787C12.1214 10.9444 12.1085 11.0094 12.0833 11.07C12.0582 11.1307 12.0214 11.1858 11.9749 11.2323L9.85388 13.3533C9.84212 13.3651 9.82977 13.3762 9.81688 13.3868C9.81163 13.3911 9.80613 13.3947 9.80076 13.3988C9.79307 13.4046 9.78551 13.4106 9.77757 13.4159C9.77082 13.4204 9.76382 13.4243 9.75694 13.4284C9.74988 13.4327 9.74294 13.4371 9.73563 13.441C9.72844 13.4448 9.72101 13.4481 9.71369 13.4516C9.70619 13.4551 9.69894 13.4588 9.69132 13.4619C9.68413 13.4649 9.67682 13.4673 9.66957 13.4699C9.66144 13.4728 9.65344 13.4759 9.64513 13.4784C9.63782 13.4807 9.63038 13.4823 9.62301 13.4841C9.61463 13.4862 9.60632 13.4886 9.59776 13.4903C9.58901 13.4921 9.58026 13.4931 9.57151 13.4943C9.56413 13.4954 9.55688 13.4968 9.54938 13.4975C9.51659 13.5007 9.48355 13.5007 9.45076 13.4975C9.44326 13.4968 9.43601 13.4954 9.42863 13.4943C9.41988 13.4931 9.41113 13.4921 9.40238 13.4903C9.39382 13.4886 9.38551 13.4862 9.37713 13.4841C9.36976 13.4823 9.36238 13.4807 9.35501 13.4785C9.34669 13.476 9.33876 13.4729 9.33063 13.4699C9.32332 13.4673 9.31601 13.4649 9.30882 13.4619C9.30119 13.4588 9.29388 13.4551 9.28651 13.4516C9.27913 13.4481 9.27176 13.4448 9.26451 13.441C9.25726 13.4371 9.25032 13.4327 9.24326 13.4284C9.23638 13.4242 9.22932 13.4204 9.22263 13.4159C9.21463 13.4106 9.20707 13.4046 9.19944 13.3988C9.19407 13.3947 9.18851 13.3911 9.18332 13.3868C9.17043 13.3762 9.15808 13.3651 9.14632 13.3533L7.02526 11.2323C6.97836 11.1859 6.94109 11.1308 6.91559 11.07C6.89008 11.0092 6.87685 10.944 6.87664 10.8781C6.87644 10.8122 6.88927 10.7469 6.9144 10.6859C6.93953 10.625 6.97646 10.5696 7.02307 10.523C7.06968 10.4764 7.12504 10.4395 7.18598 10.4143C7.24692 10.3892 7.31222 10.3763 7.37814 10.3765C7.44405 10.3767 7.50928 10.39 7.57006 10.4155C7.63085 10.441 7.68599 10.4782 7.73232 10.5251L9.00007 11.7929V8C9.00007 7.86739 9.05275 7.74021 9.14651 7.64645C9.24028 7.55268 9.36746 7.5 9.50007 7.5C9.63268 7.5 9.75985 7.55268 9.85362 7.64645C9.94739 7.74021 10.0001 7.86739 10.0001 8V11.7929L11.2678 10.5251C11.3142 10.4787 11.3694 10.4419 11.43 10.4167C11.4907 10.3916 11.5557 10.3787 11.6214 10.3787C11.687 10.3787 11.7521 10.3916 11.8127 10.4167C11.8734 10.4419 11.9285 10.4787 11.9749 10.5251ZM10.0001 2.5C8.97858 2.50087 7.97747 2.78589 7.1087 3.32318C6.23993 3.86047 5.53775 4.62884 5.08069 5.54238C4.5367 5.46256 3.98209 5.49574 3.4515 5.63986C2.9209 5.78399 2.42572 6.03595 1.99686 6.38001C1.56801 6.72408 1.21469 7.15287 0.958968 7.6396C0.703247 8.12633 0.550617 8.66055 0.510606 9.20892C0.470595 9.75728 0.544063 10.308 0.726423 10.8267C0.908783 11.3454 1.19612 11.8209 1.57049 12.2236C1.94486 12.6263 2.39823 12.9474 2.90228 13.1671C3.40633 13.3867 3.95025 13.5 4.50007 13.5H6.00007C6.13268 13.5 6.25985 13.4473 6.35362 13.3536C6.44739 13.2598 6.50007 13.1326 6.50007 13C6.50007 12.8674 6.44739 12.7402 6.35362 12.6464C6.25985 12.5527 6.13268 12.5 6.00007 12.5H4.50007C3.70442 12.5 2.94136 12.1839 2.37875 11.6213C1.81614 11.0587 1.50007 10.2956 1.50007 9.5C1.50007 8.70435 1.81614 7.94129 2.37875 7.37868C2.94136 6.81607 3.70442 6.5 4.50007 6.5C4.56894 6.5 4.63757 6.50281 4.70594 6.5075C4.56901 6.99317 4.49973 7.4954 4.50007 8C4.50007 8.13261 4.55275 8.25979 4.64651 8.35355C4.74028 8.44732 4.86746 8.5 5.00007 8.5C5.13268 8.5 5.25985 8.44732 5.35362 8.35355C5.44739 8.25979 5.50007 8.13261 5.50007 8C5.50015 7.28701 5.66964 6.58425 5.99459 5.94962C6.31953 5.31498 6.79063 4.76664 7.36905 4.34978C7.94747 3.93292 8.61667 3.65947 9.32151 3.55195C10.0263 3.44444 10.7466 3.50595 11.423 3.73141C12.0994 3.95686 12.7126 4.33982 13.212 4.84871C13.7113 5.35761 14.0826 5.97788 14.2953 6.65842C14.5079 7.33896 14.5558 8.06028 14.435 8.76296C14.3142 9.46564 14.0282 10.1296 13.6004 10.7C13.5605 10.7525 13.5312 10.8123 13.5145 10.8761C13.4977 10.9399 13.4938 11.0064 13.5028 11.0717C13.5119 11.137 13.5337 11.1999 13.5672 11.2568C13.6007 11.3136 13.645 11.3633 13.6978 11.4029C13.7505 11.4425 13.8105 11.4713 13.8745 11.4876C13.9384 11.5039 14.0049 11.5074 14.0701 11.4979C14.1354 11.4884 14.1981 11.4661 14.2548 11.4322C14.3114 11.3984 14.3607 11.3536 14.3999 11.3006C15.0128 10.4835 15.386 9.51179 15.4778 8.49446C15.5696 7.47714 15.3762 6.45436 14.9194 5.54073C14.4627 4.62709 13.7605 3.8587 12.8916 3.32164C12.0228 2.78458 11.0215 2.50008 10.0001 2.5Z" fill="#007FC0"/>
</svg>
