<svg width="16" height="16" viewBox="0 0 16 16" fill="none" xmlns="http://www.w3.org/2000/svg">
<rect width="16" height="16" fill="white" fill-opacity="0.01"/>
<path d="M11.5 5.6V5.25C11.5 3.68125 9.1375 2.5 6 2.5C2.8625 2.5 0.5 3.68125 0.5 5.25V7.75C0.5 9.05625 2.1375 10.0938 4.5 10.4062V10.75C4.5 12.3188 6.8625 13.5 10 13.5C13.1375 13.5 15.5 12.3188 15.5 10.75V8.25C15.5 6.95625 13.9125 5.91875 11.5 5.6ZM14.5 8.25C14.5 9.075 12.575 10 10 10C9.76875 10 9.5375 9.99375 9.30625 9.975C10.6562 9.4875 11.5 8.6875 11.5 7.75V6.60625C13.3687 6.8875 14.5 7.64375 14.5 8.25ZM4.5 9.3875V7.90625C4.99742 7.97017 5.49849 8.00149 6 8C6.50151 8.00149 7.00258 7.97017 7.5 7.90625V9.3875C7.00379 9.46482 6.5022 9.50244 6 9.5C5.4978 9.50244 4.99621 9.46482 4.5 9.3875ZM10.5 6.86875V7.75C10.5 8.275 9.725 8.8375 8.5 9.18125V7.71875C9.30625 7.525 9.9875 7.23125 10.5 6.86875ZM6 3.5C8.575 3.5 10.5 4.425 10.5 5.25C10.5 6.075 8.575 7 6 7C3.425 7 1.5 6.075 1.5 5.25C1.5 4.425 3.425 3.5 6 3.5ZM1.5 7.75V6.86875C2.0125 7.23125 2.69375 7.525 3.5 7.71875V9.18125C2.275 8.8375 1.5 8.275 1.5 7.75ZM5.5 10.75V10.4875L6 10.5C6.24583 10.5 6.48333 10.4937 6.7125 10.4812C6.9625 10.5687 7.225 10.6437 7.5 10.7125V12.1812C6.275 11.8375 5.5 11.275 5.5 10.75ZM8.5 12.3875V10.9C8.99736 10.9652 9.49838 10.9987 10 11C10.5015 11.0015 11.0026 10.9702 11.5 10.9062V12.3875C10.5056 12.5375 9.49438 12.5375 8.5 12.3875ZM12.5 12.1812V10.7188C13.3062 10.525 13.9875 10.2312 14.5 9.86875V10.75C14.5 11.275 13.725 11.8375 12.5 12.1812Z" fill="#808080"/>
</svg>
