<svg viewBox="0 0 32 32" color="red" fill="none" xmlns="http://www.w3.org/2000/svg">
    <path
        d="M16 9C14.6155 9 13.2621 9.41055 12.111 10.1797C10.9598 10.9489 10.0626 12.0421 9.53282 13.3212C9.00301 14.6003 8.86439 16.0078 9.13448 17.3656C9.40458 18.7235 10.0713 19.9708 11.0502 20.9498C12.0292 21.9287 13.2765 22.5954 14.6343 22.8655C15.9922 23.1356 17.3997 22.997 18.6788 22.4672C19.9578 21.9373 21.0511 21.0401 21.8203 19.889C22.5894 18.7379 23 17.3845 23 16C22.9979 14.1441 22.2597 12.3649 20.9474 11.0526C19.6351 9.7403 17.8558 9.00212 16 9ZM16 21C15.0111 21 14.0444 20.7068 13.2221 20.1574C12.3999 19.6079 11.759 18.8271 11.3806 17.9134C11.0021 16.9998 10.9031 15.9945 11.0961 15.0246C11.289 14.0546 11.7652 13.1637 12.4644 12.4645C13.1637 11.7652 14.0546 11.289 15.0245 11.0961C15.9944 10.9032 16.9998 11.0022 17.9134 11.3806C18.827 11.759 19.6079 12.3999 20.1573 13.2222C20.7067 14.0444 21 15.0111 21 16C20.9985 17.3256 20.4712 18.5965 19.5339 19.5339C18.5965 20.4713 17.3256 20.9985 16 21ZM29.0499 18.3999L27.4954 16.3274C27.5014 16.1092 27.5014 15.8908 27.4954 15.6726L29.0492 13.6001C29.2392 13.3466 29.3664 13.0515 29.4203 12.7393C29.4742 12.427 29.4533 12.1065 29.3592 11.8039C29.1125 11.0169 28.7966 10.2533 28.4151 9.52213C28.2677 9.24117 28.0557 8.99922 27.7966 8.81618C27.5374 8.63313 27.2385 8.51423 26.9245 8.46925L24.3599 8.103C24.2849 8.02367 24.2089 7.94546 24.1319 7.86838C24.0549 7.79146 23.9766 7.71538 23.897 7.64013L23.5304 5.07575C23.4854 4.76209 23.3667 4.46356 23.1839 4.20468C23.0012 3.9458 22.7597 3.73394 22.4792 3.5865C21.7483 3.20443 20.985 2.8879 20.1982 2.64063C19.8954 2.54622 19.5745 2.52504 19.2619 2.57883C18.9492 2.63261 18.6539 2.75982 18.4 2.95L16.3274 4.5045C16.1092 4.4984 15.891 4.4984 15.6729 4.5045L13.6 2.9505C13.3464 2.76058 13.0513 2.63348 12.7391 2.57963C12.4269 2.52579 12.1063 2.54674 11.8037 2.64075C11.0168 2.88744 10.2533 3.20339 9.5221 3.58488C9.24112 3.73225 8.99915 3.94423 8.81608 4.20337C8.63302 4.46252 8.5141 4.76143 8.4691 5.0755L8.10285 7.64013C8.02335 7.7153 7.94515 7.79134 7.86823 7.86825C7.79123 7.94517 7.71515 8.02342 7.63998 8.103L5.0756 8.46963C4.76194 8.51461 4.46342 8.63333 4.20454 8.81605C3.94566 8.99877 3.7338 9.24028 3.58635 9.52075C3.20433 10.2516 2.8878 11.0149 2.64048 11.8016C2.54604 12.1045 2.52485 12.4255 2.57866 12.7382C2.63246 13.0509 2.75972 13.3463 2.94998 13.6003L4.50448 15.6728C4.49838 15.8909 4.49838 16.1092 4.50448 16.3274L2.9506 18.3999C2.76058 18.6534 2.6334 18.9485 2.57951 19.2607C2.52562 19.573 2.54656 19.8935 2.6406 20.1961C2.88733 20.9831 3.20327 21.7467 3.58473 22.4779C3.73212 22.7588 3.9441 23.0008 4.20324 23.1838C4.46239 23.3669 4.76129 23.4858 5.07535 23.5308L7.63998 23.897C7.71498 23.9763 7.79098 24.0545 7.86798 24.1316C7.9449 24.2085 8.02319 24.2846 8.10285 24.3599L8.46948 26.9243C8.51445 27.2379 8.63317 27.5364 8.81589 27.7953C8.99861 28.0542 9.24012 28.2661 9.5206 28.4135C10.2515 28.7956 11.0148 29.1121 11.8016 29.3594C11.9942 29.4198 12.195 29.4505 12.3969 29.4505C12.8306 29.4505 13.2528 29.3099 13.6 29.0499L15.6726 27.4954C15.8911 27.5016 16.1087 27.5016 16.3271 27.4954L18.3997 29.0495C18.6533 29.2395 18.9484 29.3666 19.2606 29.4204C19.5728 29.4743 19.8934 29.4533 20.196 29.3593C20.9829 29.1126 21.7464 28.7966 22.4776 28.4151C22.7586 28.2678 23.0005 28.0558 23.1836 27.7967C23.3667 27.5376 23.4856 27.2387 23.5306 26.9246L23.8969 24.3599C23.9764 24.2847 24.0546 24.2087 24.1315 24.1318C24.2085 24.0548 24.2846 23.9766 24.3597 23.897L26.9241 23.5304C27.2378 23.4854 27.5363 23.3667 27.7951 23.184C28.054 23.0013 28.2659 22.7598 28.4134 22.4794C28.7954 21.7485 29.1119 20.9852 29.3592 20.1984C29.4537 19.8955 29.4748 19.5745 29.421 19.2619C29.3672 18.9492 29.24 18.6538 29.0497 18.3999H29.0499ZM26.6411 21.5505L23.7226 21.9679C23.4881 22.0015 23.273 22.1172 23.1159 22.2945C22.8588 22.5846 22.5844 22.859 22.2944 23.1161C22.117 23.2733 22.0013 23.4883 21.9677 23.7229L21.5521 26.6423C20.9266 26.9688 20.2732 27.2388 19.5996 27.4491L17.2409 25.6806C17.0514 25.5383 16.8174 25.4681 16.5809 25.4826C16.1939 25.5057 15.8059 25.5057 15.419 25.4826C15.1824 25.4681 14.9484 25.5383 14.759 25.6808L12.4007 27.4513C11.7275 27.2399 11.0745 26.9688 10.4495 26.6413L10.0321 23.7228C9.99855 23.4883 9.88284 23.2733 9.7056 23.1161C9.4156 22.8589 9.14123 22.5845 8.88398 22.2945C8.72678 22.1172 8.51171 22.0014 8.2771 21.9679L5.35773 21.5523C5.03117 20.9267 4.76114 20.2733 4.55085 19.5998L6.31935 17.241C6.4615 17.0514 6.53172 16.8175 6.51748 16.581C6.49422 16.1941 6.49422 15.8061 6.51748 15.4191C6.53166 15.1826 6.4614 14.9487 6.31923 14.7591L4.54873 12.4006C4.76008 11.7274 5.03116 11.0744 5.35873 10.4494L8.27723 10.032C8.51179 9.99845 8.72681 9.8827 8.88398 9.70538C9.14125 9.41539 9.41561 9.14102 9.7056 8.88375C9.88289 8.72658 9.99859 8.51155 10.0321 8.277L10.4477 5.35763C11.0732 5.03106 11.7267 4.76103 12.4002 4.55075L14.759 6.31925C14.9485 6.46142 15.1825 6.53159 15.419 6.51725C15.8059 6.49419 16.1939 6.49419 16.5809 6.51725C16.8174 6.53156 17.0513 6.46134 17.2409 6.31913L19.5991 4.54875C20.2724 4.76009 20.9254 5.03117 21.5504 5.35875L21.9677 8.27725C22.0013 8.51177 22.1171 8.72674 22.2944 8.88388C22.4393 9.01244 22.5803 9.14529 22.7174 9.28225C22.8544 9.41936 22.9872 9.5605 23.1159 9.7055C23.2731 9.88285 23.4881 9.99861 23.7227 10.0321L26.6421 10.4478C26.9687 11.0733 27.2387 11.7267 27.449 12.4003L25.6805 14.759C25.5383 14.9486 25.4681 15.1825 25.4824 15.419C25.5056 15.8059 25.5056 16.1939 25.4824 16.5808C25.4681 16.8173 25.5384 17.0513 25.6806 17.2409L27.451 19.5991C27.2396 20.2724 26.9685 20.9254 26.641 21.5504L26.6411 21.5505Z"
        fill="black" />
</svg>