<svg width="38" height="38" viewBox="0 0 38 38" fill="none" xmlns="http://www.w3.org/2000/svg">
<rect width="38" height="38" rx="19" fill="#F8F8F8"/>
<rect x="11" y="11" width="16" height="16" rx="2" fill="white" fill-opacity="0.01"/>
<path d="M22.5 16.6V16.25C22.5 14.6812 20.1375 13.5 17 13.5C13.8625 13.5 11.5 14.6812 11.5 16.25V18.75C11.5 20.0562 13.1375 21.0938 15.5 21.4062V21.75C15.5 23.3188 17.8625 24.5 21 24.5C24.1375 24.5 26.5 23.3188 26.5 21.75V19.25C26.5 17.9562 24.9125 16.9187 22.5 16.6ZM25.5 19.25C25.5 20.075 23.575 21 21 21C20.7687 21 20.5375 20.9938 20.3062 20.975C21.6562 20.4875 22.5 19.6875 22.5 18.75V17.6062C24.3687 17.8875 25.5 18.6438 25.5 19.25ZM15.5 20.3875V18.9062C15.9974 18.9702 16.4985 19.0015 17 19C17.5015 19.0015 18.0026 18.9702 18.5 18.9062V20.3875C18.0038 20.4648 17.5022 20.5024 17 20.5C16.4978 20.5024 15.9962 20.4648 15.5 20.3875V20.3875ZM21.5 17.8688V18.75C21.5 19.275 20.725 19.8375 19.5 20.1812V18.7188C20.3062 18.525 20.9875 18.2313 21.5 17.8688V17.8688ZM17 14.5C19.575 14.5 21.5 15.425 21.5 16.25C21.5 17.075 19.575 18 17 18C14.425 18 12.5 17.075 12.5 16.25C12.5 15.425 14.425 14.5 17 14.5ZM12.5 18.75V17.8688C13.0125 18.2313 13.6938 18.525 14.5 18.7188V20.1812C13.275 19.8375 12.5 19.275 12.5 18.75ZM16.5 21.75V21.4875L17 21.5C17.2458 21.5 17.4833 21.4937 17.7125 21.4812C17.9625 21.5687 18.225 21.6437 18.5 21.7125V23.1812C17.275 22.8375 16.5 22.275 16.5 21.75V21.75ZM19.5 23.3875V21.9C19.9974 21.9652 20.4984 21.9987 21 22C21.5015 22.0015 22.0026 21.9702 22.5 21.9062V23.3875C21.5056 23.5375 20.4944 23.5375 19.5 23.3875V23.3875ZM23.5 23.1812V21.7188C24.3062 21.525 24.9875 21.2312 25.5 20.8687V21.75C25.5 22.275 24.725 22.8375 23.5 23.1812V23.1812Z" fill="#808080"/>
</svg>
