<svg viewBox="0 0 12 12" fill="none" xmlns="http://www.w3.org/2000/svg">
<rect width="12" height="12" fill="white" fill-opacity="0.01"/>
<path d="M9.64018 9.10984C9.71051 9.18017 9.75002 9.27555 9.75002 9.37501C9.75002 9.47447 9.71051 9.56985 9.64018 9.64018C9.56985 9.71051 9.47447 9.75002 9.37501 9.75002C9.27555 9.75002 9.18017 9.71051 9.10984 9.64018L6.00001 6.53031L2.89018 9.64018C2.81985 9.71051 2.72447 9.75002 2.62501 9.75002C2.52555 9.75002 2.43017 9.71051 2.35984 9.64018C2.28951 9.56985 2.25 9.47447 2.25 9.37501C2.25 9.27555 2.28951 9.18017 2.35984 9.10984L5.46971 6.00001L2.35984 2.89018C2.28951 2.81985 2.25 2.72447 2.25 2.62501C2.25 2.52555 2.28951 2.43017 2.35984 2.35984C2.43017 2.28951 2.52555 2.25 2.62501 2.25C2.72447 2.25 2.81985 2.28951 2.89018 2.35984L6.00001 5.46971L9.10984 2.35984C9.18017 2.28951 9.27555 2.25 9.37501 2.25C9.47447 2.25 9.56985 2.28951 9.64018 2.35984C9.71051 2.43017 9.75002 2.52555 9.75002 2.62501C9.75002 2.72447 9.71051 2.81985 9.64018 2.89018L6.53031 6.00001L9.64018 9.10984Z" fill="#A5A5A5"/>
</svg>
