<svg width="27" height="27" viewBox="0 0 27 27" fill="none" xmlns="http://www.w3.org/2000/svg">
<path fill-rule="evenodd" clip-rule="evenodd" d="M12.9814 12.6336C12.9814 11.6041 12.1476 10.7702 11.1181 10.7702H2.73298C1.70348 10.7702 0.869629 11.6041 0.869629 12.6336C0.869629 15.1742 0.869629 22.2047 0.869629 24.7454C0.869629 25.7749 1.70348 26.6087 2.73298 26.6087H11.1181C12.1476 26.6087 12.9814 25.7749 12.9814 24.7454V12.6336Z" fill="#007FC0"/>
<path fill-rule="evenodd" clip-rule="evenodd" d="M14.8447 14.4969C14.8447 15.5264 15.6786 16.3602 16.7081 16.3602H25.0932C26.1227 16.3602 26.9565 15.5264 26.9565 14.4969C26.9565 11.9562 26.9565 4.92577 26.9565 2.38508C26.9565 1.35558 26.1227 0.521729 25.0932 0.521729H16.7081C15.6786 0.521729 14.8447 1.35558 14.8447 2.38508V14.4969Z" fill="#007FC0"/>
<path fill-rule="evenodd" clip-rule="evenodd" d="M12.9814 2.38508C12.9814 1.35558 12.1476 0.521729 11.1181 0.521729H2.73298C1.70348 0.521729 0.869629 1.35558 0.869629 2.38508C0.869629 3.62514 0.869629 5.80341 0.869629 7.04347C0.869629 8.07297 1.70348 8.90682 2.73298 8.90682H11.1181C12.1476 8.90682 12.9814 8.07297 12.9814 7.04347V2.38508Z" fill="#007FC0"/>
<path fill-rule="evenodd" clip-rule="evenodd" d="M14.8447 24.7454C14.8447 25.7749 15.6786 26.6087 16.7081 26.6087H25.0932C26.1227 26.6087 26.9565 25.7749 26.9565 24.7454C26.9565 23.5053 26.9565 21.327 26.9565 20.087C26.9565 19.0575 26.1227 18.2236 25.0932 18.2236H16.7081C15.6786 18.2236 14.8447 19.0575 14.8447 20.087V24.7454Z" fill="#007FC0"/>
</svg>
