<svg width="16" height="16" viewBox="0 0 16 16" fill="none" xmlns="http://www.w3.org/2000/svg">
<rect width="16" height="16" fill="white" fill-opacity="0.01"/>
<path d="M13.5 3H11.0002V2.5C10.9998 2.10231 10.8416 1.72104 10.5604 1.43983C10.2792 1.15863 9.89794 1.00045 9.50025 1H6.50025C6.10256 1.00045 5.72129 1.15863 5.44008 1.43983C5.15888 1.72104 5.0007 2.10231 5.00025 2.5V3H2.5C2.36739 3 2.24021 3.05268 2.14645 3.14645C2.05268 3.24021 2 3.36739 2 3.5C2 3.63261 2.05268 3.75979 2.14645 3.85355C2.24021 3.94732 2.36739 4 2.5 4H3V13C3.0003 13.2651 3.10575 13.5193 3.29322 13.7068C3.48069 13.8942 3.73487 13.9997 4 14H12C12.2651 13.9997 12.5193 13.8942 12.7068 13.7068C12.8942 13.5193 12.9997 13.2651 13 13V4H13.5C13.6326 4 13.7598 3.94732 13.8536 3.85355C13.9473 3.75979 14 3.63261 14 3.5C14 3.36739 13.9473 3.24021 13.8536 3.14645C13.7598 3.05268 13.6326 3 13.5 3ZM6.00025 2.5C6.00042 2.36744 6.05315 2.24036 6.14688 2.14663C6.24061 2.0529 6.36769 2.00017 6.50025 2H9.50025C9.63281 2.00017 9.75989 2.0529 9.85362 2.14663C9.94735 2.24036 10.0001 2.36744 10.0002 2.5V3H6.00025V2.5ZM12 13H4V4H12V13ZM7.00025 6.5V10.5C7.00025 10.6326 6.94757 10.7598 6.8538 10.8536C6.76004 10.9473 6.63286 11 6.50025 11C6.36764 11 6.24046 10.9473 6.1467 10.8536C6.05293 10.7598 6.00025 10.6326 6.00025 10.5V6.5C6.00025 6.36739 6.05293 6.24021 6.1467 6.14645C6.24046 6.05268 6.36764 6 6.50025 6C6.63286 6 6.76004 6.05268 6.8538 6.14645C6.94757 6.24021 7.00025 6.36739 7.00025 6.5ZM10.0002 6.5V10.5C10.0002 10.6326 9.94757 10.7598 9.8538 10.8536C9.76004 10.9473 9.63286 11 9.50025 11C9.36764 11 9.24046 10.9473 9.1467 10.8536C9.05293 10.7598 9.00025 10.6326 9.00025 10.5V6.5C9.00025 6.36739 9.05293 6.24021 9.1467 6.14645C9.24046 6.05268 9.36764 6 9.50025 6C9.63286 6 9.76004 6.05268 9.8538 6.14645C9.94757 6.24021 10.0002 6.36739 10.0002 6.5Z" fill="#4C4C4C"/>
</svg>
