<svg width="16" height="16" viewBox="0 0 16 16" fill="currentColor" xmlns="http://www.w3.org/2000/svg">
<path d="M5.22139 8.01797C5.22139 7.6866 5.49002 7.41797 5.82139 7.41797H10.1785C10.5099 7.41797 10.7785 7.6866 10.7785 8.01797C10.7785 8.34934 10.5099 8.61797 10.1785 8.61797H5.82139C5.49002 8.61797 5.22139 8.34934 5.22139 8.01797Z" fill="currentColor"/>
<path d="M5.82139 3.97153C5.49002 3.97153 5.22139 4.24016 5.22139 4.57153C5.22139 4.9029 5.49002 5.17153 5.82139 5.17153H8.4507C8.78207 5.17153 9.0507 4.9029 9.0507 4.57153C9.0507 4.24016 8.78207 3.97153 8.4507 3.97153H5.82139Z" fill="currentColor"/>
<path d="M5.82139 10.7394C5.49002 10.7394 5.22139 11.008 5.22139 11.3394C5.22139 11.6707 5.49002 11.9394 5.82139 11.9394H10.165C10.4964 11.9394 10.765 11.6707 10.765 11.3394C10.765 11.008 10.4964 10.7394 10.165 10.7394H5.82139Z" fill="currentColor"/>
<path fill-rule="evenodd" clip-rule="evenodd" d="M3.2873 0.722086C4.80814 0.604952 6.20684 0.542969 7.99997 0.542969C8.59582 0.542969 9.14857 0.549811 9.67719 0.563285C10.1206 0.574588 10.5537 0.722409 10.9115 0.993529C12.4395 2.15134 13.313 3.08456 14.4488 4.65243C14.7036 5.00417 14.8438 5.42415 14.8559 5.85495C14.8756 6.56129 14.8857 7.27683 14.8857 8.00011C14.8857 9.81654 14.8221 11.5843 14.7018 13.2803C14.626 14.3494 13.7777 15.1961 12.7126 15.2781C11.1918 15.3953 9.79311 15.4573 7.99997 15.4573C6.20684 15.4573 4.80814 15.3953 3.2873 15.2781C2.2222 15.1961 1.37397 14.3494 1.29814 13.2803C1.17785 11.5843 1.11426 9.81654 1.11426 8.00011C1.11426 6.18368 1.17785 4.41593 1.29814 2.71993C1.37397 1.65086 2.2222 0.80412 3.2873 0.722086ZM7.99997 1.74297C6.23917 1.74297 4.87124 1.80365 3.37945 1.91854C2.90365 1.95519 2.52865 2.3323 2.49514 2.80483C2.37688 4.47209 2.31426 6.21151 2.31426 8.00011C2.31426 9.78871 2.37688 11.5281 2.49514 13.1954C2.52865 13.6679 2.90366 14.045 3.37945 14.0817C4.87124 14.1966 6.23916 14.2573 7.99997 14.2573C9.76078 14.2573 11.1287 14.1966 12.6205 14.0817C13.0963 14.045 13.4713 13.6679 13.5048 13.1954C13.6231 11.5281 13.6857 9.78871 13.6857 8.00011C13.6857 7.28797 13.6758 6.5836 13.6563 5.88846C13.651 5.6956 13.5882 5.50993 13.4769 5.35639C12.4015 3.87174 11.6087 3.02741 10.1868 1.94997C10.0334 1.83379 9.84429 1.76793 9.64661 1.7629C9.12906 1.7497 8.58655 1.74297 7.99997 1.74297Z" fill="currentColor"/>
</svg>
