<svg width="8" height="11" viewBox="0 0 8 11" fill="currentColor" xmlns="http://www.w3.org/2000/svg">
<path d="M0.625073 9.75H7.37507C7.51759 9.75004 7.65478 9.80418 7.75892 9.90148C7.86305 9.99878 7.92638 10.132 7.93609 10.2742C7.94581 10.4163 7.90119 10.5569 7.81125 10.6675C7.72131 10.778 7.59276 10.8503 7.45157 10.8698L7.37507 10.875H0.625073C0.482555 10.875 0.345367 10.8208 0.241229 10.7235C0.137091 10.6262 0.0737672 10.493 0.0640532 10.3508C0.0543392 10.2087 0.098959 10.0681 0.188897 9.95753C0.278835 9.84697 0.407385 9.77468 0.548573 9.75525L0.625073 9.75H7.37507H0.625073ZM3.92357 0.75525L4.00007 0.75C4.136 0.750006 4.26733 0.799232 4.36977 0.888575C4.47221 0.977919 4.53884 1.10133 4.55732 1.236L4.56257 1.3125V7.0785L6.25382 5.388C6.3492 5.29265 6.47566 5.23475 6.61016 5.22483C6.74466 5.21492 6.87825 5.25366 6.98657 5.334L7.04957 5.388C7.14492 5.48338 7.20283 5.60984 7.21274 5.74434C7.22265 5.87884 7.18391 6.01242 7.10357 6.12075L7.04957 6.18375L4.39757 8.835C4.30233 8.93026 4.17607 8.98818 4.04173 8.99823C3.9074 9.00828 3.77393 8.96978 3.66557 8.88975L3.60257 8.835L0.950573 6.18375C0.849928 6.08338 0.791012 5.94863 0.785671 5.80659C0.78033 5.66456 0.828959 5.52576 0.921782 5.41812C1.0146 5.31047 1.14474 5.24196 1.28602 5.22636C1.4273 5.21075 1.56924 5.24921 1.68332 5.334L1.74632 5.388L3.43757 7.08V1.3125C3.43758 1.17657 3.4868 1.04524 3.57615 0.942802C3.66549 0.840361 3.78891 0.773736 3.92357 0.75525L4.00007 0.75L3.92357 0.75525Z" fill="currentColor"/>
</svg>
