<svg width="12" height="12" viewBox="0 0 12 12" fill="none" xmlns="http://www.w3.org/2000/svg">
<rect width="12" height="12" fill="white" fill-opacity="0.01"/>
<path d="M10.0152 4.76517L6.26519 8.51517C6.23036 8.55 6.18902 8.57762 6.14353 8.59647C6.09803 8.61531 6.04926 8.62501 6.00001 8.62501C5.95077 8.62501 5.902 8.61531 5.8565 8.59647C5.81101 8.57762 5.76966 8.55 5.73484 8.51517L1.98484 4.76517C1.93239 4.71273 1.89668 4.64591 1.88221 4.57316C1.86774 4.50042 1.87516 4.42502 1.90355 4.35649C1.93193 4.28797 1.98 4.2294 2.04167 4.18819C2.10334 4.14699 2.17584 4.125 2.25001 4.125H9.75001C9.82418 4.125 9.89669 4.14699 9.95836 4.18819C10.02 4.2294 10.0681 4.28797 10.0965 4.35649C10.1249 4.42502 10.1323 4.50042 10.1178 4.57316C10.1034 4.64591 10.0676 4.71273 10.0152 4.76517Z" fill="#808080"/>
</svg>
