<svg width="20" height="20" viewBox="0 0 20 20" fill="none" xmlns="http://www.w3.org/2000/svg">
<path d="M10 0.0117188C4.47699 0.0117188 0 4.48371 0 9.99972C0 15.517 4.47699 19.9894 10 19.9894C15.5226 19.9894 20 15.517 20 9.99972C20 4.48371 15.5226 0.0117188 10 0.0117188ZM8.72033 0.777372C7.81598 1.71737 7.05163 2.79136 6.45366 3.96371C5.65663 3.63473 4.91699 3.19839 4.24899 2.67303C5.51601 1.68005 7.04667 1.00705 8.72033 0.777372ZM3.72899 3.11505C4.46297 3.70773 5.28131 4.1977 6.16533 4.56574C5.46431 6.13106 5.05366 7.85273 5.00899 9.6674H0.683007C0.775327 7.06969 1.93199 4.74705 3.72899 3.11505ZM0.683007 10.3331H5.00866C5.05399 12.172 5.47467 13.9164 6.19301 15.4981C5.335 15.876 4.53967 16.3724 3.82801 16.9704C1.97601 15.3334 0.776994 12.978 0.683007 10.3331ZM4.35399 17.4057C4.99931 16.8777 5.71464 16.4381 6.48533 16.101C7.07833 17.2477 7.83065 18.2994 8.71833 19.2227C7.09069 18.9987 5.6 18.354 4.35399 17.4057ZM9.66667 19.2174C8.63634 18.251 7.76935 17.1144 7.10801 15.8537C7.91565 15.5684 8.77399 15.3973 9.66667 15.353V19.2174ZM9.66667 14.682C8.66833 14.729 7.70902 14.9217 6.80967 15.247C6.12199 13.744 5.72065 12.0834 5.675 10.3327H9.66667V14.682ZM9.66667 9.66704H5.675C5.72 7.93505 6.11435 6.29172 6.78869 4.80106C7.6967 5.10972 8.66203 5.29071 9.66637 5.32306V9.66704H9.66667ZM9.66667 4.65806C8.76533 4.62607 7.89866 4.46672 7.08101 4.19574C7.74536 2.91508 8.62268 1.76139 9.66667 0.782078V4.65806ZM19.317 9.66704H14.991C14.9457 7.85404 14.53 6.13371 13.821 4.57237C14.7107 4.20371 15.5333 3.70937 16.2717 3.11303C18.0687 4.74571 19.2246 7.06969 19.317 9.66704ZM15.7493 2.67303C15.0767 3.20205 14.332 3.64172 13.529 3.97205C12.9174 2.79005 12.1343 1.70969 11.207 0.767699C12.9087 0.987372 14.464 1.66639 15.7493 2.67303ZM10.3333 0.846719C11.3676 1.81005 12.2376 2.94339 12.8996 4.20172C12.0876 4.46871 11.2276 4.62603 10.3333 4.65806V0.846719ZM10.3333 5.32339C11.333 5.29071 12.2933 5.11172 13.197 4.80603C13.88 6.2927 14.279 7.93636 14.3247 9.66737H10.3333V5.32339ZM10.3333 10.3331H14.325C14.2797 12.0554 13.8837 13.6907 13.207 15.1724C12.2997 14.8687 11.336 14.6937 10.3333 14.671V10.3331ZM10.3333 19.1534V15.342C11.231 15.3631 12.0946 15.5147 12.9103 15.7787C12.247 17.0451 11.3727 18.1847 10.3333 19.1534ZM11.2057 19.2331C12.139 18.2854 12.9267 17.1964 13.5403 16.0054C14.3463 16.334 15.093 16.777 15.7683 17.3114C14.4787 18.3267 12.9163 19.012 11.2057 19.2331ZM16.29 16.8717C15.5493 16.2694 14.725 15.7697 13.8324 15.4017C14.5347 13.8471 14.946 12.1357 14.9913 10.3327H19.317C19.225 12.9234 18.0767 15.2404 16.29 16.8717Z" fill="#007FC0"/>
</svg>
