<svg width="16" height="16" viewBox="0 0 16 16" fill="none" xmlns="http://www.w3.org/2000/svg">
<rect width="16" height="16" fill="white" fill-opacity="0.01"/>
<path d="M14.4994 3.48813C14.4992 3.47883 14.4987 3.46958 14.498 3.46038C14.4974 3.45288 14.4967 3.44542 14.4958 3.438C14.4927 3.41329 14.4878 3.38884 14.481 3.36488C14.4789 3.35718 14.4766 3.34953 14.4741 3.34194C14.4714 3.33408 14.4686 3.32628 14.4655 3.31856C14.4627 3.31118 14.4597 3.30386 14.4565 3.29662C14.4429 3.26669 14.4265 3.23809 14.4076 3.21119C14.3979 3.19756 14.3876 3.18442 14.3766 3.17181C14.3738 3.16863 14.3714 3.16525 14.3686 3.16213C14.3662 3.1595 14.3636 3.15731 14.3611 3.15475C14.355 3.14844 14.3488 3.14229 14.3424 3.13631C14.3365 3.13076 14.3306 3.12534 14.3245 3.12006C14.3185 3.11495 14.3123 3.10999 14.306 3.10519C14.2993 3.09986 14.2924 3.09471 14.2854 3.08975C14.2792 3.0855 14.2729 3.08156 14.2666 3.07756C14.2593 3.07282 14.2518 3.06828 14.2442 3.06394C14.2375 3.06019 14.2306 3.05681 14.2238 3.05331C14.2163 3.04956 14.2088 3.04581 14.2013 3.0425C14.1938 3.03919 14.186 3.03625 14.1783 3.03331C14.1709 3.0305 14.1637 3.02769 14.1563 3.02525C14.1482 3.02256 14.1398 3.02038 14.1315 3.01806C14.1242 3.01606 14.1169 3.01406 14.1094 3.01244C14.1011 3.01064 14.0928 3.00906 14.0844 3.00769C14.0765 3.00629 14.0687 3.00508 14.0608 3.00406C14.0527 3.00314 14.0447 3.00241 14.0367 3.00187C14.028 3.00121 14.0193 3.00077 14.0106 3.00056C14.007 3.00044 14.0036 3 14 3H2C1.99663 3 1.99344 3.00044 1.99 3.0005C1.9808 3.00071 1.97161 3.00117 1.96244 3.00187C1.95481 3.0025 1.94731 3.00312 1.93981 3.00394C1.93143 3.00501 1.92307 3.0063 1.91475 3.00781C1.90675 3.00919 1.89881 3.0105 1.891 3.01231C1.88313 3.01406 1.87538 3.01619 1.86756 3.01831C1.85969 3.0205 1.85181 3.02262 1.84406 3.02519C1.83625 3.02769 1.82856 3.03069 1.82088 3.03362C1.81356 3.03644 1.80625 3.03919 1.79912 3.04231C1.79112 3.04581 1.78338 3.04975 1.77556 3.05369C1.769 3.057 1.76244 3.06019 1.75606 3.06375C1.74825 3.06813 1.74062 3.07294 1.73294 3.07781C1.72687 3.08169 1.72069 3.0855 1.71481 3.08969C1.70763 3.09463 1.70069 3.09994 1.69375 3.10531C1.68759 3.11006 1.68155 3.11496 1.67562 3.12C1.66945 3.12533 1.66341 3.13081 1.6575 3.13644C1.65113 3.14237 1.645 3.14844 1.63894 3.15469C1.6365 3.15725 1.63381 3.1595 1.63144 3.16219C1.62856 3.16531 1.62619 3.16863 1.62344 3.17175C1.61246 3.18437 1.60209 3.19751 1.59238 3.21112C1.5448 3.27836 1.51453 3.35628 1.50425 3.438C1.50333 3.44542 1.50258 3.45288 1.502 3.46038C1.50129 3.46963 1.50083 3.47885 1.50063 3.48806C1.5005 3.49206 1.5 3.496 1.5 3.5V12C1.5003 12.2651 1.60575 12.5193 1.79322 12.7068C1.98069 12.8942 2.23487 12.9997 2.5 13H13.5C13.7651 12.9997 14.0193 12.8942 14.2068 12.7068C14.3942 12.5193 14.4997 12.2651 14.5 12V3.5C14.5 3.496 14.4995 3.49206 14.4994 3.48813ZM2.5 4.63656L6.16913 8L2.5 11.3634V4.63656ZM8.75887 7.626L8.7585 7.62631L8 8.32169L3.28544 4H12.7146L8.75887 7.626ZM6.90912 8.67825L7.66213 9.3685C7.75435 9.45302 7.8749 9.49991 8 9.49991C8.1251 9.49991 8.24565 9.45302 8.33788 9.3685L9.09094 8.67825L12.7146 12H3.28544L6.90912 8.67825ZM9.83088 8L13.5001 4.63656L13.5006 11.3639L9.83088 8Z" fill="#4C4C4C"/>
</svg>
