<svg viewBox="0 0 101 81" fill="none" xmlns="http://www.w3.org/2000/svg">
<path fill-rule="evenodd" clip-rule="evenodd" d="M10.3782 6.08783C10.3782 4.66265 12.4714 2.33985 13.5902 1.54427C16.5341 -0.514757 20.4523 -0.514757 23.392 1.54427C24.481 2.31855 26.6592 4.67115 26.6039 6.08783H24.0896C23.3494 4.42022 21.903 3.16941 20.1417 2.68444C18.3847 2.1952 16.5 2.52277 15.0069 3.57358C14.1007 4.20746 13.386 5.07532 12.9393 6.08784L10.3782 6.08783ZM6.82596 80.9963H79.4713C82.9598 80.9878 85.7932 78.1587 85.7974 74.666V23.3602H0.500109V74.666C0.504363 78.1587 3.33751 80.9878 6.82596 80.9963ZM49.7382 62.8304H56.6854C57.851 62.8304 58.7997 63.7748 58.7997 64.9405V71.8876C58.7997 73.0575 57.851 74.002 56.6854 74.002H49.7382C48.5725 74.002 47.6238 73.0576 47.6238 71.8876V64.9405C47.6238 63.7748 48.5725 62.8304 49.7382 62.8304ZM30.2751 62.8304H37.235C38.3964 62.8346 39.3366 63.7791 39.3366 64.9405V71.8876C39.3366 73.0533 38.3964 73.9977 37.235 74.002H30.2751C29.1137 73.9977 28.1735 73.0533 28.1735 71.8876V64.9405C28.1735 63.7791 29.1137 62.8346 30.2751 62.8304ZM10.8251 62.8304H17.8276C18.9932 62.8304 19.9419 63.7748 19.9419 64.9405V71.8876C19.9419 73.0575 18.9933 74.002 17.8276 74.002H10.8251C9.65944 74.002 8.71074 73.0576 8.71074 71.8876V64.9405C8.71074 63.7748 9.65943 62.8304 10.8251 62.8304ZM49.7382 45.9364H56.6854C57.2597 45.9364 57.8042 46.1662 58.2041 46.5788C58.5997 46.9872 58.8167 47.5445 58.7997 48.1147V55.0618C58.7997 56.2317 57.851 57.1762 56.6853 57.1762H49.7382C48.5725 57.1762 47.6238 56.2318 47.6238 55.0618V48.1147C47.6068 47.5446 47.8195 46.9872 48.2194 46.5788C48.6193 46.1662 49.1639 45.9364 49.7382 45.9364ZM69.1882 45.9364H76.1481C76.7182 45.9407 77.2627 46.1704 77.6583 46.5831C78.054 46.9915 78.2667 47.5445 78.2497 48.1146V55.0617C78.2497 56.2274 77.3095 57.1719 76.1481 57.1761H69.1881C68.0267 57.1718 67.0865 56.2274 67.0865 55.0617V48.1146C67.0695 47.5445 67.2822 46.9915 67.6779 46.5831C68.0735 46.1704 68.6181 45.9407 69.1882 45.9364ZM30.2751 45.9364H37.235C37.8051 45.9407 38.3496 46.1704 38.7453 46.5831C39.1409 46.9915 39.3536 47.5445 39.3366 48.1146V55.0617C39.3366 56.2274 38.3964 57.1719 37.235 57.1761H30.2751C29.1137 57.1718 28.1735 56.2274 28.1735 55.0617V48.1146C28.1564 47.5445 28.3692 46.9915 28.7648 46.5831C29.1604 46.1704 29.705 45.9407 30.2751 45.9364ZM10.8251 45.9364H17.8276C18.3891 45.9492 18.9252 46.1874 19.3081 46.5959C19.6952 47.0043 19.9037 47.5531 19.8867 48.1146V55.0618C19.8697 56.1977 18.9593 57.1123 17.8276 57.1421H10.8251C9.65949 57.1421 8.71079 56.1977 8.71079 55.032V48.1146C8.69377 47.5445 8.91074 46.9872 9.30639 46.5788C9.70629 46.1661 10.2508 45.9364 10.8251 45.9364ZM49.7382 29.1198H56.6854C57.2469 29.1198 57.7829 29.3368 58.1786 29.7325C58.5742 30.1281 58.7997 30.6641 58.7997 31.2215V38.1814C58.7912 39.347 57.8468 40.283 56.6854 40.283H49.7382C48.5768 40.283 47.6323 39.3471 47.6238 38.1814V31.2215C47.6238 30.6642 47.8493 30.1281 48.2449 29.7325C48.6406 29.3368 49.1766 29.1198 49.7382 29.1198ZM69.1882 29.1198H76.1481C77.3095 29.1198 78.2497 30.0643 78.2497 31.2215V38.1814C78.2412 39.3428 77.3053 40.2787 76.1481 40.283H69.1882C68.031 40.2787 67.0908 39.3428 67.0866 38.1814V31.2215C67.0866 30.0643 68.0268 29.1198 69.1882 29.1198ZM30.2751 29.1198H37.235C38.3964 29.1198 39.3366 30.0643 39.3366 31.2215V38.1814C39.3324 39.3428 38.3922 40.2787 37.235 40.283H30.2751C29.1179 40.2787 28.1777 39.3428 28.1735 38.1814V31.2215C28.1735 30.0643 29.1137 29.1198 30.2751 29.1198ZM10.8251 29.1198H17.8276C18.3849 29.1198 18.9252 29.3368 19.3208 29.7325C19.7165 30.1281 19.942 30.6641 19.942 31.2215V38.1814C19.9335 39.347 18.989 40.283 17.8276 40.283H10.8251C9.6637 40.283 8.71924 39.3471 8.71075 38.1814V31.2215C8.71075 30.6642 8.93622 30.1281 9.33186 29.7325C9.72751 29.3368 10.2635 29.1198 10.8251 29.1198ZM85.7979 20.8879V14.8767C85.7851 11.3882 82.956 8.56333 79.4718 8.55908H61.6979C61.6979 11.9241 64.4206 14.6512 67.7857 14.6597C68.1345 14.6257 68.4791 14.7405 68.7344 14.9745C68.9939 15.2128 69.1428 15.5446 69.1428 15.8934C69.1428 16.2423 68.9939 16.5784 68.7344 16.8124C68.4791 17.0463 68.1345 17.1612 67.7857 17.1314C65.5097 17.1314 63.3315 16.2295 61.7234 14.6214C60.1152 13.0133 59.2133 10.8308 59.2133 8.55911H37.3336C37.3336 11.9285 40.0648 14.6597 43.4342 14.6597C43.7788 14.6257 44.1277 14.7406 44.3829 14.9746C44.6424 15.2128 44.7913 15.5446 44.7913 15.8935C44.7913 16.2423 44.6424 16.5784 44.3829 16.8124C44.1277 17.0464 43.7788 17.1612 43.4342 17.1315C38.7034 17.1187 34.8746 13.2899 34.8619 8.55915H12.382C12.382 11.9286 15.1133 14.6598 18.4827 14.6598C19.1208 14.7193 19.6057 15.2554 19.6057 15.8935C19.6057 16.5359 19.1208 17.0719 18.4827 17.1315C13.7519 17.1187 9.92311 13.2899 9.91037 8.55915H6.82607C3.34186 8.5634 0.512742 11.3883 0.5 14.8767V20.8879L85.7979 20.8879ZM85.5809 80.9957C87.2996 79.3366 88.2696 77.052 88.2696 74.6654V25.0269L100.381 74.6654C101.211 78.0518 97.5395 80.9914 94.0553 80.9914L85.5809 80.9957ZM59.6475 6.08718C59.6475 4.662 61.7407 2.3392 62.9148 1.54362C65.8587 -0.511163 69.7727 -0.511163 72.7166 1.54362C73.8057 2.33916 75.9838 4.65775 75.9838 6.08718H73.3718C72.6358 4.41957 71.1894 3.16875 69.4323 2.68378C67.6753 2.19454 65.7906 2.52212 64.3018 3.57292C63.3913 4.2068 62.6724 5.07467 62.2214 6.08719L59.6475 6.08718ZM35.2542 6.08718C35.2542 4.662 37.4323 2.37318 38.5214 1.54362C41.4653 -0.511163 45.3793 -0.511163 48.3232 1.54362C49.4761 2.3732 51.5905 4.662 51.5905 6.08718H49.0081C48.2679 4.41957 46.8215 3.16875 45.0644 2.68378C43.3032 2.19454 41.4185 2.52212 39.9253 3.57292C39.0191 4.2068 38.3044 5.07467 37.8577 6.08719L35.2542 6.08718Z" fill="#007FC0"/>
</svg>
