<svg width="16" height="16" viewBox="0 0 16 16" fill="none" xmlns="http://www.w3.org/2000/svg">
<rect width="16" height="16" fill="white" fill-opacity="0.01"/>
<path d="M15.4569 7.79737C15.4349 7.748 14.9057 6.57387 13.7286 5.39675C12.1608 3.82881 10.1798 3 8.00001 3C5.8202 3 3.8392 3.82875 2.27145 5.39669C1.09432 6.57387 0.565011 7.74806 0.543074 7.79744C0.514674 7.86137 0.5 7.93054 0.5 8.0005C0.5 8.07045 0.514674 8.13963 0.543074 8.20356C0.565074 8.25294 1.09432 9.42681 2.27151 10.6038C3.83926 12.1714 5.82014 13 8.00001 13C10.1799 13 12.1608 12.1714 13.7285 10.6038C14.9056 9.42681 15.4349 8.253 15.4569 8.20356C15.4853 8.13963 15.5 8.07045 15.5 8.0005C15.5 7.93054 15.4853 7.86137 15.4569 7.79744L15.4569 7.79737ZM8.00001 12.0001C6.07626 12.0001 4.39539 11.3009 3.00407 9.92219C2.43228 9.35474 1.94571 8.70746 1.55951 8.0005C1.94569 7.2934 2.43227 6.64597 3.00407 6.07838C4.39539 4.69925 6.07632 4 8.00001 4C9.9237 4 11.6046 4.69925 12.9959 6.07838C13.5678 6.64595 14.0544 7.29339 14.4406 8.0005C13.9898 8.84112 12.027 11.9999 8.00001 11.9999V12.0001ZM8.00001 5.0005C7.40667 5.0005 6.82665 5.17645 6.3333 5.50609C5.83995 5.83574 5.45544 6.30427 5.22837 6.85245C5.00131 7.40063 4.9419 8.00383 5.05766 8.58577C5.17341 9.16771 5.45913 9.70226 5.87869 10.1218C6.29825 10.5414 6.8328 10.8271 7.41474 10.9429C7.99668 11.0586 8.59988 10.9992 9.14806 10.7721C9.69624 10.5451 10.1648 10.1606 10.4944 9.66721C10.8241 9.17386 11 8.59384 11 8.0005C10.9991 7.20512 10.6828 6.44258 10.1203 5.88017C9.55793 5.31775 8.79539 5.00139 8.00001 5.0005ZM8.00001 10.0005C7.60445 10.0005 7.21777 9.8832 6.88887 9.66344C6.55997 9.44368 6.30363 9.13132 6.15225 8.76587C6.00088 8.40041 5.96127 7.99828 6.03844 7.61032C6.11561 7.22236 6.30609 6.86599 6.5858 6.58629C6.8655 6.30658 7.22187 6.1161 7.60983 6.03893C7.99779 5.96176 8.39993 6.00137 8.76538 6.15274C9.13083 6.30412 9.44319 6.56046 9.66295 6.88936C9.88271 7.21826 10 7.60494 10 8.0005C9.9994 8.53075 9.78849 9.0391 9.41355 9.41404C9.03861 9.78898 8.53026 9.99989 8.00001 10.0005Z" fill="#A5A5A5"/>
</svg>
