<svg viewBox="0 0 16 16" fill="none" xmlns="http://www.w3.org/2000/svg">
<rect width="16" height="16" fill="white" fill-opacity="0.01"/>
<path d="M13.5005 5.5C13.5006 5.43306 13.4871 5.3668 13.461 5.30518C13.4349 5.24355 13.3966 5.18782 13.3484 5.14131L9.8537 1.64656C9.84212 1.63498 9.82999 1.624 9.81732 1.61363C9.81439 1.61119 9.8112 1.60913 9.8082 1.60675C9.79839 1.59894 9.7883 1.5915 9.77795 1.58444C9.7752 1.58256 9.77232 1.58106 9.76957 1.57931C9.75861 1.57216 9.74738 1.56545 9.73589 1.55919C9.73389 1.55813 9.73182 1.55731 9.72982 1.55625C9.71738 1.5497 9.70466 1.54367 9.6917 1.53819C9.69026 1.53756 9.68882 1.53719 9.68739 1.53663C9.67372 1.53103 9.65981 1.52604 9.6457 1.52169L9.64101 1.5205C9.62697 1.51631 9.61274 1.51275 9.59839 1.50981C9.59439 1.509 9.59026 1.50863 9.58626 1.50794C9.57426 1.50588 9.56226 1.50375 9.54995 1.5025C9.53345 1.50083 9.5168 1.5 9.50001 1.5H3.49951C3.23439 1.5003 2.98021 1.60575 2.79273 1.79322C2.60526 1.98069 2.49981 2.23487 2.49951 2.5V13.5C2.49981 13.7651 2.60526 14.0193 2.79273 14.2068C2.98021 14.3942 3.23439 14.4997 3.49951 14.5H12.5C12.7651 14.4997 13.0193 14.3942 13.2068 14.2068C13.3943 14.0193 13.4997 13.7651 13.5 13.5V5.51C13.5001 5.50663 13.5005 5.50338 13.5005 5.5ZM10 3.20712L11.7929 5H10V3.20712ZM12.5 13.5H3.49951V2.5H9.00001V5.5C9.00001 5.63261 9.05269 5.75979 9.14646 5.85355C9.24023 5.94732 9.3674 6 9.50001 6H12.5L12.5006 13.5H12.5ZM10.5 8.5C10.5 8.63261 10.4473 8.75979 10.3536 8.85355C10.2598 8.94732 10.1326 9 10 9H6.00001C5.8674 9 5.74023 8.94732 5.64646 8.85355C5.55269 8.75979 5.50001 8.63261 5.50001 8.5C5.50001 8.36739 5.55269 8.24021 5.64646 8.14645C5.74023 8.05268 5.8674 8 6.00001 8H10C10.1326 8 10.2598 8.05268 10.3536 8.14645C10.4473 8.24021 10.5 8.36739 10.5 8.5ZM10.5 10.5C10.5 10.6326 10.4473 10.7598 10.3536 10.8536C10.2598 10.9473 10.1326 11 10 11H6.00001C5.8674 11 5.74023 10.9473 5.64646 10.8536C5.55269 10.7598 5.50001 10.6326 5.50001 10.5C5.50001 10.3674 5.55269 10.2402 5.64646 10.1464C5.74023 10.0527 5.8674 10 6.00001 10H10C10.1326 10 10.2598 10.0527 10.3536 10.1464C10.4473 10.2402 10.5 10.3674 10.5 10.5Z" fill="#4C4C4C"/>
</svg>
