<svg width="16" height="16" viewBox="0 0 16 16" fill="none" xmlns="http://www.w3.org/2000/svg">
<rect width="16" height="16" fill="white" fill-opacity="0.01"/>
<path d="M13.5 5.5C13.5001 5.43327 13.4867 5.36722 13.4607 5.30575C13.4348 5.24429 13.3967 5.18866 13.3488 5.14219L9.85309 1.64644C9.84809 1.64144 9.84265 1.63706 9.83746 1.63225C9.83071 1.62606 9.82415 1.61969 9.81709 1.61381C9.8124 1.61 9.80734 1.60662 9.80252 1.60294C9.7944 1.59669 9.78627 1.59031 9.77771 1.58456C9.77384 1.582 9.76971 1.57981 9.76584 1.57731C9.7559 1.57106 9.74596 1.56481 9.73559 1.55925C9.73277 1.55775 9.7299 1.55662 9.72709 1.55519C9.71538 1.54906 9.70344 1.54341 9.69127 1.53825C9.6894 1.53744 9.68734 1.53687 9.68546 1.53612C9.67228 1.53075 9.65887 1.52596 9.64527 1.52175C9.64327 1.52112 9.64127 1.52075 9.63927 1.52019C9.62568 1.51614 9.61192 1.51268 9.59802 1.50981C9.59352 1.50894 9.5889 1.50856 9.5844 1.50775C9.57284 1.50575 9.56127 1.50369 9.54946 1.50256C9.53287 1.50087 9.5162 1.50001 9.49952 1.5H3.49902C3.2339 1.5003 2.97972 1.60575 2.79225 1.79322C2.60477 1.98069 2.49932 2.23487 2.49902 2.5V13.5C2.49932 13.7651 2.60477 14.0193 2.79225 14.2068C2.97972 14.3942 3.2339 14.4997 3.49902 14.5H12.4995C12.7646 14.4997 13.0188 14.3942 13.2063 14.2068C13.3938 14.0193 13.4992 13.7651 13.4995 13.5V5.50969C13.4996 5.50644 13.5 5.50325 13.5 5.5ZM9.99952 3.20706L11.7924 5H9.99952V3.20706ZM12.4995 13.5H3.49902V2.5H8.99952V5.5C8.99952 5.63261 9.0522 5.75979 9.14597 5.85355C9.23974 5.94732 9.36691 6 9.49952 6H12.4995L12.5001 13.5H12.4995ZM9.99952 9.5C9.99952 9.63261 9.94685 9.75979 9.85308 9.85355C9.75931 9.94732 9.63213 10 9.49952 10H8.49952V11C8.49952 11.1326 8.44685 11.2598 8.35308 11.3536C8.25931 11.4473 8.13213 11.5 7.99952 11.5C7.86691 11.5 7.73974 11.4473 7.64597 11.3536C7.5522 11.2598 7.49952 11.1326 7.49952 11V10H6.49952C6.36691 10 6.23974 9.94732 6.14597 9.85355C6.0522 9.75979 5.99952 9.63261 5.99952 9.5C5.99952 9.36739 6.0522 9.24021 6.14597 9.14645C6.23974 9.05268 6.36691 9 6.49952 9H7.49952V8C7.49952 7.86739 7.5522 7.74021 7.64597 7.64645C7.73974 7.55268 7.86691 7.5 7.99952 7.5C8.13213 7.5 8.25931 7.55268 8.35308 7.64645C8.44685 7.74021 8.49952 7.86739 8.49952 8V9H9.49952C9.63213 9 9.75931 9.05268 9.85308 9.14645C9.94685 9.24021 9.99952 9.36739 9.99952 9.5Z" fill="#4C4C4C"/>
</svg>
