<svg width="42" height="42" viewBox="0 0 42 42" fill="none" xmlns="http://www.w3.org/2000/svg">
<rect width="42" height="42" rx="21" fill="#F8F8F8"/>
<rect width="20" height="20" transform="translate(11 11)" fill="white" fill-opacity="0.01"/>
<path fill-rule="evenodd" clip-rule="evenodd" d="M13.7929 11.7852C15.545 11.6618 16.8495 11.6399 19.0998 11.7499C19.7999 11.7841 20.408 12.2349 20.6497 12.8878L21.1347 14.1972C21.1702 14.2931 21.2607 14.3574 21.3621 14.3596C21.7714 14.3685 22.1508 14.3761 22.5079 14.3833C24.6092 14.4254 25.9364 14.452 28.0202 14.6489C29.3304 14.7728 30.3586 15.826 30.4495 17.1395C30.7007 20.7703 30.6293 23.6734 30.2909 26.5069C30.0858 28.2245 28.7087 29.5816 26.9915 29.7685C22.9929 30.2039 19.0488 30.2152 15.047 29.7795C13.3387 29.5935 11.8632 28.3153 11.6473 26.5069C11.1361 22.2262 11.3006 17.9548 11.7867 13.7237C11.9051 12.6933 12.7312 11.8599 13.7929 11.7852ZM19.0266 13.2481C16.8316 13.1408 15.5869 13.1626 13.8983 13.2815C13.5839 13.3036 13.316 13.5548 13.2769 13.8949C12.7991 18.0535 12.6438 22.2009 13.1367 26.3291C13.2615 27.3742 14.1225 28.1699 15.2094 28.2883L15.1304 29.0142L15.2094 28.2883C19.1004 28.712 22.9356 28.7013 26.8292 28.2774L26.8292 28.2773C27.8548 28.1657 28.6795 27.3509 28.8015 26.3291C29.1273 23.6007 29.1987 20.7927 28.953 17.243C28.9129 16.6627 28.4588 16.1971 27.8791 16.1423C25.8536 15.9508 24.5821 15.9253 22.4835 15.8831C22.1254 15.876 21.7433 15.8683 21.3293 15.8592C20.6117 15.8435 19.977 15.3905 19.7281 14.7182L19.2431 13.4087C19.2083 13.3148 19.1219 13.2528 19.0266 13.2481Z" fill="#777777"/>
</svg>
