<svg width="20" height="20" viewBox="0 0 20 20" fill="none" xmlns="http://www.w3.org/2000/svg">
<rect width="20" height="20" fill="white" fill-opacity="0.01"/>
<path d="M10 1.875C8.39303 1.875 6.82215 2.35152 5.486 3.24431C4.14985 4.1371 3.10844 5.40605 2.49348 6.8907C1.87852 8.37535 1.71762 10.009 2.03112 11.5851C2.34463 13.1612 3.11846 14.6089 4.25476 15.7452C5.39106 16.8815 6.8388 17.6554 8.4149 17.9689C9.99099 18.2824 11.6247 18.1215 13.1093 17.5065C14.594 16.8916 15.8629 15.8502 16.7557 14.514C17.6485 13.1779 18.125 11.607 18.125 10C18.1225 7.84588 17.2657 5.78069 15.7425 4.2575C14.2193 2.7343 12.1541 1.87748 10 1.875ZM10 5.625C10.1854 5.625 10.3667 5.67998 10.5209 5.783C10.675 5.88601 10.7952 6.03243 10.8661 6.20373C10.9371 6.37504 10.9557 6.56354 10.9195 6.7454C10.8833 6.92725 10.794 7.0943 10.6629 7.22541C10.5318 7.35652 10.3648 7.44581 10.1829 7.48199C10.001 7.51816 9.81254 7.49959 9.64124 7.42864C9.46993 7.35768 9.32351 7.23752 9.2205 7.08335C9.11749 6.92918 9.0625 6.74792 9.0625 6.5625C9.0625 6.31386 9.16128 6.0754 9.33709 5.89959C9.51291 5.72377 9.75136 5.625 10 5.625ZM10.625 14.375H10C9.91791 14.3751 9.83662 14.3589 9.76077 14.3275C9.68491 14.2961 9.61599 14.2501 9.55795 14.1921C9.4999 14.134 9.45387 14.0651 9.42248 13.9892C9.39108 13.9134 9.37495 13.8321 9.375 13.75V10C9.20924 10 9.05027 9.93415 8.93306 9.81694C8.81585 9.69973 8.75 9.54076 8.75 9.375C8.75 9.20924 8.81585 9.05027 8.93306 8.93306C9.05027 8.81585 9.20924 8.75 9.375 8.75H10C10.0821 8.74995 10.1634 8.76608 10.2392 8.79747C10.3151 8.82886 10.384 8.8749 10.4421 8.93294C10.5001 8.99099 10.5461 9.05991 10.5775 9.13576C10.6089 9.21161 10.6251 9.29291 10.625 9.375V13.125C10.7908 13.125 10.9497 13.1908 11.0669 13.3081C11.1842 13.4253 11.25 13.5842 11.25 13.75C11.25 13.9158 11.1842 14.0747 11.0669 14.1919C10.9497 14.3092 10.7908 14.375 10.625 14.375Z" fill="#D87407"/>
</svg>
