<svg width="41" height="40" viewBox="0 0 41 40" fill="none" xmlns="http://www.w3.org/2000/svg">
<rect x="0.75" y="0.5" width="39" height="39" rx="19.5" fill="white"/>
<rect x="0.75" y="0.5" width="39" height="39" rx="19.5" stroke="#F6F6F6"/>
<g clip-path="url(#clip0_357_8428)">
<path d="M20.2533 30C16.0784 30 14.8573 29.9957 14.62 29.976C13.7633 29.9048 13.2301 29.7698 12.6493 29.4806C12.2017 29.2582 11.8487 29.0005 11.5003 28.6393C10.8658 27.9804 10.4813 27.1699 10.342 26.2065C10.2744 25.7387 10.2547 25.6433 10.2507 23.2542C10.2491 22.4578 10.2507 21.4097 10.2507 20.0039C10.2507 15.8313 10.2553 14.6112 10.2753 14.3742C10.3445 13.5403 10.4753 13.0157 10.7521 12.4418C11.2813 11.3432 12.2918 10.5185 13.4824 10.2108C13.8946 10.1046 14.3499 10.0462 14.9344 10.0185C15.1821 10.0077 17.7062 10 20.2319 10C22.7576 10 25.2832 10.0031 25.5247 10.0154C26.2015 10.0473 26.5945 10.1 27.0291 10.2123C28.2273 10.5216 29.2194 11.334 29.7593 12.4479C30.0308 13.008 30.1685 13.5526 30.2308 14.343C30.2443 14.5153 30.25 17.2628 30.25 20.0065C30.25 22.7508 30.2438 25.4932 30.2303 25.6655C30.1672 26.4686 30.0296 27.0087 29.7493 27.5795C29.5194 28.0468 29.264 28.3957 28.8933 28.7525C28.2318 29.3846 27.4227 29.7692 26.4585 29.9083C25.9914 29.9758 25.8983 29.9959 23.508 30H20.2533Z" fill="url(#paint0_radial_357_8428)"/>
<path d="M20.2533 30C16.0784 30 14.8573 29.9957 14.62 29.976C13.7633 29.9048 13.2301 29.7698 12.6493 29.4806C12.2017 29.2582 11.8487 29.0005 11.5003 28.6393C10.8658 27.9804 10.4813 27.1699 10.342 26.2065C10.2744 25.7387 10.2547 25.6433 10.2507 23.2542C10.2491 22.4578 10.2507 21.4097 10.2507 20.0039C10.2507 15.8313 10.2553 14.6112 10.2753 14.3742C10.3445 13.5403 10.4753 13.0157 10.7521 12.4418C11.2813 11.3432 12.2918 10.5185 13.4824 10.2108C13.8946 10.1046 14.3499 10.0462 14.9344 10.0185C15.1821 10.0077 17.7062 10 20.2319 10C22.7576 10 25.2832 10.0031 25.5247 10.0154C26.2015 10.0473 26.5945 10.1 27.0291 10.2123C28.2273 10.5216 29.2194 11.334 29.7593 12.4479C30.0308 13.008 30.1685 13.5526 30.2308 14.343C30.2443 14.5153 30.25 17.2628 30.25 20.0065C30.25 22.7508 30.2438 25.4932 30.2303 25.6655C30.1672 26.4686 30.0296 27.0087 29.7493 27.5795C29.5194 28.0468 29.264 28.3957 28.8933 28.7525C28.2318 29.3846 27.4227 29.7692 26.4585 29.9083C25.9914 29.9758 25.8983 29.9959 23.508 30H20.2533Z" fill="url(#paint1_radial_357_8428)"/>
<path d="M20.2533 30C16.0784 30 14.8573 29.9957 14.62 29.976C13.7633 29.9048 13.2301 29.7698 12.6493 29.4806C12.2017 29.2582 11.8487 29.0005 11.5003 28.6393C10.8658 27.9804 10.4813 27.1699 10.342 26.2065C10.2744 25.7387 10.2547 25.6433 10.2507 23.2542C10.2491 22.4578 10.2507 21.4097 10.2507 20.0039C10.2507 15.8313 10.2553 14.6112 10.2753 14.3742C10.3445 13.5403 10.4753 13.0157 10.7521 12.4418C11.2813 11.3432 12.2918 10.5185 13.4824 10.2108C13.8946 10.1046 14.3499 10.0462 14.9344 10.0185C15.1821 10.0077 17.7062 10 20.2319 10C22.7576 10 25.2832 10.0031 25.5247 10.0154C26.2015 10.0473 26.5945 10.1 27.0291 10.2123C28.2273 10.5216 29.2194 11.334 29.7593 12.4479C30.0308 13.008 30.1685 13.5526 30.2308 14.343C30.2443 14.5153 30.25 17.2628 30.25 20.0065C30.25 22.7508 30.2438 25.4932 30.2303 25.6655C30.1672 26.4686 30.0296 27.0087 29.7493 27.5795C29.5194 28.0468 29.264 28.3957 28.8933 28.7525C28.2318 29.3846 27.4227 29.7692 26.4585 29.9083C25.9914 29.9758 25.8983 29.9959 23.508 30H20.2533Z" fill="url(#paint2_radial_357_8428)"/>
<path d="M20.2533 30C16.0784 30 14.8573 29.9957 14.62 29.976C13.7633 29.9048 13.2301 29.7698 12.6493 29.4806C12.2017 29.2582 11.8487 29.0005 11.5003 28.6393C10.8658 27.9804 10.4813 27.1699 10.342 26.2065C10.2744 25.7387 10.2547 25.6433 10.2507 23.2542C10.2491 22.4578 10.2507 21.4097 10.2507 20.0039C10.2507 15.8313 10.2553 14.6112 10.2753 14.3742C10.3445 13.5403 10.4753 13.0157 10.7521 12.4418C11.2813 11.3432 12.2918 10.5185 13.4824 10.2108C13.8946 10.1046 14.3499 10.0462 14.9344 10.0185C15.1821 10.0077 17.7062 10 20.2319 10C22.7576 10 25.2832 10.0031 25.5247 10.0154C26.2015 10.0473 26.5945 10.1 27.0291 10.2123C28.2273 10.5216 29.2194 11.334 29.7593 12.4479C30.0308 13.008 30.1685 13.5526 30.2308 14.343C30.2443 14.5153 30.25 17.2628 30.25 20.0065C30.25 22.7508 30.2438 25.4932 30.2303 25.6655C30.1672 26.4686 30.0296 27.0087 29.7493 27.5795C29.5194 28.0468 29.264 28.3957 28.8933 28.7525C28.2318 29.3846 27.4227 29.7692 26.4585 29.9083C25.9914 29.9758 25.8983 29.9959 23.508 30H20.2533Z" fill="url(#paint3_radial_357_8428)"/>
<path d="M20.2541 27.4316C18.2346 27.4316 17.9812 27.4228 17.188 27.3867C16.3963 27.3505 15.856 27.2253 15.3832 27.0415C14.8941 26.8517 14.4792 26.5979 14.0659 26.1847C13.6522 25.7717 13.3982 25.3571 13.2076 24.8685C13.0233 24.3959 12.8978 23.8558 12.8622 23.0651C12.8267 22.2725 12.8174 22.019 12.8174 20.001C12.8174 17.983 12.8264 17.7305 12.8623 16.9379C12.8987 16.1468 13.024 15.6069 13.2078 15.1344C13.3979 14.6457 13.6519 14.2311 14.0654 13.8181C14.4786 13.4048 14.8935 13.1503 15.3822 12.9605C15.8554 12.7767 16.3959 12.6515 17.1874 12.6153C17.9805 12.5792 18.2338 12.5704 20.2532 12.5704C22.2729 12.5704 22.5256 12.5792 23.3188 12.6153C24.1104 12.6515 24.6514 12.7767 25.1245 12.9605C25.6134 13.1503 26.0277 13.4048 26.4409 13.8181C26.8545 14.2311 27.1086 14.6457 27.2991 15.1343C27.4819 15.6069 27.6074 16.147 27.6446 16.9377C27.6802 17.7303 27.6895 17.983 27.6895 20.001C27.6895 22.0191 27.6802 22.2723 27.6446 23.0649C27.6074 23.856 27.4819 24.3959 27.2991 24.8684C27.1086 25.3571 26.8545 25.7717 26.4409 26.1847C26.0272 26.598 25.6136 26.8519 25.124 27.0415C24.65 27.2253 24.1093 27.3505 23.3177 27.3867C22.5245 27.4228 22.272 27.4316 20.2518 27.4316H20.2541ZM19.5871 26.0926C19.7851 26.0929 20.006 26.0926 20.2541 26.0926C22.2396 26.0926 22.4749 26.0855 23.259 26.0499C23.984 26.0167 24.3775 25.8957 24.6396 25.794C24.9866 25.6593 25.234 25.4983 25.4941 25.2382C25.7544 24.9781 25.9155 24.7305 26.0506 24.3837C26.1524 24.1221 26.2737 23.7289 26.3067 23.0044C26.3423 22.2211 26.3501 21.9858 26.3501 20.0027C26.3501 18.0197 26.3423 17.7844 26.3067 17.0011C26.2735 16.2766 26.1524 15.8834 26.0506 15.6217C25.9158 15.275 25.7544 15.0281 25.4941 14.7682C25.2339 14.5081 24.9868 14.3471 24.6396 14.2124C24.3778 14.1102 23.984 13.9895 23.259 13.9564C22.4751 13.9208 22.2396 13.913 20.2541 13.913C18.2685 13.913 18.0332 13.9208 17.2493 13.9564C16.5243 13.9898 16.1308 14.1109 15.8685 14.2126C15.5215 14.3472 15.2736 14.5082 15.0134 14.7683C14.7531 15.0284 14.592 15.2754 14.4569 15.6224C14.3551 15.884 14.2338 16.2772 14.2008 17.0017C14.1652 17.785 14.1581 18.0203 14.1581 20.0046C14.1581 21.9889 14.1652 22.2229 14.2008 23.0062C14.234 23.7307 14.3551 24.1239 14.4569 24.3859C14.5917 24.7326 14.7531 24.9803 15.0134 25.2404C15.2736 25.5005 15.5215 25.6614 15.8685 25.7964C16.1307 25.8986 16.5243 26.0194 17.2493 26.0526C17.9353 26.0836 18.2012 26.0929 19.5871 26.0944L19.5871 26.0926ZM24.2235 24.8588C23.7309 24.8588 23.3312 24.4599 23.3312 23.9674C23.3312 23.4751 23.7309 23.0757 24.2235 23.0757C24.7161 23.0757 25.1158 23.4751 25.1158 23.9674C25.1158 24.4597 24.7161 24.8591 24.2235 24.8591L24.2235 24.8588ZM20.2541 23.817C18.1452 23.817 16.4354 22.1084 16.4354 20.001C16.4354 17.8937 18.1452 16.1859 20.2541 16.1859C22.3631 16.1859 24.0723 17.8937 24.0723 20.001C24.0723 22.1084 22.3629 23.817 20.254 23.817H20.2541ZM20.2541 22.4779C21.623 22.4779 22.7329 21.369 22.7329 20.001C22.7329 18.6332 21.623 17.5241 20.2541 17.5241C18.8851 17.5241 17.7754 18.6332 17.7754 20.001C17.7754 21.369 18.8851 22.4779 20.2541 22.4779Z" fill="white"/>
</g>
<defs>
<radialGradient id="paint0_radial_357_8428" cx="0" cy="0" r="1" gradientUnits="userSpaceOnUse" gradientTransform="translate(29.6042 20.6258) rotate(-164.25) scale(12.7789 9.20655)">
<stop stop-color="#FF005F"/>
<stop offset="1" stop-color="#FC01D8"/>
</radialGradient>
<radialGradient id="paint1_radial_357_8428" cx="0" cy="0" r="1" gradientUnits="userSpaceOnUse" gradientTransform="translate(15.5623 8.45961) rotate(90) scale(15.9644 16.9379)">
<stop stop-color="#FFCC00"/>
<stop offset="0.1242" stop-color="#FFCC00"/>
<stop offset="0.5672" stop-color="#FE4A05"/>
<stop offset="0.6942" stop-color="#FF0F3F"/>
<stop offset="1" stop-color="#FE0657" stop-opacity="0"/>
</radialGradient>
<radialGradient id="paint2_radial_357_8428" cx="0" cy="0" r="1" gradientUnits="userSpaceOnUse" gradientTransform="translate(20.7554 10.2821) rotate(59.8703) scale(6.6014 8.59429)">
<stop stop-color="#FFCC00"/>
<stop offset="1" stop-color="#FFCC00" stop-opacity="0"/>
</radialGradient>
<radialGradient id="paint3_radial_357_8428" cx="0" cy="0" r="1" gradientUnits="userSpaceOnUse" gradientTransform="translate(12.9636 29.1856) rotate(-164.274) scale(12.6371 4.30545)">
<stop stop-color="#780CFF"/>
<stop offset="1" stop-color="#820BFF" stop-opacity="0"/>
</radialGradient>
<clipPath id="clip0_357_8428">
<rect width="20" height="20" fill="white" transform="translate(10.25 10)"/>
</clipPath>
</defs>
</svg>
