<?xml version="1.0" encoding="UTF-8"?>
<svg xmlns="http://www.w3.org/2000/svg" xmlns:xlink="http://www.w3.org/1999/xlink" width="32px" height="32px" viewBox="0 0 32 32" version="1.1">
<g id="surface1">
<path style=" stroke:none;fill-rule:nonzero;fill:rgb(0%,0%,0%);fill-opacity:1;" d="M 11.039062 0.433594 C 10.882812 0.671875 10.707031 1.382812 10.65625 2.011719 L 10.566406 3.136719 L 6.65625 3.199219 C 2.21875 3.265625 2.097656 3.308594 2.097656 4.777344 C 2.097656 5.40625 2.199219 5.6875 2.550781 6.03125 C 3.003906 6.464844 3.214844 6.488281 9.363281 6.488281 C 12.855469 6.488281 15.71875 6.507812 15.71875 6.550781 C 15.71875 6.703125 14.480469 10.207031 14.0625 11.265625 C 13.605469 12.390625 12.402344 14.917969 12.3125 14.917969 C 12.226562 14.917969 10.164062 10.898438 9.765625 9.945312 C 9.03125 8.257812 7.84375 8.085938 7.179688 9.535156 C 6.953125 10.054688 6.953125 10.207031 7.230469 11.113281 C 7.40625 11.675781 8.210938 13.363281 9.011719 14.855469 C 9.816406 16.347656 10.480469 17.644531 10.480469 17.730469 C 10.480469 18.074219 7.179688 21.792969 5.765625 23.027344 C 4.105469 24.496094 3.773438 25.167969 4.191406 26.097656 C 4.578125 26.917969 5.308594 27.179688 6.078125 26.722656 C 7.023438 26.164062 9.171875 24.085938 10.863281 22.074219 L 12.402344 20.257812 L 13.519531 21.601562 C 14.847656 23.15625 15.386719 23.480469 16.105469 23.113281 C 16.679688 22.8125 16.941406 22.3125 16.941406 21.511719 C 16.941406 21.101562 16.59375 20.539062 15.527344 19.285156 L 14.113281 17.601562 L 15.023438 15.890625 C 16.050781 13.925781 17.363281 10.617188 18.078125 8.152344 L 18.566406 6.488281 L 19.773438 6.488281 C 20.890625 6.488281 21.03125 6.441406 21.519531 5.835938 C 21.9375 5.296875 22.027344 5.058594 21.921875 4.582031 C 21.867188 4.257812 21.660156 3.804688 21.46875 3.566406 C 21.152344 3.15625 20.855469 3.136719 17.207031 3.070312 L 13.273438 3.003906 L 13.273438 1.988281 C 13.273438 0.5625 12.925781 0 12.035156 0 C 11.5625 0 11.25 0.128906 11.039062 0.433594 Z M 11.039062 0.433594 "/>
<path style=" stroke:none;fill-rule:nonzero;fill:rgb(0%,0%,0%);fill-opacity:1;" d="M 22.148438 12.152344 C 21.886719 12.410156 21.34375 13.945312 18.429688 22.703125 C 17.78125 24.671875 16.976562 27.046875 16.664062 27.976562 C 15.929688 30.117188 15.894531 30.941406 16.542969 31.566406 C 16.890625 31.914062 17.171875 32 17.554688 31.914062 C 18.253906 31.71875 18.375 31.523438 19.125 29.339844 L 19.789062 27.460938 L 23.003906 27.503906 L 26.21875 27.566406 L 26.863281 29.46875 C 27.703125 31.957031 28.402344 32.519531 29.414062 31.546875 C 30.042969 30.941406 30.007812 30.117188 29.238281 27.890625 C 28.910156 26.875 28.578125 25.902344 28.523438 25.730469 C 27.023438 20.996094 24.015625 12.367188 23.808594 12.152344 C 23.652344 12.023438 23.265625 11.890625 22.96875 11.890625 C 22.671875 11.890625 22.304688 12.023438 22.148438 12.152344 Z M 23.230469 18.398438 C 23.230469 18.507812 23.632812 19.761719 24.105469 21.1875 C 24.59375 22.617188 24.976562 23.871094 24.976562 24 C 24.976562 24.128906 24.210938 24.214844 22.96875 24.214844 C 21.867188 24.214844 20.960938 24.128906 20.960938 24.023438 C 20.960938 23.847656 21.9375 20.800781 22.65625 18.765625 C 22.898438 18.054688 23.230469 17.835938 23.230469 18.398438 Z M 23.230469 18.398438 "/>
</g>
</svg>
