<svg width="24" height="24" viewBox="0 0 24 24" fill="none" xmlns="http://www.w3.org/2000/svg">
<rect width="24" height="24" rx="12" fill="#EDEDED"/>
<rect width="16" height="16" transform="translate(4 4)" fill="white" fill-opacity="0.01"/>
<path d="M14 17.5C13.9343 17.5001 13.8693 17.4872 13.8086 17.4621C13.7479 17.4369 13.6928 17.4001 13.6465 17.3536L8.64646 12.3536C8.60002 12.3071 8.56319 12.252 8.53806 12.1914C8.51293 12.1307 8.5 12.0657 8.5 12C8.5 11.9343 8.51293 11.8693 8.53806 11.8087C8.56319 11.748 8.60002 11.6929 8.64646 11.6465L13.6465 6.64645C13.7402 6.55268 13.8674 6.5 14 6.5C14.1326 6.5 14.2598 6.55268 14.3536 6.64645C14.4474 6.74022 14.5 6.8674 14.5 7.00001C14.5 7.13262 14.4474 7.2598 14.3536 7.35358L9.70714 12L14.3536 16.6465C14.4235 16.7164 14.4711 16.8055 14.4904 16.9025C14.5097 16.9995 14.4998 17.1 14.462 17.1914C14.4241 17.2827 14.36 17.3608 14.2778 17.4158C14.1956 17.4707 14.0989 17.5 14 17.5Z" fill="#4C4C4C"/>
</svg>
