<svg width="24" height="24" viewBox="0 0 24 24" fill="none" xmlns="http://www.w3.org/2000/svg">
<rect width="24" height="24" fill="white" fill-opacity="0.01"/>
<path d="M18.9526 18.8281C20.7452 17.0076 21.75 14.5551 21.75 12C21.75 9.44504 20.7452 6.99251 18.9526 5.17195C18.9166 5.12538 18.8748 5.08357 18.8282 5.04755C17.0077 3.25483 14.5551 2.25 12 2.25C9.44499 2.25 6.99243 3.25483 5.17186 5.04755C5.12528 5.08357 5.08347 5.12537 5.04746 5.17195C3.25479 6.99251 2.25 9.44504 2.25 12C2.25 14.5551 3.25479 17.0076 5.04746 18.8281C5.06559 18.8513 5.08506 18.8734 5.10577 18.8943C5.12667 18.915 5.14877 18.9345 5.17196 18.9525C6.99252 20.7452 9.44504 21.75 12 21.75C14.5551 21.75 17.0076 20.7452 18.8281 18.9525C18.8513 18.9345 18.8734 18.9151 18.8943 18.8944C18.915 18.8735 18.9345 18.8513 18.9526 18.8281H18.9526ZM18.3371 17.2764L15.6659 14.6052C16.2084 13.8449 16.5001 12.9341 16.5001 12C16.5001 11.066 16.2084 10.1552 15.6659 9.39492L18.3371 6.7237C19.573 8.20415 20.25 10.0715 20.25 12C20.25 13.9286 19.573 15.7959 18.3371 17.2764ZM9.00005 12C9.00005 11.4067 9.176 10.8267 9.50564 10.3333C9.83528 9.83999 10.3038 9.45547 10.852 9.22841C11.4002 9.00135 12.0034 8.94194 12.5853 9.05769C13.1673 9.17345 13.7018 9.45917 14.1214 9.87873C14.5409 10.2983 14.8266 10.8328 14.9424 11.4148C15.0582 11.9967 14.9988 12.5999 14.7717 13.1481C14.5446 13.6963 14.1601 14.1648 13.6668 14.4945C13.1734 14.8241 12.5934 15 12 15C11.2047 14.9991 10.4422 14.6828 9.87974 14.1204C9.31733 13.5579 9.00097 12.7954 9.00005 12ZM17.2763 5.66302L14.6052 8.33424C13.8449 7.79166 12.9341 7.50002 12 7.50002C11.066 7.50002 10.1552 7.79166 9.39492 8.33424L6.7238 5.66302C8.20425 4.42707 10.0716 3.75006 12.0001 3.75006C13.9287 3.75006 15.796 4.42707 17.2765 5.66302H17.2763ZM5.66311 6.7237L8.33433 9.39492C7.79176 10.1552 7.50012 11.066 7.50012 12C7.50012 12.9341 7.79176 13.8449 8.33433 14.6052L5.66302 17.2763C4.42708 15.7958 3.75006 13.9285 3.75006 12C3.75006 10.0714 4.42708 8.20406 5.66302 6.72361L5.66311 6.7237ZM6.7238 18.3371L9.39502 15.6659C10.1553 16.2084 11.0661 16.5001 12.0001 16.5001C12.9342 16.5001 13.845 16.2084 14.6053 15.6659L17.2765 18.3371C15.796 19.573 13.9287 20.25 12.0001 20.25C10.0716 20.25 8.20425 19.573 6.7238 18.3371Z" fill="#808080"/>
</svg>
