<svg width="16" height="16" viewBox="0 0 16 16" fill="none" xmlns="http://www.w3.org/2000/svg">
<rect width="16" height="16" fill="white" fill-opacity="0.01"/>
<path d="M14.0782 5.17187C14.0794 5.59884 13.9959 6.0218 13.8325 6.41628C13.6691 6.81075 13.4291 7.1689 13.1264 7.47L11.3587 9.23781C10.7487 9.84635 9.92226 10.1881 9.06061 10.1881C8.19897 10.1881 7.3725 9.84635 6.76249 9.23781C6.66871 9.14404 6.61602 9.01685 6.61602 8.88424C6.61601 8.75162 6.66869 8.62443 6.76246 8.53065C6.85623 8.43687 6.98341 8.38418 7.11603 8.38418C7.24865 8.38417 7.37583 8.43685 7.46961 8.53062C7.8919 8.95197 8.46407 9.18861 9.06061 9.18861C9.65715 9.18861 10.2293 8.95197 10.6516 8.53062L12.4192 6.76281C12.8355 6.33969 13.0677 5.76922 13.0653 5.17566C13.0629 4.58211 12.826 4.01355 12.4063 3.59384C11.9866 3.17412 11.4181 2.93726 10.8245 2.93485C10.2309 2.93243 9.66048 3.16465 9.23736 3.58093L7.99986 4.81837C7.95343 4.8648 7.8983 4.90163 7.83764 4.92676C7.77697 4.95188 7.71194 4.96481 7.64628 4.96481C7.58061 4.96481 7.51559 4.95187 7.45493 4.92674C7.39426 4.90161 7.33914 4.86477 7.29271 4.81834C7.24628 4.7719 7.20945 4.71678 7.18432 4.65611C7.15919 4.59544 7.14626 4.53042 7.14627 4.46475C7.14627 4.39909 7.15921 4.33407 7.18434 4.2734C7.20947 4.21273 7.2463 4.15761 7.29274 4.11118L8.53018 2.87381C8.9847 2.41928 9.5638 2.10973 10.1942 1.98433C10.8247 1.85892 11.4782 1.92328 12.072 2.16927C12.6659 2.41526 13.1735 2.83183 13.5306 3.3663C13.8877 3.90077 14.0783 4.52913 14.0783 5.17193L14.0782 5.17187ZM7.99986 11.1822L6.76236 12.4197C6.55406 12.6314 6.3059 12.7998 6.03219 12.9151C5.75848 13.0305 5.46464 13.0905 5.16763 13.0917C4.87062 13.0929 4.5763 13.0353 4.30167 12.9222C4.02703 12.8091 3.7775 12.6427 3.56748 12.4327C3.35746 12.2227 3.1911 11.9731 3.07799 11.6985C2.96489 11.4239 2.90728 11.1296 2.90849 10.8325C2.9097 10.5355 2.9697 10.2417 3.08504 9.96798C3.20038 9.69428 3.36876 9.44611 3.58049 9.23781L5.34818 7.47C5.77044 7.04861 6.34263 6.81196 6.93918 6.81196C7.53573 6.81196 8.10791 7.04861 8.53018 7.47C8.57661 7.51643 8.63174 7.55326 8.6924 7.57838C8.75307 7.60351 8.81809 7.61644 8.88376 7.61644C8.94943 7.61643 9.01445 7.6035 9.07511 7.57836C9.13578 7.55323 9.1909 7.5164 9.23733 7.46996C9.28376 7.42353 9.32059 7.3684 9.34572 7.30774C9.37085 7.24707 9.38378 7.18204 9.38377 7.11638C9.38377 7.05071 9.37083 6.98569 9.3457 6.92503C9.32057 6.86436 9.28374 6.80924 9.2373 6.76281C8.62729 6.15426 7.80082 5.8125 6.93918 5.8125C6.07753 5.8125 5.25106 6.15426 4.64105 6.76281L2.8733 8.53062C2.2638 9.14012 1.92139 9.96678 1.92139 10.8287C1.92139 11.6907 2.2638 12.5174 2.8733 13.1269C3.4828 13.7364 4.30946 14.0788 5.17143 14.0788C6.03339 14.0788 6.86005 13.7364 7.46955 13.1269L8.70699 11.8894C8.79981 11.7954 8.85168 11.6685 8.85128 11.5364C8.85087 11.4044 8.79822 11.2778 8.70482 11.1844C8.61142 11.091 8.48486 11.0384 8.35278 11.038C8.22069 11.0376 8.09382 11.0895 7.99986 11.1823V11.1822Z" fill="#4C4C4C"/>
</svg>
