<svg width="41" height="40" viewBox="0 0 41 40" fill="none" xmlns="http://www.w3.org/2000/svg">
<rect x="1" y="0.5" width="39" height="39" rx="19.5" fill="white"/>
<rect x="1" y="0.5" width="39" height="39" rx="19.5" stroke="#F6F6F6"/>
<g clip-path="url(#clip0_357_8425)">
<path d="M29.0236 10H11.9764C11.5848 10 11.2093 10.1555 10.9324 10.4324C10.6555 10.7093 10.5 11.0848 10.5 11.4764V28.5236C10.5 28.9152 10.6555 29.2907 10.9324 29.5676C11.2093 29.8445 11.5848 30 11.9764 30H29.0236C29.4152 30 29.7907 29.8445 30.0676 29.5676C30.3445 29.2907 30.5 28.9152 30.5 28.5236V11.4764C30.5 11.0848 30.3445 10.7093 30.0676 10.4324C29.7907 10.1555 29.4152 10 29.0236 10ZM16.4611 27.0375H13.4542V17.4861H16.4611V27.0375ZM14.9556 16.1625C14.6145 16.1606 14.2816 16.0577 13.9989 15.8667C13.7163 15.6758 13.4965 15.4054 13.3674 15.0897C13.2383 14.774 13.2055 14.4272 13.2734 14.0929C13.3412 13.7586 13.5065 13.4519 13.7485 13.2115C13.9904 12.9711 14.2982 12.8077 14.6329 12.7421C14.9676 12.6764 15.3143 12.7113 15.6291 12.8425C15.944 12.9736 16.2129 13.1951 16.4021 13.479C16.5912 13.7629 16.6919 14.0964 16.6917 14.4375C16.6949 14.6659 16.6521 14.8925 16.5658 15.104C16.4796 15.3155 16.3517 15.5074 16.1896 15.6684C16.0276 15.8294 15.8349 15.9561 15.6229 16.041C15.4108 16.1258 15.1839 16.1672 14.9556 16.1625ZM27.5444 27.0458H24.5389V21.8278C24.5389 20.2889 23.8847 19.8139 23.0403 19.8139C22.1486 19.8139 21.2736 20.4861 21.2736 21.8667V27.0458H18.2667V17.4931H21.1583V18.8167H21.1972C21.4875 18.2292 22.5042 17.225 24.0556 17.225C25.7333 17.225 27.5458 18.2208 27.5458 21.1375L27.5444 27.0458Z" fill="#0A66C2"/>
</g>
<defs>
<clipPath id="clip0_357_8425">
<rect width="20" height="20" fill="white" transform="translate(10.5 10)"/>
</clipPath>
</defs>
</svg>
