<svg  viewBox="0 0 101 100" fill="none" xmlns="http://www.w3.org/2000/svg">
<path fill-rule="evenodd" clip-rule="evenodd" d="M60.4561 8.2859C64.871 9.33611 69.0873 11.0868 72.9517 13.4664L81.071 9.86012L90.641 19.429L87.0358 27.5461C88.8097 30.4265 90.2339 33.5032 91.2786 36.7112H72.4619C67.9632 29.2924 59.8107 24.3348 50.5 24.3348C41.1893 24.3348 33.0368 29.2913 28.5381 36.7112H9.72359C10.7683 33.5043 12.1925 30.4276 13.9664 27.5483L10.3612 19.4301L19.9301 9.86012L28.0494 13.4664C31.9138 11.0868 36.1301 9.33722 40.545 8.2859L43.7343 0H57.2679L60.4561 8.2859ZM1.80394 40.0439H99.1961C99.9131 40.0439 100.5 40.6308 100.5 41.3479V58.6522C100.5 59.3692 99.9131 59.9561 99.1961 59.9561H1.80394C1.08689 59.9561 0.5 59.3692 0.5 58.6522V41.3479C0.5 40.6308 1.08689 40.0439 1.80394 40.0439ZM85.4726 44.5636V45.9767L84.4732 44.9773C83.8223 44.3264 82.7677 44.3264 82.1168 44.9773C81.4659 45.6281 81.4659 46.6828 82.1168 47.3336L83.1163 48.3331H81.7031C80.7831 48.3331 80.0362 49.0789 80.0362 50C80.0362 50.92 80.782 51.6669 81.7031 51.6669H83.1163L82.1168 52.6664C81.4659 53.3172 81.4659 54.3719 82.1168 55.0227C82.7677 55.6736 83.8223 55.6736 84.4732 55.0227L85.4726 54.0233V55.4364C85.4726 56.3565 86.2184 57.1033 87.1395 57.1033C88.0596 57.1033 88.8064 56.3576 88.8064 55.4364V54.0233L89.8048 55.0216C90.4557 55.6725 91.5103 55.6725 92.1612 55.0216C92.812 54.3708 92.812 53.3161 92.1612 52.6653L91.1617 51.6658H92.5748C93.4949 51.6658 94.2417 50.92 94.2417 49.9989C94.2417 49.0789 93.496 48.332 92.5748 48.332H91.1628L92.1623 47.3325C92.8131 46.6817 92.8131 45.627 92.1623 44.9762C91.5114 44.3253 90.4568 44.3253 89.8059 44.9762L88.8064 45.9756V44.5625C88.8064 43.6424 88.0607 42.8956 87.1395 42.8956C86.2195 42.8967 85.4726 43.6435 85.4726 44.5636ZM18.8832 52.6664L17.8837 51.6669H19.2969C20.2169 51.6669 20.9638 50.9212 20.9638 50C20.9638 49.08 20.218 48.3331 19.2969 48.3331H17.8837L18.8832 47.3336C19.5341 46.6828 19.5341 45.6281 18.8832 44.9773C18.2323 44.3264 17.1777 44.3264 16.5268 44.9773L15.5274 45.9767V44.5636C15.5274 43.6435 14.7816 42.8967 13.8605 42.8967C12.9393 42.8967 12.1936 43.6424 12.1936 44.5636V45.9767L11.1941 44.9773C10.5432 44.3264 9.48862 44.3264 8.83775 44.9773C8.18688 45.6281 8.18688 46.6828 8.83775 47.3336L9.83722 48.3331H8.42406C7.50402 48.3331 6.75717 49.0789 6.75717 50C6.75717 50.92 7.50291 51.6669 8.42406 51.6669H9.83722L8.83775 52.6664C8.18688 53.3172 8.18688 54.3719 8.83775 55.0227C9.48862 55.6736 10.5432 55.6736 11.1941 55.0227L12.1936 54.0233V55.4364C12.1936 56.3565 12.9393 57.1033 13.8605 57.1033C14.7816 57.1033 15.5274 56.3576 15.5274 55.4364V54.0233L16.5257 55.0216C17.1766 55.6725 18.2312 55.6725 18.8821 55.0216C19.5341 54.3719 19.5341 53.3161 18.8832 52.6664ZM37.2024 52.6664L36.2029 51.6669H37.6161C38.5361 51.6669 39.283 50.9212 39.283 50C39.283 49.08 38.5372 48.3331 37.6161 48.3331H36.2029L37.2024 47.3336C37.8533 46.6828 37.8533 45.6281 37.2024 44.9773C36.5515 44.3264 35.4969 44.3264 34.846 44.9773L33.8466 45.9767V44.5636C33.8466 43.6435 33.1008 42.8967 32.1797 42.8967C31.2585 42.8967 30.5128 43.6424 30.5128 44.5636V45.9767L29.5133 44.9773C28.8625 44.3264 27.8078 44.3264 27.157 44.9773C26.5061 45.6281 26.5061 46.6828 27.157 47.3336L28.1564 48.3331H26.7433C25.8232 48.3331 25.0764 49.0789 25.0764 50C25.0764 50.92 25.8221 51.6669 26.7433 51.6669H28.1564L27.157 52.6664C26.5061 53.3172 26.5061 54.3719 27.157 55.0227C27.8078 55.6736 28.8625 55.6736 29.5133 55.0227L30.5128 54.0233V55.4364C30.5128 56.3565 31.2585 57.1033 32.1797 57.1033C33.1008 57.1033 33.8466 56.3576 33.8466 55.4364V54.0233L34.8449 55.0216C35.4958 55.6725 36.5504 55.6725 37.2013 55.0216C37.8522 54.3708 37.8533 53.3161 37.2024 52.6664ZM55.5227 52.6664L54.5233 51.6669H55.9364C56.8565 51.6669 57.6033 50.9212 57.6033 50C57.6033 49.08 56.8576 48.3331 55.9364 48.3331H54.5233L55.5227 47.3336C56.1736 46.6828 56.1736 45.6281 55.5227 44.9773C54.8719 44.3264 53.8172 44.3264 53.1664 44.9773L52.1669 45.9767V44.5636C52.1669 43.6435 51.4212 42.8967 50.5 42.8967C49.58 42.8967 48.8331 43.6424 48.8331 44.5636V45.9767L47.8336 44.9773C47.1828 44.3264 46.1281 44.3264 45.4773 44.9773C44.8264 45.6281 44.8264 46.6828 45.4773 47.3336L46.4767 48.3331H45.0636C44.1435 48.3331 43.3967 49.0789 43.3967 50C43.3967 50.92 44.1424 51.6669 45.0636 51.6669H46.4767L45.4773 52.6664C44.8264 53.3172 44.8264 54.3719 45.4773 55.0227C46.1281 55.6736 47.1828 55.6736 47.8336 55.0227L48.8331 54.0233V55.4364C48.8331 56.3565 49.5789 57.1033 50.5 57.1033C51.42 57.1033 52.1669 56.3576 52.1669 55.4364V54.0233L53.1653 55.0216C53.8161 55.6725 54.8708 55.6725 55.5216 55.0216C56.1725 54.3708 56.1736 53.3161 55.5227 52.6664ZM73.8419 52.6664L72.8425 51.6669H74.2556C75.1757 51.6669 75.9225 50.9212 75.9225 50C75.9225 49.08 75.1768 48.3331 74.2556 48.3331H72.8425L73.8419 47.3336C74.4928 46.6828 74.4928 45.6281 73.8419 44.9773C73.1911 44.3264 72.1364 44.3264 71.4856 44.9773L70.4861 45.9767V44.5636C70.4861 43.6435 69.7404 42.8967 68.8192 42.8967C67.8992 42.8967 67.1523 43.6424 67.1523 44.5636V45.9767L66.1529 44.9773C65.502 44.3264 64.4474 44.3264 63.7965 44.9773C63.1456 45.6281 63.1456 46.6828 63.7965 47.3336L64.796 48.3331H63.3828C62.4628 48.3331 61.7159 49.0789 61.7159 50C61.7159 50.92 62.4617 51.6669 63.3828 51.6669H64.796L63.7965 52.6664C63.1456 53.3172 63.1456 54.3719 63.7965 55.0227C64.4474 55.6736 65.502 55.6736 66.1529 55.0227L67.1523 54.0233V55.4364C67.1523 56.3565 67.8981 57.1033 68.8192 57.1033C69.7393 57.1033 70.4861 56.3576 70.4861 55.4364V54.0233L71.4845 55.0216C72.1353 55.6725 73.19 55.6725 73.8408 55.0216C74.4928 54.3719 74.4928 53.3161 73.8419 52.6664ZM91.2764 63.2888C90.2306 66.4957 88.8075 69.5713 87.0347 72.4506L90.641 80.5699L81.0721 90.1399L72.955 86.5347C69.0906 88.9154 64.8721 90.665 60.4561 91.7152L57.2679 99.9989H43.7332L40.5439 91.713C36.129 90.6628 31.9127 88.9121 28.0494 86.5325L19.9301 90.1388L10.3601 80.5699L13.9653 72.4528C12.1914 69.5724 10.7683 66.4968 9.72249 63.2888H28.5392C33.0368 70.7076 41.1893 75.6652 50.5 75.6652C59.8107 75.6652 67.9632 70.7087 72.4608 63.2899L91.2764 63.2888Z" fill="#007FC0"/>
</svg>
