<svg width="20" height="26" viewBox="0 0 20 26" fill="none" xmlns="http://www.w3.org/2000/svg">
<path d="M16.2948 5.74583C15.657 5.74522 15.0455 5.49155 14.5945 5.04053C14.1434 4.58952 13.8898 3.97799 13.8892 3.34015V0H3.1395C2.30685 0 1.50831 0.330777 0.919539 0.919547C0.330768 1.50832 0 2.30684 0 3.13949V22.0652C0.00123648 22.897 0.332551 23.6943 0.921187 24.2821C1.50982 24.8699 2.30766 25.2 3.1395 25.2H16.0428C16.4552 25.2002 16.8636 25.1191 17.2446 24.9614C17.6257 24.8037 17.9719 24.5724 18.2635 24.2809C18.5552 23.9893 18.7866 23.6432 18.9444 23.2622C19.1023 22.8812 19.1835 22.4729 19.1835 22.0605V5.74116L16.2948 5.74583Z" fill="#EDEDED"/>
<path d="M19.184 5.74583H16.2953C15.6575 5.74522 15.046 5.49155 14.5949 5.04054C14.1439 4.58952 13.8903 3.97799 13.8896 3.34015V0L19.184 5.74583Z" fill="#C9C9C9"/>
</svg>
