<svg width="16" height="16" viewBox="0 0 16 16" fill="none" xmlns="http://www.w3.org/2000/svg">
<rect width="16" height="16" fill="white" fill-opacity="0.01"/>
<path d="M14 4.79285L11.2071 1.99991C11.0196 1.81238 10.7652 1.70703 10.5 1.70703C10.2348 1.70703 9.98047 1.81238 9.79294 1.99991L8.14656 3.64629L8.14644 3.64635L8.14637 3.64647L2.29294 9.49991C2.19576 9.59703 2.11971 9.71319 2.06956 9.8411C2.06471 9.85311 2.06033 9.86531 2.05644 9.87766C2.01927 9.98351 2.0002 10.0949 2 10.207V12.9999C2.0003 13.265 2.10575 13.5192 2.29322 13.7067C2.48069 13.8942 2.73487 13.9996 3 13.9999H5.79294C5.91482 13.9998 6.03564 13.9773 6.14944 13.9337C6.15181 13.9328 6.15431 13.9321 6.15669 13.9312C6.28542 13.881 6.40233 13.8047 6.5 13.707L14 6.20697C14.1872 6.0193 14.2924 5.76501 14.2924 5.49991C14.2924 5.23481 14.1872 4.98053 14 4.79285ZM3 11.207L4.79294 12.9999H3V11.207ZM6 12.7928L3.20712 9.99991L8.5 4.70697L11.2929 7.49991L6 12.7928ZM12 6.79279L9.20712 3.99991L10.5 2.70697L13.2929 5.49991L12 6.79279Z" fill="#4C4C4C"/>
</svg>
