<svg width="23" height="20" viewBox="0 0 23 20" fill="none" xmlns="http://www.w3.org/2000/svg">
<path d="M9.58339 10.0008C11.7887 10.0008 13.5764 8.21301 13.5764 6.0077C13.5764 3.8024 11.7887 2.01465 9.58339 2.01465C7.37808 2.01465 5.59033 3.8024 5.59033 6.0077C5.59033 8.21301 7.37808 10.0008 9.58339 10.0008Z" stroke="#BEBEBE" stroke-width="1.5" stroke-linecap="round" stroke-linejoin="round"/>
<path d="M16.4434 17.9868C16.4434 14.8961 13.3687 12.3965 9.58333 12.3965C5.79792 12.3965 2.72327 14.8961 2.72327 17.9868" stroke="#BEBEBE" stroke-width="1.5" stroke-linecap="round" stroke-linejoin="round"/>
<path d="M22.0973 7.12517C21.9379 7.12122 21.7684 7.18696 21.6358 7.31971L18.6197 10.3386L17.6555 9.37337C17.4204 9.13789 17.0671 9.11258 16.8631 9.31637L16.4291 9.75076C16.2255 9.95463 16.251 10.3088 16.486 10.5442L18.2524 12.3119C18.4511 12.5114 18.8033 12.4965 18.9876 12.3119L22.8053 8.49013C23.0405 8.25473 23.0663 7.90097 22.8623 7.69718L22.4284 7.26237C22.339 7.17342 22.2213 7.12819 22.0973 7.12517Z" fill="#BEBEBE"/>
</svg>
