<svg width="48" height="48" viewBox="0 0 48 48" fill="none" xmlns="http://www.w3.org/2000/svg">
<rect width="48" height="48" rx="24" fill="#FDEBF8"/>
<path d="M16.0026 27.5225L14.0754 27.5225C13.5545 29.6155 12.9356 34.2422 17.4196 34.2422L29.1279 34.2422C25.9137 34.2422 24.5629 30.6229 25.774 27.5225L16.0026 27.5225Z" fill="#D149A7" fill-opacity="0.2"/>
<path fill-rule="evenodd" clip-rule="evenodd" d="M30.4136 34.2416C30.4136 34.9517 29.8379 35.5273 29.1279 35.5273L17.4196 35.5273C16.072 35.5273 14.9581 35.1755 14.113 34.4771C13.2758 33.7851 12.8357 32.8632 12.6204 31.9669C12.2041 30.2334 12.5568 28.2996 12.8276 27.2115C12.9702 26.6384 13.4848 26.2362 14.0753 26.2362L25.7739 26.2362C26.1987 26.2362 26.5961 26.446 26.8357 26.7968C27.0753 27.1476 27.1261 27.5941 26.9715 27.9898C26.4792 29.25 26.5316 30.5669 26.9616 31.5119C27.3704 32.4103 28.0922 32.9559 29.1279 32.9559C29.8379 32.9559 30.4136 33.5315 30.4136 34.2416ZM24.811 32.9559C24.7431 32.8323 24.6798 32.7059 24.6212 32.577C24.1065 31.4461 23.9385 30.1234 24.1196 28.8077L15.1226 28.8077C14.987 29.6469 14.9336 30.5872 15.1208 31.3664C15.2462 31.8884 15.4596 32.254 15.7511 32.4949C16.0348 32.7294 16.5251 32.9559 17.4196 32.9559L24.811 32.9559Z" fill="#D149A7"/>
<path fill-rule="evenodd" clip-rule="evenodd" d="M20.9467 12.533C21.0725 12.493 21.2038 12.4727 21.3358 12.4727H34.2859C34.9229 12.4727 35.4639 12.9391 35.5576 13.5691C35.6514 14.1992 35.2697 14.8029 34.6603 14.9884C34.062 15.1705 33.6783 15.4945 33.402 15.9447C33.1046 16.4295 32.9026 17.1131 32.8089 18.022C32.6239 19.8176 32.8921 22.0633 33.1786 24.4623C33.1871 24.5333 33.1956 24.6045 33.2041 24.6759C33.4855 27.035 33.7845 29.6044 33.4211 31.5843C33.2344 32.6011 32.8495 33.6158 32.0642 34.3763C31.2515 35.1634 30.1671 35.5281 28.8951 35.5281V32.9567C29.661 32.9567 30.047 32.7502 30.2753 32.5291C30.5309 32.2816 30.7577 31.8511 30.8919 31.12C31.1702 29.6041 30.9473 27.4663 30.6508 24.9804C30.6368 24.8627 30.6226 24.7442 30.6083 24.6251C30.3357 22.3512 30.0357 19.848 30.251 17.7585C30.3482 16.8152 30.5559 15.8779 30.9659 15.0441H21.5608C20.9863 15.2853 20.5417 15.805 20.2269 16.7093C19.8755 17.719 19.7519 19.0485 19.7893 20.4981C19.8638 23.3845 20.5612 26.3383 20.7928 27.164L18.317 27.8586C18.0539 26.9211 17.3007 23.742 17.2187 20.5644C17.1779 18.9821 17.2997 17.2969 17.7984 15.864C18.3045 14.4101 19.2602 13.0686 20.9467 12.533Z" fill="#D149A7"/>
<path fill-rule="evenodd" clip-rule="evenodd" d="M22.45 18.6744C22.45 17.9643 23.0256 17.3887 23.7357 17.3887L26.9029 17.3887C27.613 17.3887 28.1887 17.9643 28.1887 18.6744C28.1887 19.3845 27.613 19.9601 26.9029 19.9601L23.7357 19.9601C23.0256 19.9601 22.45 19.3845 22.45 18.6744Z" fill="#D149A7"/>
<path fill-rule="evenodd" clip-rule="evenodd" d="M22.45 23.1031C22.45 22.393 23.0256 21.8174 23.7357 21.8174L26.9029 21.8174C27.613 21.8174 28.1887 22.393 28.1887 23.1031C28.1887 23.8132 27.613 24.3888 26.9029 24.3888L23.7357 24.3888C23.0256 24.3888 22.45 23.8132 22.45 23.1031Z" fill="#D149A7"/>
</svg>
