<svg width="42" height="42" viewBox="0 0 42 42" fill="none" xmlns="http://www.w3.org/2000/svg">
<rect width="42" height="42" rx="21" fill="#F8F8F8"/>
<rect width="20" height="20" transform="translate(11 11)" fill="white" fill-opacity="0.01"/>
<path d="M20.0295 16.5616C20.0295 16.1474 20.3653 15.8116 20.7795 15.8116H23.4189C23.8332 15.8116 24.1689 16.1474 24.1689 16.5616C24.1689 16.9759 23.8332 17.3116 23.4189 17.3116H20.7795C20.3653 17.3116 20.0295 16.9759 20.0295 16.5616Z" fill="#777777"/>
<path d="M20.7795 19.5023C20.3653 19.5023 20.0295 19.8381 20.0295 20.2523C20.0295 20.6665 20.3653 21.0023 20.7795 21.0023H23.4189C23.8332 21.0023 24.1689 20.6665 24.1689 20.2523C24.1689 19.8381 23.8332 19.5023 23.4189 19.5023H20.7795Z" fill="#777777"/>
<path fill-rule="evenodd" clip-rule="evenodd" d="M18.7797 11.7148C18.7027 11.7148 18.6261 11.7267 18.5527 11.75C17.2763 12.1554 16.5369 13.1718 16.1354 14.3252C15.7382 15.4664 15.6365 16.8262 15.6701 18.1283C15.7199 20.0599 16.0725 21.9967 16.3398 23.1848H12.7293C12.3849 23.1848 12.0847 23.4194 12.0015 23.7537C11.7785 24.6501 11.5014 26.1981 11.8295 27.5639C11.9976 28.264 12.336 28.9627 12.9655 29.483C13.5996 30.007 14.4499 30.2845 15.5162 30.2845L25.2731 30.2845C25.3138 30.2845 25.3538 30.2813 25.3927 30.2751C26.2481 30.2206 26.9568 29.9381 27.4964 29.4156C28.0846 28.8459 28.3856 28.0734 28.5346 27.2617C28.8268 25.6698 28.5872 23.5826 28.3508 21.6008L28.3268 21.4004C28.0903 19.4204 27.8629 17.5177 28.0209 15.9849C28.1015 15.2017 28.2783 14.5792 28.5609 14.1187C28.8311 13.6783 29.2141 13.3575 29.7898 13.1824C30.1453 13.0742 30.368 12.722 30.3133 12.3545C30.2586 11.9869 29.943 11.7148 29.5714 11.7148H18.7797ZM25.1883 28.7832C25.8236 28.7643 26.2035 28.5795 26.4529 28.338C26.7321 28.0676 26.9409 27.6359 27.0592 26.9909C27.3018 25.6697 27.1066 23.8342 26.8613 21.7785L26.8276 21.4961C26.5991 19.5884 26.3532 17.5355 26.5287 15.8312C26.6218 14.9279 26.8378 14.0587 27.2824 13.3342C27.3071 13.2939 27.3325 13.2541 27.3586 13.2148H18.9055C18.2846 13.4499 17.8435 13.981 17.5521 14.8183C17.2408 15.7126 17.138 16.865 17.1696 18.0896C17.2213 20.0943 17.627 22.1313 17.8796 23.1848H22.4782C22.726 23.1848 22.9578 23.3072 23.0976 23.5118C23.2373 23.7164 23.267 23.9769 23.1768 24.2077C22.7382 25.3304 22.7775 26.5185 23.1754 27.3929C23.55 28.216 24.2274 28.7534 25.1883 28.7832ZM21.8101 28.0142C21.9347 28.2879 22.0856 28.5466 22.2618 28.7845H15.5162C14.7142 28.7845 14.2277 28.5801 13.9211 28.3267C13.6099 28.0696 13.4037 27.6954 13.288 27.2136C13.0976 26.4209 13.1833 25.4681 13.3323 24.6848H21.4797C21.2472 25.8445 21.3613 27.028 21.8101 28.0142Z" fill="#777777"/>
</svg>
