<svg width="24" height="24" viewBox="0 0 24 24" fill="none" xmlns="http://www.w3.org/2000/svg">
<rect width="24" height="24" fill="white" fill-opacity="0.01"/>
<path d="M12 2.25C10.0716 2.25 8.18657 2.82183 6.58319 3.89317C4.97982 4.96451 3.73013 6.48726 2.99218 8.26884C2.25422 10.0504 2.06114 12.0108 2.43735 13.9021C2.81355 15.7934 3.74215 17.5307 5.10571 18.8943C6.46928 20.2579 8.20656 21.1865 10.0979 21.5627C11.9892 21.9389 13.9496 21.7458 15.7312 21.0078C17.5127 20.2699 19.0355 19.0202 20.1068 17.4168C21.1782 15.8134 21.75 13.9284 21.75 12C21.7471 9.41504 20.7189 6.93679 18.8911 5.10894C17.0632 3.2811 14.585 2.25293 12 2.25ZM12 20.25C10.3683 20.25 8.77326 19.7661 7.41655 18.8596C6.05984 17.9531 5.00242 16.6646 4.378 15.1571C3.75358 13.6496 3.5902 11.9908 3.90853 10.3905C4.22685 8.79016 5.01259 7.32015 6.16637 6.16637C7.32016 5.01259 8.79017 4.22685 10.3905 3.90852C11.9909 3.59019 13.6497 3.75357 15.1571 4.37799C16.6646 5.00242 17.9531 6.05984 18.8596 7.41655C19.7661 8.77325 20.25 10.3683 20.25 12C20.2475 14.1873 19.3775 16.2843 17.8309 17.8309C16.2843 19.3775 14.1873 20.2475 12 20.25ZM13.125 16.875C13.125 17.0975 13.059 17.315 12.9354 17.5C12.8118 17.685 12.6361 17.8292 12.4305 17.9144C12.225 17.9995 11.9988 18.0218 11.7805 17.9784C11.5623 17.935 11.3618 17.8278 11.2045 17.6705C11.0472 17.5132 10.94 17.3127 10.8966 17.0945C10.8532 16.8762 10.8755 16.65 10.9606 16.4445C11.0458 16.2389 11.19 16.0632 11.375 15.9396C11.56 15.816 11.7775 15.75 12 15.75C12.2984 15.75 12.5845 15.8685 12.7955 16.0795C13.0065 16.2905 13.125 16.5766 13.125 16.875ZM15.375 10.1255C15.374 10.89 15.1139 11.6316 14.6372 12.2293C14.1604 12.827 13.4952 13.2455 12.75 13.4165V13.5005C12.75 13.6994 12.671 13.8901 12.5303 14.0308C12.3897 14.1715 12.1989 14.2505 12 14.2505C11.8011 14.2505 11.6103 14.1715 11.4697 14.0308C11.329 13.8901 11.25 13.6994 11.25 13.5005V12.7505C11.25 12.5516 11.329 12.3608 11.4697 12.2201C11.6103 12.0795 11.8011 12.0005 12 12.0005C12.3708 12.0005 12.7334 11.8905 13.0417 11.6845C13.35 11.4784 13.5904 11.1856 13.7323 10.843C13.8742 10.5004 13.9113 10.1234 13.839 9.75967C13.7666 9.39596 13.5881 9.06187 13.3258 8.79964C13.0636 8.53742 12.7295 8.35884 12.3658 8.2865C12.0021 8.21415 11.6251 8.25128 11.2825 8.3932C10.9399 8.53511 10.647 8.77543 10.441 9.08377C10.235 9.39212 10.125 9.75463 10.125 10.1255C10.125 10.3244 10.046 10.5151 9.90533 10.6558C9.76468 10.7965 9.57392 10.8755 9.375 10.8755C9.17609 10.8755 8.98533 10.7965 8.84467 10.6558C8.70402 10.5151 8.625 10.3244 8.625 10.1255C8.625 9.23036 8.98058 8.37192 9.61352 7.73898C10.2465 7.10605 11.1049 6.75047 12 6.75047C12.8951 6.75047 13.7536 7.10605 14.3865 7.73898C15.0194 8.37192 15.375 9.23036 15.375 10.1255Z" fill="#808080"/>
</svg>
