<svg width="49" height="48" viewBox="0 0 49 48" fill="none" xmlns="http://www.w3.org/2000/svg">
<rect x="0.666748" width="48" height="48" rx="24" fill="#E7F6FC"/>
<path d="M14.3122 29.6036C14.5764 32.0733 16.5627 34.0597 19.0312 34.3348C20.8647 34.5392 22.7473 34.7147 24.6667 34.7147C26.5861 34.7147 28.4686 34.5392 30.3021 34.3348C32.7706 34.0597 34.757 32.0733 35.0212 29.6036C35.2162 27.7804 35.381 25.9087 35.381 24.0004C35.381 22.0921 35.2162 20.2204 35.0212 18.3972C34.757 15.9275 32.7706 13.9412 30.3021 13.666C28.4686 13.4617 26.5861 13.2861 24.6667 13.2861C22.7473 13.2861 20.8647 13.4617 19.0312 13.666C16.5627 13.9412 14.5764 15.9275 14.3122 18.3972C14.1171 20.2204 13.9524 22.0921 13.9524 24.0004C13.9524 25.9087 14.1171 27.7804 14.3122 29.6036Z" fill="#229DD8" fill-opacity="0.2"/>
<path fill-rule="evenodd" clip-rule="evenodd" d="M24.6667 14.5714C22.8211 14.5714 20.9962 14.7403 19.1737 14.9434C17.3018 15.1521 15.7904 16.6665 15.5907 18.5336C15.3969 20.3444 15.2382 22.1617 15.2382 24C15.2382 25.8383 15.3969 27.6556 15.5907 29.4664C15.7904 31.3335 17.3018 32.8479 19.1737 33.0566C20.9962 33.2597 22.8211 33.4286 24.6667 33.4286C26.5124 33.4286 28.3373 33.2597 30.1598 33.0566C32.0317 32.8479 33.5431 31.3335 33.7428 29.4664C33.9366 27.6556 34.0953 25.8383 34.0953 24C34.0953 22.1617 33.9366 20.3444 33.7428 18.5336C33.5431 16.6665 32.0317 15.1521 30.1598 14.9434C28.3373 14.7403 26.5124 14.5714 24.6667 14.5714ZM18.8889 12.3878C20.7334 12.1822 22.6736 12 24.6667 12C26.6599 12 28.6001 12.1822 30.4446 12.3878C33.5097 12.7295 35.971 15.1878 36.2997 18.26C36.4961 20.0955 36.6667 22.0218 36.6667 24C36.6667 25.9782 36.4961 27.9045 36.2997 29.74C35.971 32.8122 33.5097 35.2705 30.4446 35.6122C28.6001 35.8178 26.6599 36 24.6667 36C22.6736 36 20.7334 35.8178 18.8889 35.6122C15.8238 35.2705 13.3625 32.8122 13.0338 29.74C12.8374 27.9045 12.6667 25.9782 12.6667 24C12.6667 22.0218 12.8374 20.0955 13.0338 18.26C13.3625 15.1878 15.8238 12.7295 18.8889 12.3878Z" fill="#229DD8"/>
<path fill-rule="evenodd" clip-rule="evenodd" d="M23.0103 18.2413C23.5376 18.2774 23.989 18.6324 24.1484 19.1363L26.073 25.2221L27.2579 23.0648C27.4838 22.6536 27.9157 22.398 28.3848 22.398H30.5878C31.2979 22.398 31.8735 22.9736 31.8735 23.6837C31.8735 24.3938 31.2979 24.9694 30.5878 24.9694H29.1455L26.8802 29.0939C26.6325 29.545 26.1397 29.8049 25.6275 29.7545C25.1154 29.7042 24.6826 29.3533 24.5274 28.8627L22.6825 23.0291L22.1105 24.2349C21.8976 24.6835 21.4454 24.9694 20.9489 24.9694H18.7459C18.0358 24.9694 17.4602 24.3938 17.4602 23.6837C17.4602 22.9736 18.0358 22.398 18.7459 22.398H20.1358L21.7609 18.9729C21.9875 18.4954 22.4831 18.2052 23.0103 18.2413Z" fill="#229DD8"/>
</svg>
