<svg width="42" height="42" viewBox="0 0 42 42" fill="none" xmlns="http://www.w3.org/2000/svg">
<rect width="42" height="42" rx="21" fill="#F8F8F8"/>
<rect width="20" height="20" transform="translate(11 11)" fill="white" fill-opacity="0.01"/>
<path d="M17.4503 12.2664C17.406 11.8546 17.0362 11.5567 16.6243 11.6011C16.1263 11.6547 15.629 11.7124 15.1398 11.7691C14.8688 11.8005 14.6003 11.8316 14.3356 11.8616C13.029 12.0097 11.9904 13.046 11.8456 14.3556C11.8211 14.5775 11.7959 14.8015 11.7706 15.0272C11.7112 15.5561 11.6507 16.0946 11.5948 16.6358C11.5523 17.0478 11.8518 17.4163 12.2639 17.4588C12.6759 17.5014 13.0444 17.2018 13.0869 16.7898C13.1421 16.2555 13.2013 15.7281 13.2604 15.2021C13.2859 14.9748 13.3114 14.7477 13.3365 14.5205C13.404 13.9099 13.8914 13.4215 14.5044 13.3521C14.7775 13.3211 15.0497 13.2896 15.3222 13.258C15.8066 13.2018 16.292 13.1455 16.785 13.0924C17.1968 13.0481 17.4947 12.6782 17.4503 12.2664Z" fill="#777777"/>
<path d="M24.5498 12.2664C24.5942 11.8546 24.964 11.5567 25.3758 11.6011C25.8739 11.6547 26.3712 11.7124 26.8603 11.7691C27.1312 11.8005 27.4 11.8316 27.6646 11.8616C28.9711 12.0097 30.0098 13.046 30.1546 14.3556C30.1791 14.5775 30.2043 14.8015 30.2296 15.0272C30.289 15.5562 30.3494 16.0945 30.4053 16.6358C30.4478 17.0478 30.1483 17.4163 29.7363 17.4588C29.3243 17.5014 28.9558 17.2018 28.9132 16.7898C28.8581 16.2555 28.7988 15.728 28.7398 15.202C28.7143 14.975 28.6887 14.7474 28.6637 14.5205C28.5962 13.9099 28.1087 13.4215 27.4957 13.3521C27.2227 13.3211 26.9505 13.2896 26.678 13.258C26.1935 13.2018 25.7081 13.1455 25.2152 13.0924C24.8033 13.0481 24.5054 12.6782 24.5498 12.2664Z" fill="#777777"/>
<path fill-rule="evenodd" clip-rule="evenodd" d="M21.0002 14.1232C18.9137 14.1232 17.2223 15.8147 17.2223 17.9012C17.2223 19.3589 18.0479 20.6238 19.2571 21.2538C18.549 21.475 17.8843 21.8307 17.3016 22.307C16.3226 23.1072 15.6313 24.2016 15.3279 25.4245C15.2336 25.8043 15.4473 26.1927 15.8185 26.3165C16.1234 26.4183 16.442 26.4893 16.7703 26.5259C18.1259 26.677 19.5448 26.8101 21.0002 26.8101C22.4555 26.8101 23.8744 26.677 25.23 26.5259C25.5583 26.4893 25.8768 26.4183 26.1817 26.3166C26.5529 26.1928 26.7666 25.8043 26.6723 25.4245C26.3689 24.2017 25.6776 23.1072 24.6987 22.307C24.1159 21.8307 23.4513 21.4751 22.7433 21.2538C23.9525 20.6239 24.7782 19.3589 24.7782 17.9012C24.7782 15.8147 23.0867 14.1232 21.0002 14.1232ZM18.7223 17.9012C18.7223 16.6431 19.7422 15.6232 21.0002 15.6232C22.2583 15.6232 23.2782 16.6431 23.2782 17.9012C23.2782 19.1592 22.2583 20.1791 21.0002 20.1791C19.7422 20.1791 18.7223 19.1592 18.7223 17.9012ZM18.2508 23.4684C19.0267 22.8342 19.998 22.4878 21.0001 22.4878C22.0022 22.4878 22.9735 22.8342 23.7494 23.4684C24.2731 23.8965 24.6861 24.4379 24.9605 25.0466C23.6518 25.1912 22.3344 25.3101 21.0002 25.3101C19.6659 25.3101 18.3485 25.1911 17.0397 25.0466C17.3141 24.4379 17.7271 23.8965 18.2508 23.4684Z" fill="#777777"/>
<path d="M25.3758 30.3992C24.964 30.4436 24.5942 30.1457 24.5498 29.7338C24.5054 29.322 24.8033 28.9522 25.2152 28.9078C25.708 28.8547 26.1933 28.7985 26.6776 28.7423C26.95 28.7107 27.2228 28.6791 27.4957 28.6482C28.1087 28.5787 28.5962 28.0903 28.6637 27.4798C28.6888 27.2526 28.7143 27.0255 28.7398 26.7982C28.7988 26.2722 28.8581 25.7448 28.9132 25.2104C28.9558 24.7984 29.3243 24.4989 29.7363 24.5414C30.1483 24.584 30.4478 24.9525 30.4053 25.3645C30.3494 25.9057 30.289 26.444 30.2296 26.973C30.2043 27.1988 30.1791 27.4228 30.1546 27.6446C30.0098 28.9542 28.9711 29.9906 27.6646 30.1386C27.4008 30.1685 27.1332 30.1995 26.8632 30.2308L26.8603 30.2312C26.3712 30.2879 25.8739 30.3455 25.3758 30.3992Z" fill="#777777"/>
<path d="M16.6243 30.3992C17.0362 30.4436 17.406 30.1457 17.4503 29.7338C17.4947 29.322 17.1968 28.9522 16.785 28.9078C16.2922 28.8547 15.8069 28.7985 15.3226 28.7423C15.0502 28.7107 14.7774 28.6791 14.5044 28.6482C13.8914 28.5787 13.404 28.0903 13.3365 27.4798C13.3114 27.2526 13.2859 27.0255 13.2604 26.7982C13.2013 26.2722 13.1421 25.7448 13.0869 25.2104C13.0444 24.7984 12.6759 24.4989 12.2639 24.5414C11.8518 24.584 11.5523 24.9525 11.5948 25.3645C11.6507 25.9057 11.7111 26.4439 11.7705 26.9728C11.7959 27.1985 11.8211 27.4228 11.8456 27.6446C11.9904 28.9542 13.029 29.9906 14.3356 30.1386C14.5994 30.1685 14.8671 30.1996 15.1372 30.2309L15.1398 30.2312C15.629 30.2879 16.1263 30.3455 16.6243 30.3992Z" fill="#777777"/>
</svg>
