<svg width="16" height="16" viewBox="0 0 16 16" fill="none" xmlns="http://www.w3.org/2000/svg">
<rect width="16" height="16" fill="white" fill-opacity="0.01"/>
<path d="M14.3531 13.6468L11.6517 10.9454C12.6057 9.80926 13.0842 8.34873 12.9876 6.86835C12.891 5.38798 12.2266 4.00205 11.133 2.99958C10.0395 1.99711 8.60111 1.4555 7.11794 1.48768C5.63476 1.51987 4.22126 2.12337 3.17221 3.17234C2.12315 4.2213 1.51952 5.63475 1.48721 7.11792C1.45489 8.60109 1.99638 10.0395 2.99875 11.1332C4.00112 12.2268 5.38699 12.8913 6.86735 12.9881C8.34772 13.0848 9.8083 12.6064 10.9445 11.6525L13.6459 14.3539C13.7397 14.4477 13.8669 14.5004 13.9995 14.5004C14.1321 14.5004 14.2593 14.4477 14.3531 14.3539C14.4468 14.2602 14.4995 14.133 14.4995 14.0004C14.4995 13.8678 14.4468 13.7406 14.3531 13.6468ZM2.49987 7.25031C2.49987 6.31085 2.77846 5.39249 3.30039 4.61135C3.82233 3.83022 4.56418 3.2214 5.43213 2.86189C6.30008 2.50237 7.25514 2.4083 8.17655 2.59158C9.09796 2.77486 9.94433 3.22726 10.6086 3.89156C11.2729 4.55586 11.7253 5.40222 11.9086 6.32363C12.0919 7.24504 11.9978 8.20011 11.6383 9.06806C11.2788 9.93601 10.67 10.6779 9.88883 11.1998C9.1077 11.7217 8.18933 12.0003 7.24987 12.0003C5.99053 11.9989 4.78318 11.498 3.89269 10.6075C3.0022 9.71701 2.5013 8.50965 2.49987 7.25031Z" fill="#A5A5A5"/>
</svg>
