<svg viewBox="0 0 99 98" fill="none" xmlns="http://www.w3.org/2000/svg">
<path fill-rule="evenodd" clip-rule="evenodd" d="M49.5003 28.6485C54.8977 28.6485 60.0733 30.7907 63.8896 34.6107C67.7096 38.4265 69.8518 43.6021 69.8518 48.9999C69.8518 54.3978 67.7096 59.5729 63.8896 63.3892C60.0738 67.2092 54.8982 69.3514 49.5003 69.3514C44.1025 69.3514 38.9273 67.2092 35.1111 63.3892C31.2911 59.5734 29.1489 54.3978 29.1489 48.9999C29.1489 43.6021 31.2911 38.4269 35.1111 34.6107C38.9269 30.7907 44.1025 28.6485 49.5003 28.6485ZM31.1405 82.6226C32.5045 81.4679 34.3957 81.1665 36.0483 81.8444C37.701 82.518 38.8391 84.0577 39.0022 85.836L39.6549 92.9154C39.8767 95.4467 41.8724 97.4676 44.3996 97.7144C47.9184 98.0952 51.4664 98.0952 54.9851 97.7144C57.5123 97.4467 59.4954 95.4174 59.6963 92.8819L60.2946 85.79V85.7942C60.441 84.0118 61.5665 82.4595 63.2151 81.7692C64.8636 81.0788 66.7589 81.3675 68.1271 82.514L73.5914 87.0536L73.5872 87.0578C75.5495 88.6812 78.3863 88.6812 80.3486 87.0578C83.11 84.8319 85.6246 82.3215 87.8463 79.5601C89.4446 77.581 89.4111 74.7443 87.7585 72.8112L83.1728 67.3804H83.177C82.0223 66.0165 81.721 64.1252 82.3988 62.4726C83.0724 60.8199 84.6121 59.6818 86.3904 59.5187L93.4154 58.8451C95.9467 58.6233 97.9676 56.6276 98.2144 54.1004C98.5952 50.5816 98.5952 47.0336 98.2144 43.5149C97.9467 40.9877 95.9174 39.0045 93.3819 38.8037L86.29 38.2054H86.2942C84.5118 38.059 82.9595 36.9335 82.2692 35.2849C81.5788 33.6364 81.8675 31.7411 83.014 30.3729L87.5536 24.9086L87.5578 24.9128C89.1812 22.9505 89.1812 20.1137 87.5578 18.1514C85.3319 15.4109 82.8173 12.9131 80.0601 10.7081C78.081 9.10978 75.2443 9.1433 73.3112 10.7918L67.8804 15.3774C66.5165 16.5321 64.6252 16.8334 62.9726 16.1556C61.3199 15.482 60.1818 13.9423 60.0187 12.164L59.3451 5.08465C59.1233 2.55331 57.1276 0.53245 54.6004 0.28556C51.0816 -0.0951865 47.5336 -0.0951865 44.0149 0.28556C41.4877 0.553336 39.5045 2.58255 39.3037 5.11807L38.7054 12.21V12.2058C38.559 13.9882 37.4335 15.5405 35.7849 16.2308C34.1364 16.9212 32.2411 16.6325 30.8729 15.486L25.4086 10.9464L25.4128 10.9422C23.4505 9.31882 20.6137 9.31882 18.6514 10.9422C15.9109 13.1681 13.4131 15.6827 11.2081 18.4399C9.60978 20.419 9.6433 23.2557 11.2918 25.1888L15.8774 30.6196C17.0321 31.9835 17.3334 33.8748 16.6556 35.5274C15.982 37.1801 14.4423 38.3182 12.664 38.4813L5.58465 39.1549C3.05331 39.3767 1.03245 41.3724 0.78556 43.8996C0.404813 47.4184 0.404813 50.9664 0.78556 54.4851C1.05334 57.0123 3.08255 58.9954 5.61807 59.1963L12.71 59.7946H12.7058C14.4882 59.941 16.0405 61.0665 16.7308 62.7151C17.4211 64.3636 17.1325 66.2589 15.986 67.6271L11.4464 73.0914L11.4422 73.0872C9.81882 75.0495 9.81882 77.8863 11.4422 79.8486C13.6681 82.61 16.1785 85.1246 18.9399 87.3463C20.919 88.9446 23.7557 88.9111 25.6888 87.2585L31.1405 82.6226Z" fill="#007FC0"/>
</svg>
