<svg width="21" height="22" viewBox="0 0 21 22" fill="none" xmlns="http://www.w3.org/2000/svg">
<path d="M10.5 14.2812C8.68875 14.2812 7.21875 12.8112 7.21875 11C7.21875 9.18875 8.68875 7.71875 10.5 7.71875C12.3112 7.71875 13.7812 9.18875 13.7812 11C13.7812 12.8112 12.3112 14.2812 10.5 14.2812ZM10.5 9.03125C9.415 9.03125 8.53125 9.915 8.53125 11C8.53125 12.085 9.415 12.9688 10.5 12.9688C11.585 12.9688 12.4688 12.085 12.4688 11C12.4688 9.915 11.585 9.03125 10.5 9.03125Z" fill="#BEBEBE"/>
<path d="M13.3088 19.916C13.125 19.916 12.9412 19.8898 12.7575 19.846C12.215 19.6973 11.76 19.356 11.4712 18.8748L11.3663 18.6998C10.85 17.8073 10.1412 17.8073 9.625 18.6998L9.52875 18.866C9.24 19.356 8.785 19.706 8.2425 19.846C7.69125 19.9948 7.1225 19.916 6.64125 19.6273L5.13625 18.761C4.6025 18.4548 4.2175 17.956 4.05125 17.3523C3.89375 16.7485 3.9725 16.1273 4.27875 15.5935C4.5325 15.1473 4.6025 14.7448 4.45375 14.491C4.305 14.2373 3.92875 14.0885 3.4125 14.0885C2.135 14.0885 1.09375 13.0473 1.09375 11.7698V10.2298C1.09375 8.95226 2.135 7.91101 3.4125 7.91101C3.92875 7.91101 4.305 7.76226 4.45375 7.50851C4.6025 7.25476 4.54125 6.85226 4.27875 6.40601C3.9725 5.87226 3.89375 5.24226 4.05125 4.64726C4.20875 4.04351 4.59375 3.54476 5.13625 3.23851L6.65 2.37226C7.63875 1.78601 8.9425 2.12726 9.5375 3.13351L9.6425 3.30851C10.1588 4.20101 10.8675 4.20101 11.3837 3.30851L11.48 3.14226C12.075 2.12726 13.3787 1.78601 14.3763 2.38101L15.8812 3.24726C16.415 3.55351 16.8 4.05226 16.9662 4.65601C17.1237 5.25976 17.045 5.88101 16.7387 6.41476C16.485 6.86101 16.415 7.26351 16.5638 7.51726C16.7125 7.77101 17.0888 7.91976 17.605 7.91976C18.8825 7.91976 19.9237 8.96101 19.9237 10.2385V11.7785C19.9237 13.056 18.8825 14.0973 17.605 14.0973C17.0888 14.0973 16.7125 14.246 16.5638 14.4998C16.415 14.7535 16.4762 15.156 16.7387 15.6023C17.045 16.136 17.1325 16.766 16.9662 17.361C16.8087 17.9648 16.4237 18.4635 15.8812 18.7698L14.3675 19.636C14.035 19.8198 13.6763 19.916 13.3088 19.916ZM10.5 16.6785C11.2788 16.6785 12.005 17.1685 12.5037 18.0348L12.6 18.201C12.705 18.3848 12.88 18.516 13.09 18.5685C13.3 18.621 13.51 18.5948 13.685 18.4898L15.1988 17.6148C15.4263 17.4835 15.6012 17.2648 15.6712 17.0023C15.7413 16.7398 15.7062 16.4685 15.575 16.241C15.0762 15.3835 15.015 14.4998 15.4 13.826C15.785 13.1523 16.5813 12.7673 17.5788 12.7673C18.1388 12.7673 18.585 12.321 18.585 11.761V10.221C18.585 9.66976 18.1388 9.21476 17.5788 9.21476C16.5813 9.21476 15.785 8.82976 15.4 8.15601C15.015 7.48226 15.0762 6.59851 15.575 5.74101C15.7062 5.51351 15.7413 5.24226 15.6712 4.97976C15.6012 4.71726 15.435 4.50726 15.2075 4.36726L13.6937 3.50101C13.3175 3.27351 12.8188 3.40476 12.5913 3.78976L12.495 3.95601C11.9963 4.82226 11.27 5.31226 10.4913 5.31226C9.7125 5.31226 8.98625 4.82226 8.4875 3.95601L8.39125 3.78101C8.1725 3.41351 7.6825 3.28226 7.30625 3.50101L5.7925 4.37601C5.565 4.50726 5.39 4.72601 5.32 4.98851C5.25 5.25101 5.285 5.52226 5.41625 5.74976C5.915 6.60726 5.97625 7.49101 5.59125 8.16476C5.20625 8.83851 4.41 9.22351 3.4125 9.22351C2.8525 9.22351 2.40625 9.66976 2.40625 10.2298V11.7698C2.40625 12.321 2.8525 12.776 3.4125 12.776C4.41 12.776 5.20625 13.161 5.59125 13.8348C5.97625 14.5085 5.915 15.3923 5.41625 16.2498C5.285 16.4773 5.25 16.7485 5.32 17.011C5.39 17.2735 5.55625 17.4835 5.78375 17.6235L7.2975 18.4898C7.48125 18.6035 7.7 18.6298 7.90125 18.5773C8.11125 18.5248 8.28625 18.3848 8.4 18.201L8.49625 18.0348C8.995 17.1773 9.72125 16.6785 10.5 16.6785Z" fill="#BEBEBE"/>
</svg>
