<svg width="49" height="48" viewBox="0 0 49 48" fill="none" xmlns="http://www.w3.org/2000/svg">
<rect x="0.333252" width="48" height="48" rx="24" fill="#EFF7EB"/>
<path d="M23.5403 13.9333C23.8312 13.2241 24.8355 13.2241 25.1264 13.9333L27.5947 19.9521L34.2416 20.5347C35.0066 20.6017 35.3042 21.5635 34.7109 22.0509L30.1782 25.7744C29.9301 25.9782 29.8167 26.3037 29.8845 26.6176L31.3023 33.1818C31.465 33.935 30.6285 34.5036 29.988 34.0753L24.3333 30.2937L18.6787 34.0753C18.0382 34.5036 17.2017 33.935 17.3644 33.1818L18.7822 26.6176C18.85 26.3037 18.7366 25.9782 18.4884 25.7744L13.9558 22.0509C13.3625 21.5635 13.6601 20.6017 14.4251 20.5347L21.072 19.9521L23.5403 13.9333Z" fill="#579C33" fill-opacity="0.2"/>
<path fill-rule="evenodd" clip-rule="evenodd" d="M22.3506 13.446C23.0777 11.673 25.5887 11.673 26.3158 13.446L28.487 18.7402L34.3537 19.2544C36.2661 19.4221 37.0102 21.8264 35.5268 23.0449L31.1963 26.6024L32.5589 32.9109C32.9656 34.794 30.8745 36.2155 29.2731 35.1446L24.3332 31.841L19.3933 35.1446C17.7919 36.2155 15.7008 34.794 16.1075 32.9109L17.4701 26.6024L13.1395 23.0449C11.6562 21.8263 12.4003 19.4221 14.3126 19.2544L20.1794 18.7402L22.3506 13.446ZM24.3332 15.3886L22.2614 20.4405C22.0789 20.8855 21.6632 21.1914 21.1841 21.2334L15.583 21.7244L19.3044 24.7814C19.9248 25.2911 20.2083 26.1048 20.0388 26.8896L18.8447 32.418L23.6185 29.2255C24.051 28.9362 24.6153 28.9362 25.0479 29.2255L29.8217 32.418L28.6276 26.8896C28.4581 26.1048 28.7416 25.2911 29.362 24.7814L33.0834 21.7244L27.4823 21.2334C27.0032 21.1914 26.5875 20.8855 26.405 20.4405L24.3332 15.3886Z" fill="#579C33"/>
</svg>
