<svg width="42" height="42" viewBox="0 0 42 42" fill="none" xmlns="http://www.w3.org/2000/svg">
<rect width="42" height="42" rx="21" fill="#F8F8F8"/>
<rect width="20" height="20" transform="translate(11 11)" fill="white" fill-opacity="0.01"/>
<path d="M20.2614 17.0441C20.1684 16.7502 19.9051 16.5431 19.5975 16.522C19.29 16.501 19.0008 16.6703 18.8687 16.9488L17.4273 19.9867H16.0658C15.6516 19.9867 15.3158 20.3225 15.3158 20.7367C15.3158 21.1509 15.6516 21.4867 16.0658 21.4867H17.9016C18.1913 21.4867 18.455 21.3199 18.5792 21.0582L19.4063 19.3149L21.1902 24.9556C21.2807 25.2418 21.5332 25.4465 21.8319 25.4758C22.1307 25.5052 22.4181 25.3536 22.5627 25.0905L24.542 21.4867H25.934C26.3482 21.4867 26.684 21.1509 26.684 20.7367C26.684 20.3225 26.3482 19.9867 25.934 19.9867H24.0982C23.8245 19.9867 23.5726 20.1358 23.4408 20.3756L22.0918 22.8319L20.2614 17.0441Z" fill="#777777"/>
<path fill-rule="evenodd" clip-rule="evenodd" d="M20.9999 11.3213C18.9769 11.3213 17.0085 11.5495 15.1542 11.7645L15.1522 11.7647C13.3678 11.9716 11.9439 13.3929 11.7433 15.1814C11.5359 17.03 11.3213 18.9876 11.3213 20.9999C11.3213 23.0121 11.5359 24.9697 11.7433 26.8184C11.9439 28.6068 13.3678 30.0281 15.1522 30.235L15.1542 30.2352C17.0085 30.4502 18.9769 30.6784 20.9999 30.6784C23.0228 30.6784 24.9911 30.4502 26.8454 30.2352L26.8475 30.235C28.632 30.0281 30.0558 28.6068 30.2565 26.8184C30.4639 24.9697 30.6784 23.0121 30.6784 20.9999C30.6784 18.9876 30.4639 17.03 30.2565 15.1814C30.0558 13.3929 28.632 11.9716 26.8475 11.7647L26.8456 11.7645C24.9912 11.5495 23.0228 11.3213 20.9999 11.3213ZM15.3249 13.2547C17.1919 13.0383 19.0765 12.8213 20.9999 12.8213C22.9232 12.8213 24.8078 13.0383 26.6748 13.2547C27.7688 13.3816 28.6434 14.2573 28.7658 15.3486C28.9741 17.205 29.1784 19.0833 29.1784 20.9999C29.1784 22.9164 28.9741 24.7947 28.7658 26.6511C28.6434 27.7424 27.7688 28.6181 26.6748 28.745C24.8078 28.9614 22.9232 29.1784 20.9999 29.1784C19.0765 29.1784 17.1919 28.9614 15.3249 28.745C14.2309 28.6181 13.3563 27.7424 13.2339 26.6511C13.0256 24.7947 12.8213 22.9164 12.8213 20.9999C12.8213 19.0833 13.0256 17.205 13.2339 15.3486C13.3563 14.2573 14.2309 13.3816 15.3249 13.2547Z" fill="#777777"/>
</svg>
