<svg width="20" height="20" viewBox="0 0 20 20" fill="none" xmlns="http://www.w3.org/2000/svg">
<rect width="20" height="20" fill="white" fill-opacity="0.01"/>
<path d="M17.3334 6.49705C18.2011 8.31051 18.3663 10.3811 17.7971 12.3092C17.2279 14.2373 15.9647 15.8862 14.2512 16.9377C12.5377 17.9892 10.4955 18.3687 8.51869 18.003C6.54188 17.6372 4.7706 16.5522 3.54674 14.9573C2.32287 13.3624 1.73318 11.3707 1.89147 9.36657C2.04976 7.36245 2.94482 5.48801 4.40388 4.10501C5.86295 2.72202 7.78259 1.92851 9.79231 1.87766C11.802 1.8268 13.7594 2.5222 15.2865 3.82963L17.0581 2.05806C17.1753 1.94085 17.3343 1.875 17.5 1.875C17.6658 1.875 17.8248 1.94085 17.942 2.05806C18.0592 2.17528 18.125 2.33425 18.125 2.50002C18.125 2.66578 18.0592 2.82476 17.942 2.94197L13.094 7.78986L13.0937 7.79025L13.0933 7.79056L10.442 10.4419C10.3248 10.5591 10.1658 10.625 10 10.625C9.83425 10.625 9.67528 10.5591 9.55806 10.4419C9.44085 10.3247 9.375 10.1657 9.375 9.99994C9.375 9.83417 9.44085 9.6752 9.55806 9.55798L11.7237 7.39236C11.1366 7.00401 10.4356 6.82518 9.73426 6.88481C9.03288 6.94445 8.37216 7.23906 7.85907 7.72095C7.34598 8.20284 7.01055 8.84381 6.9071 9.54007C6.80364 10.2363 6.93821 10.9471 7.28901 11.5574C7.63982 12.1676 8.18633 12.6416 8.84006 12.9026C9.49379 13.1636 10.2165 13.1963 10.8911 12.9955C11.5658 12.7946 12.1528 12.3719 12.5573 11.7958C12.9618 11.2198 13.1601 10.524 13.1199 9.82127C13.1148 9.73904 13.1259 9.65662 13.1528 9.57872C13.1796 9.50083 13.2215 9.42901 13.2762 9.36738C13.3309 9.30576 13.3972 9.25556 13.4714 9.21966C13.5455 9.18376 13.626 9.16288 13.7083 9.15821C13.7905 9.15354 13.8729 9.16517 13.9506 9.19245C14.0284 9.21972 14.0999 9.2621 14.1612 9.31713C14.2226 9.37217 14.2724 9.43878 14.3078 9.51314C14.3433 9.5875 14.3637 9.66813 14.3679 9.75041C14.4249 10.7449 14.1409 11.729 13.5628 12.5402C12.9846 13.3513 12.147 13.941 11.1884 14.2116C10.2298 14.4822 9.2075 14.4176 8.29054 14.0285C7.37358 13.6394 6.61684 12.9491 6.14539 12.0716C5.67394 11.1942 5.51601 10.1821 5.69769 9.20272C5.87938 8.22333 6.3898 7.33525 7.14461 6.68527C7.89942 6.03529 8.85341 5.66231 9.84892 5.62798C10.8444 5.59366 11.8218 5.90005 12.6196 6.4965L14.3984 4.71759C13.0958 3.63605 11.4396 3.07387 9.74786 3.13903C8.05609 3.2042 6.44804 3.89211 5.23256 5.07065C4.01708 6.24919 3.27988 7.83525 3.16255 9.52421C3.04523 11.2132 3.55604 12.8859 4.59689 14.2212C5.63774 15.5565 7.13522 16.4601 8.80174 16.7586C10.4683 17.0571 12.1863 16.7293 13.6258 15.8382C15.0654 14.9472 16.125 13.5556 16.6011 11.9309C17.0773 10.3062 16.9363 8.56292 16.2054 7.0358C16.134 6.88622 16.1248 6.71438 16.1801 6.55809C16.2353 6.4018 16.3504 6.27385 16.5 6.2024C16.6496 6.13095 16.8214 6.12184 16.9777 6.17708C17.134 6.23232 17.2619 6.34739 17.3334 6.49697V6.49705Z" fill="#666666"/>
</svg>
