<svg  viewBox="0 0 99 100" fill="none" xmlns="http://www.w3.org/2000/svg">
<path d="M21.5612 21.428C22.9389 19.8683 23.6666 17.8312 23.5924 15.7423C23.5181 13.6533 22.6475 11.6742 21.1625 10.2184L15.7049 4.70587C15.3259 4.31963 15.0684 3.82892 14.9646 3.29534C14.8608 2.76176 14.9154 2.2091 15.1215 1.70675C15.3276 1.2044 15.6761 0.77475 16.1231 0.471749C16.5702 0.168747 17.0959 0.00589831 17.6342 0.00364799C20.5297 -0.055048 23.3961 0.595337 25.9886 1.8992C28.581 3.20307 30.8223 5.12164 32.5209 7.49089C34.2194 9.86015 35.3247 12.6096 35.7422 15.5043C36.1598 18.3989 35.8772 21.3527 34.9186 24.113L49.4985 38.8398L42.6375 45.7699L40.1586 43.2654C39.0618 42.1587 37.5748 41.5373 36.0245 41.5377C34.4743 41.5381 32.9876 42.1603 31.8914 43.2676L31.8479 43.3115L23.8907 35.274C21.1443 36.2461 18.2051 36.5291 15.3264 36.0986C12.4476 35.6681 9.71574 34.537 7.36609 32.8027C5.01643 31.0685 3.11951 28.7832 1.8388 26.1437C0.558093 23.5042 -0.0679912 20.5898 0.0145064 17.6515C0.0405376 17.1192 0.21931 16.6059 0.529039 16.1744C0.838768 15.7429 1.26608 15.4116 1.7589 15.2211C2.25173 15.0305 2.78878 14.9889 3.30462 15.1012C3.82046 15.2136 4.29282 15.475 4.66413 15.8538L10.3551 21.6021C11.0942 22.3487 11.9743 22.9377 12.943 23.3342C13.9118 23.7307 14.9495 23.9267 15.9946 23.9104C17.0398 23.8942 18.071 23.6661 19.0273 23.2397C19.9835 22.8132 20.8451 22.1972 21.5612 21.428ZM98.4403 87.8088C97.8891 89.8945 96.9365 91.8499 95.6367 93.5634C94.337 95.2769 92.7157 96.7149 90.8654 97.7951C89.0151 98.8754 86.9722 99.5767 84.8535 99.8589C82.7347 100.141 80.5817 99.9989 78.5174 99.4402C76.4531 98.8816 74.5181 97.9174 72.823 96.6029C71.1278 95.2884 69.7058 93.6493 68.6381 91.7794C67.5705 89.9094 66.8781 87.8452 66.6007 85.7049C66.3233 83.5645 66.4663 81.3899 67.0214 79.3054C67.0534 79.1848 67.0995 79.0723 67.134 78.9531L56.1157 67.8238L56.1592 67.7798C57.2536 66.671 57.8682 65.1692 57.8682 63.6035C57.8682 62.0378 57.2536 60.536 56.1592 59.4272L53.6813 56.9249L60.5423 49.9949L78.1746 67.8048C80.9434 66.9814 83.8796 66.9182 86.6807 67.6219C89.4817 68.3256 92.0465 69.7707 94.1109 71.8084C96.1752 73.8461 97.6646 76.4027 98.4255 79.2151C99.1865 82.0275 99.1916 84.9938 98.4403 87.8088ZM94.1732 80.4602L85.7968 71.9993L74.3544 75.0963L71.2884 86.654L79.6648 95.1148L91.1073 92.0179L94.1732 80.4602ZM98.6721 3.26648C98.8479 3.44412 98.9591 3.67669 98.9873 3.92629C99.0155 4.17589 98.9592 4.42779 98.8275 4.64092L89.2384 20.1643C89.1525 20.3035 89.0389 20.4231 88.9048 20.5156C88.7708 20.6082 88.6192 20.6716 88.4596 20.7019L82.8961 21.7596L48.0814 56.925L53.3587 62.2554C53.534 62.4325 53.673 62.6427 53.7679 62.8741C53.8628 63.1054 53.9116 63.3534 53.9116 63.6039C53.9116 63.8543 53.8628 64.1023 53.7679 64.3336C53.673 64.565 53.5339 64.7752 53.3586 64.9523L51.4471 66.8832C51.2042 67.1158 50.8917 67.2604 50.5587 67.2944C50.2257 67.3284 49.8909 67.2499 49.6068 67.0711C48.7689 66.591 47.7983 66.4017 46.8437 66.5323C45.8892 66.663 45.0034 67.1063 44.3222 67.7943C43.6411 68.4823 43.2022 69.377 43.0728 70.3412C42.9435 71.3054 43.1309 72.2858 43.6062 73.1321C43.7832 73.419 43.861 73.7572 43.8273 74.0936C43.7936 74.43 43.6504 74.7456 43.4202 74.9909L22.5423 96.0792C21.3168 97.3189 19.8615 98.3026 18.2595 98.974C16.6575 99.6454 14.9403 99.9913 13.2058 99.992C11.4714 99.9927 9.75389 99.6481 8.15137 98.978C6.54885 98.3079 5.09277 97.3254 3.86636 96.0866C2.63995 94.8479 1.66724 93.3771 1.00383 91.7584C0.340417 90.1398 -0.000690625 88.4049 1.04979e-06 86.653C0.000692724 84.9011 0.34317 83.1665 1.00786 81.5484C1.67255 79.9303 2.64641 78.4603 3.87381 77.2225L24.7517 56.1344C24.9946 55.9018 25.307 55.7571 25.6401 55.7231C25.9731 55.6891 26.3079 55.7676 26.592 55.9464C27.4299 56.4265 28.4005 56.6158 29.355 56.4851C30.3096 56.3545 31.1954 55.9112 31.8765 55.2232C32.5576 54.5352 32.9965 53.6405 33.1259 52.6764C33.2552 51.7122 33.0679 50.7318 32.5926 49.8855C32.4156 49.5985 32.3378 49.2603 32.3715 48.9239C32.4052 48.5875 32.5484 48.2719 32.7787 48.0265L34.6901 46.0958C35.0442 45.7382 35.5244 45.5372 36.0251 45.5372C36.5259 45.5372 37.0061 45.738 37.3602 46.0956L42.6375 51.426L77.452 16.2607L78.4991 10.6411C78.5292 10.4799 78.592 10.3268 78.6836 10.1914C78.7752 10.056 78.8936 9.94122 79.0314 9.85441L94.3999 0.168618C94.6109 0.0356445 94.8603 -0.0212116 95.1074 0.00731816C95.3545 0.0358479 95.5848 0.148081 95.7607 0.325722L97.2164 1.79611L98.6721 3.26648ZM6.43292 90.3524L30.3479 66.1964L26.4579 62.2672L7.76223 81.1507C6.58964 82.3356 5.82691 83.8711 5.58742 85.529C5.34792 87.1868 5.64445 88.8784 6.43292 90.3524ZM37.3493 73.2684L33.4585 69.3383L9.54333 93.4944C11.0028 94.2908 12.6778 94.5902 14.3192 94.3483C15.9607 94.1064 17.4811 93.336 18.6545 92.1516L37.3493 73.2684Z" fill="#007FC0"/>
</svg>
