<svg width="41" height="40" viewBox="0 0 41 40" fill="none" xmlns="http://www.w3.org/2000/svg">
<rect x="1.25" y="0.5" width="39" height="39" rx="19.5" fill="white"/>
<rect x="1.25" y="0.5" width="39" height="39" rx="19.5" stroke="#F6F6F6"/>
<g clip-path="url(#clip0_357_8422)">
<path d="M17.0396 28.126C24.5868 28.126 28.7148 21.8732 28.7148 16.4508C28.7148 16.2732 28.7148 16.0964 28.7028 15.9204C29.5059 15.3396 30.1991 14.6203 30.75 13.7964C30.0012 14.1284 29.2067 14.3461 28.3932 14.442C29.2498 13.9293 29.891 13.1227 30.1972 12.1724C29.3917 12.6504 28.5105 12.9873 27.5916 13.1684C26.9729 12.5106 26.1547 12.075 25.2635 11.929C24.3723 11.783 23.4578 11.9349 22.6616 12.361C21.8654 12.7871 21.2319 13.4638 20.859 14.2862C20.4861 15.1087 20.3946 16.0312 20.5988 16.9108C18.9674 16.829 17.3715 16.405 15.9145 15.6664C14.4576 14.9279 13.1723 13.8912 12.142 12.6236C11.6173 13.527 11.4566 14.5963 11.6926 15.614C11.9286 16.6317 12.5436 17.5211 13.4124 18.1012C12.7594 18.0821 12.1205 17.9059 11.55 17.5876V17.6396C11.5503 18.587 11.8782 19.5051 12.4782 20.2383C13.0782 20.9714 13.9134 21.4744 14.842 21.662C14.2379 21.8268 13.6041 21.8509 12.9892 21.7324C13.2515 22.5477 13.762 23.2606 14.4494 23.7716C15.1367 24.2825 15.9665 24.5658 16.8228 24.582C15.972 25.2508 14.9978 25.7452 13.9557 26.037C12.9137 26.3289 11.8243 26.4124 10.75 26.2828C12.6265 27.487 14.8099 28.1258 17.0396 28.1228" fill="#1DA1F2"/>
</g>
<defs>
<clipPath id="clip0_357_8422">
<rect width="20" height="20" fill="white" transform="translate(10.75 10)"/>
</clipPath>
</defs>
</svg>
