<svg width="16" height="16" viewBox="0 0 16 16" fill="none" xmlns="http://www.w3.org/2000/svg">
<rect width="16" height="16" fill="white" fill-opacity="0.01"/>
<path d="M5.02138 5.47789C4.97495 5.43146 4.93813 5.37633 4.91301 5.31566C4.88789 5.25499 4.87497 5.18997 4.87498 5.1243C4.87499 5.05864 4.88794 4.99362 4.91308 4.93296C4.93822 4.8723 4.97506 4.81719 5.0215 4.77077L7.6465 2.14639C7.74026 2.05266 7.86742 2 8 2C8.13258 2 8.25974 2.05266 8.3535 2.14639L10.9785 4.77077C11.0258 4.817 11.0634 4.87215 11.0893 4.93303C11.1151 4.99391 11.1286 5.05931 11.1289 5.12544C11.1293 5.19158 11.1166 5.25712 11.0914 5.31829C11.0663 5.37947 11.0293 5.43504 10.9825 5.48181C10.9358 5.52858 10.8802 5.5656 10.819 5.59074C10.7579 5.61589 10.6923 5.62864 10.6262 5.62828C10.5601 5.62791 10.4947 5.61444 10.4338 5.58862C10.3729 5.56281 10.3177 5.52517 10.2715 5.47789L8.5 3.70689V9.50002C8.5 9.63263 8.44732 9.7598 8.35355 9.85357C8.25979 9.94734 8.13261 10 8 10C7.86739 10 7.74021 9.94734 7.64645 9.85357C7.55268 9.7598 7.5 9.63263 7.5 9.50002V3.70689L5.7285 5.47789C5.68207 5.52433 5.62695 5.56116 5.56629 5.58629C5.50562 5.61142 5.4406 5.62435 5.37494 5.62435C5.30927 5.62435 5.24425 5.61142 5.18359 5.58629C5.12293 5.56116 5.0678 5.52433 5.02138 5.47789ZM13.5 9.00002C13.3674 9.00002 13.2402 9.0527 13.1464 9.14646C13.0527 9.24023 13 9.36741 13 9.50002V13H3V9.50002C3 9.36741 2.94732 9.24023 2.85355 9.14646C2.75979 9.0527 2.63261 9.00002 2.5 9.00002C2.36739 9.00002 2.24021 9.0527 2.14645 9.14646C2.05268 9.24023 2 9.36741 2 9.50002V13C2.0003 13.2651 2.10575 13.5193 2.29322 13.7068C2.48069 13.8943 2.73487 13.9997 3 14H13C13.2651 13.9997 13.5193 13.8943 13.7068 13.7068C13.8942 13.5193 13.9997 13.2651 14 13V9.50002C14 9.36741 13.9473 9.24023 13.8536 9.14646C13.7598 9.0527 13.6326 9.00002 13.5 9.00002Z" fill="#4C4C4C"/>
</svg>
