<svg width="160" height="160" viewBox="0 0 60 60" fill="none" xmlns="http://www.w3.org/2000/svg">
<path d="M37.5004 9.375C33.6699 9.37813 29.9158 10.4467 26.6578 12.4612C23.3999 14.4756 20.7664 17.3566 19.052 20.782H19.0508C17.6151 23.6425 16.8691 26.7994 16.8726 30C16.8726 30.4973 16.675 30.9742 16.3234 31.3258C15.9718 31.6775 15.4948 31.875 14.9976 31.875C14.5003 31.875 14.0234 31.6775 13.6717 31.3258C13.3201 30.9742 13.1226 30.4973 13.1226 30C13.1196 26.8281 13.7391 23.6865 14.946 20.7532C11.167 21.2431 7.71616 23.1531 5.2944 26.0952C2.87264 29.0373 1.66157 32.7909 1.90718 36.5936C2.1528 40.3963 3.83667 43.9629 6.61678 46.569C9.39689 49.1751 13.0648 50.6253 16.8754 50.625H37.5004C42.9705 50.625 48.2165 48.452 52.0845 44.5841C55.9524 40.7161 58.1254 35.4701 58.1254 30C58.1254 24.5299 55.9524 19.2839 52.0845 15.4159C48.2165 11.548 42.9705 9.375 37.5004 9.375ZM44.9043 35.5308C44.5527 35.8824 44.0758 36.0799 43.5785 36.0799C43.0813 36.0799 42.6044 35.8824 42.2528 35.5308L37.4987 30.7765V45C37.4987 45.4973 37.3012 45.9742 36.9496 46.3258C36.5979 46.6775 36.121 46.875 35.6237 46.875C35.1265 46.875 34.6495 46.6775 34.2979 46.3258C33.9463 45.9742 33.7487 45.4973 33.7487 45V30.7765L28.9947 35.5308C28.8209 35.7066 28.6142 35.8464 28.3862 35.942C28.1583 36.0376 27.9137 36.0872 27.6665 36.088C27.4193 36.0887 27.1744 36.0406 26.9459 35.9463C26.7174 35.852 26.5098 35.7135 26.335 35.5387C26.1602 35.3639 26.0217 35.1563 25.9275 34.9278C25.8333 34.6993 25.7851 34.4544 25.7859 34.2072C25.7867 33.96 25.8363 33.7154 25.9319 33.4875C26.0276 33.2596 26.1673 33.0528 26.3432 32.8791L34.2972 24.9251C34.3413 24.881 34.3876 24.8391 34.4359 24.7997C34.4554 24.7833 34.4762 24.7697 34.4964 24.7545C34.525 24.7327 34.5533 24.7104 34.5831 24.6905C34.6084 24.6736 34.6347 24.6591 34.6602 24.6436C34.6869 24.6277 34.713 24.6108 34.7406 24.5963C34.7671 24.5822 34.7945 24.57 34.8217 24.5571C34.8498 24.5437 34.878 24.5297 34.9068 24.5175C34.933 24.5067 34.9598 24.498 34.9865 24.4884C35.0174 24.4772 35.0484 24.4652 35.0802 24.4556C35.1067 24.4477 35.1334 24.442 35.1599 24.4352C35.1927 24.4268 35.2248 24.4179 35.2579 24.4113C35.2883 24.4052 35.3191 24.402 35.3498 24.3973C35.3795 24.3928 35.4091 24.3872 35.4393 24.3844C35.4937 24.379 35.5483 24.3766 35.6029 24.3759C35.6099 24.3759 35.6169 24.375 35.624 24.375C35.631 24.375 35.6376 24.3759 35.6446 24.3759C35.6992 24.3766 35.7538 24.379 35.8082 24.3844C35.8387 24.3872 35.868 24.3928 35.8977 24.3973C35.9282 24.402 35.9591 24.4052 35.9896 24.4113C36.0226 24.4179 36.055 24.4268 36.0873 24.4352C36.1141 24.442 36.141 24.4477 36.1673 24.4556C36.1991 24.4652 36.2301 24.4772 36.261 24.4884C36.2877 24.498 36.3144 24.5067 36.3407 24.5175C36.3698 24.5297 36.3976 24.5437 36.426 24.5573C36.453 24.57 36.4804 24.582 36.5069 24.5963C36.5345 24.611 36.5608 24.6277 36.5873 24.6436C36.613 24.6591 36.6391 24.6736 36.6644 24.6905C36.6941 24.7104 36.7225 24.7327 36.7511 24.7545C36.7712 24.7697 36.7921 24.7835 36.8118 24.7997C36.8601 24.8391 36.9064 24.881 36.9505 24.9251L44.9045 32.8791C45.0786 33.0532 45.2168 33.2599 45.311 33.4874C45.4052 33.7149 45.4537 33.9587 45.4537 34.2049C45.4537 34.4512 45.4052 34.695 45.311 34.9225C45.2168 35.15 45.0786 35.3567 44.9045 35.5308H44.9043Z" fill="#D9D9D9"/>
</svg>
