<svg width="16" height="16" viewBox="0 0 16 16" fill="none" xmlns="http://www.w3.org/2000/svg">
<rect width="16" height="16" fill="white" fill-opacity="0.01"/>
<path d="M7.57509 9.87171C8.24595 9.42609 8.75552 8.77632 9.02839 8.01858C9.30126 7.26083 9.32293 6.43537 9.09019 5.66436C8.85745 4.89334 8.38266 4.21774 7.7361 3.73754C7.08954 3.25733 6.30556 2.99805 5.50018 2.99805C4.69481 2.99805 3.91083 3.25733 3.26427 3.73754C2.61771 4.21774 2.14292 4.89334 1.91018 5.66436C1.67744 6.43537 1.69911 7.26083 1.97198 8.01858C2.24485 8.77632 2.75442 9.42609 3.42528 9.87171C2.28168 10.2936 1.29328 11.053 0.591091 12.0493C0.552782 12.103 0.525467 12.1637 0.510717 12.228C0.495968 12.2922 0.494075 12.3588 0.505148 12.4238C0.516221 12.4888 0.540041 12.551 0.575238 12.6067C0.610434 12.6625 0.656311 12.7107 0.710228 12.7487C0.764145 12.7866 0.825037 12.8136 0.889398 12.8279C0.95376 12.8422 1.02032 12.8437 1.08525 12.8322C1.15017 12.8207 1.21218 12.7964 1.26771 12.7609C1.32323 12.7253 1.37118 12.6791 1.40878 12.625C1.87022 11.9685 2.48284 11.4327 3.19491 11.0629C3.90698 10.693 4.69759 10.4999 5.49999 10.4999C6.30239 10.4999 7.09302 10.6929 7.80511 11.0627C8.51721 11.4326 9.12986 11.9683 9.59134 12.6247C9.62911 12.6785 9.67711 12.7243 9.73259 12.7595C9.78807 12.7947 9.84995 12.8186 9.91469 12.8299C9.97942 12.8412 10.0457 12.8396 10.1099 12.8252C10.174 12.8108 10.2346 12.7839 10.2884 12.7461C10.3421 12.7083 10.3878 12.6602 10.423 12.6047C10.4581 12.5492 10.482 12.4873 10.4932 12.4225C10.5044 12.3578 10.5027 12.2915 10.4882 12.2274C10.4738 12.1633 10.4469 12.1026 10.409 12.049C9.70681 11.0528 8.71853 10.2935 7.57509 9.87165V9.87171ZM2.75015 6.74996C2.75015 6.20606 2.91144 5.67438 3.21361 5.22214C3.51579 4.76991 3.94528 4.41743 4.44777 4.20929C4.95027 4.00115 5.5032 3.94669 6.03665 4.0528C6.5701 4.15891 7.0601 4.42082 7.4447 4.80541C7.82929 5.19001 8.0912 5.68001 8.19731 6.21346C8.30342 6.74691 8.24896 7.29984 8.04082 7.80234C7.83268 8.30484 7.48021 8.73433 7.02797 9.0365C6.57574 9.33867 6.04405 9.49996 5.50015 9.49996C4.77106 9.49913 4.07207 9.20914 3.55652 8.69359C3.04098 8.17804 2.75098 7.47905 2.75015 6.74996ZM15.3832 12.7457C15.3295 12.7835 15.2689 12.8104 15.2048 12.8248C15.1407 12.8392 15.0745 12.8408 15.0098 12.8296C14.9451 12.8183 14.8832 12.7945 14.8277 12.7593C14.7723 12.7242 14.7243 12.6785 14.6865 12.6248C14.2244 11.9689 13.6117 11.4337 12.8998 11.0639C12.1878 10.6941 11.3975 10.5007 10.5953 10.5C10.4627 10.5 10.3355 10.4473 10.2417 10.3535C10.148 10.2597 10.0953 10.1326 10.0953 9.99996C10.0953 9.86735 10.148 9.74017 10.2417 9.64641C10.3355 9.55264 10.4627 9.49996 10.5953 9.49996C10.988 9.49952 11.376 9.41498 11.7333 9.25202C12.0906 9.08907 12.4089 8.85148 12.6667 8.55525C12.9245 8.25902 13.1158 7.911 13.2279 7.53463C13.3399 7.15825 13.3701 6.76225 13.3163 6.37325C13.2625 5.98425 13.126 5.61128 12.916 5.27944C12.706 4.94761 12.4274 4.66459 12.0989 4.44943C11.7704 4.23428 11.3996 4.09198 11.0115 4.03211C10.6234 3.97224 10.2269 3.99618 9.84884 4.10233C9.72136 4.13769 9.58507 4.12108 9.46982 4.05616C9.35456 3.99123 9.26973 3.88327 9.2339 3.75593C9.19807 3.62858 9.21418 3.49223 9.27868 3.37673C9.34317 3.26124 9.45082 3.17601 9.57803 3.13971C10.4382 2.89703 11.3567 2.96957 12.168 3.34425C12.9794 3.71894 13.6303 4.37111 14.0033 5.18324C14.3763 5.99538 14.447 6.91404 14.2025 7.77367C13.9581 8.6333 13.4147 9.37734 12.6702 9.87171C13.8136 10.2935 14.8019 11.0528 15.5041 12.049C15.5804 12.1574 15.6106 12.2918 15.5879 12.4224C15.5652 12.5531 15.4916 12.6694 15.3832 12.7457Z" fill="#4C4C4C"/>
</svg>
