<svg width="20" height="20" viewBox="0 0 20 20" fill="none" xmlns="http://www.w3.org/2000/svg">
<path d="M10 9.99984C12.3012 9.99984 14.1667 8.13436 14.1667 5.83317C14.1667 3.53198 12.3012 1.6665 10 1.6665C7.69885 1.6665 5.83337 3.53198 5.83337 5.83317C5.83337 8.13436 7.69885 9.99984 10 9.99984Z" stroke="#BEBEBE" stroke-width="1.5" stroke-linecap="round" stroke-linejoin="round"/>
<path d="M16.0084 13.1167L13.0584 16.0667C12.9417 16.1834 12.8334 16.4 12.8084 16.5584L12.6501 17.6833C12.5917 18.0917 12.8751 18.375 13.2834 18.3167L14.4084 18.1583C14.5667 18.1333 14.7917 18.025 14.9001 17.9084L17.8501 14.9584C18.3584 14.45 18.6001 13.8583 17.8501 13.1083C17.1084 12.3667 16.5168 12.6083 16.0084 13.1167Z" stroke="#BEBEBE" stroke-width="1.5" stroke-miterlimit="10" stroke-linecap="round" stroke-linejoin="round"/>
<path d="M15.5834 13.5415C15.8334 14.4415 16.5333 15.1415 17.4333 15.3915" stroke="#BEBEBE" stroke-width="1.5" stroke-miterlimit="10" stroke-linecap="round" stroke-linejoin="round"/>
<path d="M2.84155 18.3333C2.84155 15.1083 6.04991 12.5 9.99991 12.5C10.8666 12.5 11.6999 12.625 12.4749 12.8583" stroke="#BEBEBE" stroke-width="1.5" stroke-linecap="round" stroke-linejoin="round"/>
</svg>
