<svg width="30" height="30" viewBox="0 0 20 20" fill="none" xmlns="http://www.w3.org/2000/svg">
<rect width="20" height="20" fill="white" fill-opacity="0.01"/>
<path d="M18.4958 14.685L11.6232 2.81C11.4584 2.52562 11.2217 2.28957 10.9368 2.12547C10.652 1.96137 10.3291 1.875 10.0003 1.875C9.67163 1.875 9.34869 1.96137 9.06386 2.12547C8.77904 2.28957 8.54233 2.52562 8.37745 2.81V2.81062L1.5048 14.685C1.3398 14.97 1.25276 15.2934 1.25244 15.6227C1.25213 15.9519 1.33854 16.2755 1.503 16.5608C1.66746 16.8461 1.90415 17.083 2.18926 17.2478C2.47437 17.4125 2.79785 17.4993 3.12714 17.4993H16.8736C17.2029 17.4993 17.5264 17.4125 17.8115 17.2477C18.0966 17.083 18.3333 16.846 18.4977 16.5608C18.6622 16.2755 18.7486 15.9519 18.7482 15.6226C18.7479 15.2934 18.6609 14.97 18.4959 14.685H18.4958ZM9.37472 8.12492C9.37472 7.95916 9.44057 7.80019 9.55778 7.68298C9.67499 7.56577 9.83396 7.49992 9.99972 7.49992C10.1655 7.49992 10.3244 7.56577 10.4417 7.68298C10.5589 7.80019 10.6247 7.95916 10.6247 8.12492V11.2499C10.6247 11.4157 10.5589 11.5747 10.4417 11.6919C10.3244 11.8091 10.1655 11.8749 9.99972 11.8749C9.83396 11.8749 9.67499 11.8091 9.55778 11.6919C9.44057 11.5747 9.37472 11.4157 9.37472 11.2499V8.12492ZM10.0002 15.0002C9.81477 15.0002 9.63351 14.9452 9.47934 14.8422C9.32517 14.7391 9.20501 14.5927 9.13405 14.4214C9.06309 14.2501 9.04453 14.0616 9.0807 13.8798C9.11687 13.6979 9.20616 13.5309 9.33727 13.3997C9.46839 13.2686 9.63543 13.1793 9.81729 13.1432C9.99915 13.107 10.1876 13.1256 10.359 13.1965C10.5303 13.2675 10.6767 13.3876 10.7797 13.5418C10.8827 13.696 10.9377 13.8772 10.9377 14.0627C10.9377 14.3113 10.8389 14.5498 10.6631 14.7256C10.4873 14.9014 10.2488 15.0002 10.0002 15.0002Z" fill="#D87407"/>
</svg>
