<svg width="16" height="16" viewBox="0 0 16 16" fill="none" xmlns="http://www.w3.org/2000/svg">
<rect width="16" height="16" fill="white" fill-opacity="0.01"/>
<path d="M8 1.5C6.71442 1.5 5.45772 1.88122 4.3888 2.59545C3.31988 3.30968 2.48676 4.32484 1.99479 5.51256C1.50282 6.70028 1.37409 8.00721 1.6249 9.26809C1.8757 10.529 2.49477 11.6872 3.40381 12.5962C4.31285 13.5052 5.47104 14.1243 6.73192 14.3751C7.99279 14.6259 9.29973 14.4972 10.4874 14.0052C11.6752 13.5132 12.6903 12.6801 13.4046 11.6112C14.1188 10.5423 14.5 9.28558 14.5 8C14.4981 6.27669 13.8126 4.62453 12.594 3.40596C11.3755 2.1874 9.72331 1.50195 8 1.5ZM8 13.5C6.91221 13.5 5.84884 13.1774 4.94437 12.5731C4.0399 11.9687 3.33495 11.1098 2.91867 10.1048C2.50238 9.09977 2.39347 7.9939 2.60568 6.927C2.8179 5.86011 3.34173 4.8801 4.11092 4.11091C4.8801 3.34172 5.86011 2.8179 6.92701 2.60568C7.9939 2.39346 9.09977 2.50238 10.1048 2.91866C11.1098 3.33494 11.9687 4.03989 12.5731 4.94436C13.1774 5.84883 13.5 6.9122 13.5 8C13.4983 9.45818 12.9184 10.8562 11.8873 11.8873C10.8562 12.9184 9.45819 13.4983 8 13.5ZM10.3536 9.64644C10.4474 9.74022 10.5001 9.8674 10.5001 10C10.5001 10.1326 10.4474 10.2598 10.3536 10.3536C10.2598 10.4474 10.1326 10.5 10 10.5C9.86739 10.5 9.74021 10.4473 9.64644 10.3536L8 8.70712L6.35363 10.3536C6.25986 10.4473 6.13267 10.5 6.00006 10.5C5.86744 10.5 5.74025 10.4474 5.64647 10.3536C5.55269 10.2598 5.5 10.1326 5.5 10C5.49999 9.8674 5.55267 9.74022 5.64644 9.64644L7.29294 8L5.64644 6.35356C5.60001 6.30713 5.56318 6.252 5.53805 6.19133C5.51293 6.13067 5.5 6.06564 5.5 5.99998C5.5 5.86736 5.55269 5.74018 5.64647 5.64641C5.74025 5.55264 5.86744 5.49996 6.00006 5.49997C6.06572 5.49997 6.13074 5.5129 6.19141 5.53804C6.25208 5.56317 6.3072 5.6 6.35363 5.64644L8 7.29287L9.64638 5.64644C9.74015 5.55266 9.86733 5.49997 9.99995 5.49997C10.1326 5.49996 10.2598 5.55264 10.3535 5.64641C10.4473 5.74018 10.5 5.86736 10.5 5.99998C10.5 6.1326 10.4473 6.25978 10.3536 6.35356L8.70713 8L10.3536 9.64644Z" fill="#4C4C4C"/>
</svg>
