<svg width="40" height="40" viewBox="0 0 40 40" fill="none" xmlns="http://www.w3.org/2000/svg">
<rect x="0.5" y="0.5" width="39" height="39" rx="19.5" fill="white"/>
<rect x="0.5" y="0.5" width="39" height="39" rx="19.5" stroke="#F6F6F6"/>
<g clip-path="url(#clip0_357_8436)">
<path d="M29.6014 15.1551C29.4883 14.7296 29.2654 14.3413 28.9551 14.029C28.6448 13.7167 28.2579 13.4913 27.8332 13.3755C26.2695 12.9551 20.0195 12.9551 20.0195 12.9551C20.0195 12.9551 13.7695 12.9551 12.2059 13.3755C11.7811 13.4913 11.3942 13.7167 11.0839 14.029C10.7736 14.3413 10.5508 14.7296 10.4377 15.1551C10.0195 16.7255 10.0195 20.0005 10.0195 20.0005C10.0195 20.0005 10.0195 23.2755 10.4377 24.846C10.5508 25.2715 10.7736 25.6598 11.0839 25.9721C11.3942 26.2844 11.7811 26.5097 12.2059 26.6255C13.7695 27.046 20.0195 27.046 20.0195 27.046C20.0195 27.046 26.2695 27.046 27.8332 26.6255C28.2579 26.5097 28.6448 26.2844 28.9551 25.9721C29.2654 25.6598 29.4883 25.2715 29.6014 24.846C30.0195 23.2755 30.0195 20.0005 30.0195 20.0005C30.0195 20.0005 30.0195 16.7255 29.6014 15.1551Z" fill="#FF0302"/>
<path d="M17.9746 22.9731V17.0254L23.2019 19.9993L17.9746 22.9731Z" fill="#FEFEFE"/>
</g>
<defs>
<clipPath id="clip0_357_8436">
<rect width="20" height="20" fill="white" transform="translate(10 10)"/>
</clipPath>
</defs>
</svg>
